<svg width="100" height="100" viewBox="0 0 100 100" fill="none" xmlns="http://www.w3.org/2000/svg">
<rect width="100" height="100" fill="#6F2282"/>
<path d="M50 59.375C52.2101 59.375 54.3297 58.497 55.8925 56.9342C57.4553 55.3714 58.3333 53.2518 58.3333 51.0416V34.375C58.3333 32.1648 57.4553 30.0452 55.8925 28.4824C54.3297 26.9196 52.2101 26.0416 50 26.0416C47.7899 26.0416 45.6702 26.9196 44.1074 28.4824C42.5446 30.0452 41.6667 32.1648 41.6667 34.375V51.0416C41.6667 53.2518 42.5446 55.3714 44.1074 56.9342C45.6702 58.497 47.7899 59.375 50 59.375ZM45.8333 34.375C45.8333 33.2699 46.2723 32.2101 47.0537 31.4287C47.8351 30.6473 48.8949 30.2083 50 30.2083C51.1051 30.2083 52.1649 30.6473 52.9463 31.4287C53.7277 32.2101 54.1667 33.2699 54.1667 34.375V51.0416C54.1667 52.1467 53.7277 53.2065 52.9463 53.9879C52.1649 54.7693 51.1051 55.2083 50 55.2083C48.8949 55.2083 47.8351 54.7693 47.0537 53.9879C46.2723 53.2065 45.8333 52.1467 45.8333 51.0416V34.375Z" fill="#FCBA5A" stroke="#6F2282"/>
<path d="M64.5833 51.0417C64.5833 50.4892 64.3638 49.9593 63.9731 49.5686C63.5824 49.1779 63.0525 48.9584 62.5 48.9584C61.9475 48.9584 61.4175 49.1779 61.0268 49.5686C60.6361 49.9593 60.4167 50.4892 60.4167 51.0417C60.4167 53.8044 59.3192 56.4539 57.3657 58.4074C55.4122 60.3609 52.7627 61.4584 50 61.4584C47.2373 61.4584 44.5878 60.3609 42.6343 58.4074C40.6808 56.4539 39.5833 53.8044 39.5833 51.0417C39.5833 50.4892 39.3638 49.9593 38.9731 49.5686C38.5824 49.1779 38.0525 48.9584 37.5 48.9584C36.9475 48.9584 36.4176 49.1779 36.0269 49.5686C35.6362 49.9593 35.4167 50.4892 35.4167 51.0417C35.4208 54.5456 36.6863 57.9308 38.9816 60.5781C41.277 63.2254 44.4487 64.9578 47.9167 65.4584V69.7917H46.875C46.3225 69.7917 45.7926 70.0112 45.4019 70.4019C45.0112 70.7926 44.7917 71.3225 44.7917 71.875C44.7917 72.4276 45.0112 72.9575 45.4019 73.3482C45.7926 73.7389 46.3225 73.9584 46.875 73.9584H53.125C53.6775 73.9584 54.2074 73.7389 54.5981 73.3482C54.9888 72.9575 55.2083 72.4276 55.2083 71.875C55.2083 71.3225 54.9888 70.7926 54.5981 70.4019C54.2074 70.0112 53.6775 69.7917 53.125 69.7917H52.0833V65.4584C55.5512 64.9578 58.723 63.2254 61.0184 60.5781C63.3137 57.9308 64.5792 54.5456 64.5833 51.0417Z" fill="#FCBA5A" stroke="#6F2282"/>
</svg>
