<svg width="75" height="75" viewBox="0 0 75 75" fill="none" xmlns="http://www.w3.org/2000/svg">
<rect width="75" height="75" fill="#6F2282"/>
<path d="M55.3588 25.4702L55.3766 25.4896L55.3954 25.508C55.8441 25.9482 56.234 26.7665 56.5159 27.6385C56.6501 28.0537 56.7483 28.4442 56.8122 28.7475C56.8628 28.988 56.8831 29.132 56.8906 29.1856C56.8938 29.208 56.8947 29.2146 56.8947 29.2059C56.8947 29.2749 56.9044 29.3915 56.9113 29.4735L56.9132 29.4968C56.9155 29.524 56.9179 29.5532 56.9205 29.5845C56.9291 29.6877 56.9395 29.8132 56.9513 29.9607C56.9818 30.3439 57.0204 30.8699 57.0536 31.4874C57.1201 32.7267 57.1633 34.3185 57.0762 35.8552L57.0746 35.8835V35.9118V38.9118C57.0746 40.5552 56.9863 42.1614 56.8974 43.3833C56.8529 43.9932 56.8085 44.5055 56.7751 44.8773C56.7668 44.9685 56.759 45.0546 56.752 45.1314C56.7451 45.2071 56.739 45.2738 56.7342 45.3275L56.7326 45.3454C56.7255 45.4251 56.7148 45.5438 56.7148 45.6176C56.7148 45.609 56.7139 45.6156 56.7107 45.6381C56.7032 45.6919 56.6828 45.8368 56.6319 46.0804C56.5678 46.3873 56.4692 46.7851 56.3339 47.2138C56.0576 48.0894 55.6666 48.9698 55.1906 49.5162C53.9704 50.6991 52.6669 50.9355 51.7183 51.1075C51.6443 51.121 51.5724 51.134 51.5029 51.1471H51.4179H51.3863L51.3548 51.1491C48.5908 51.324 45.1019 51.4119 42.2942 51.456C40.8925 51.478 39.6644 51.489 38.787 51.4945C38.3483 51.4973 37.9973 51.4986 37.7562 51.4993L37.4798 51.4999L37.4086 51.5L37.3907 51.5L37.3862 51.5H37.3852H37.3849L37.3849 52.5V51.5C36.99 51.5 27.169 51.4983 23.9999 51.1529L23.9459 51.1471H23.8915H23.8905H23.8894H23.8884H23.8873H23.8863H23.8852H23.8842H23.8831H23.882H23.881H23.8799H23.8789H23.8778H23.8768H23.8757H23.8747H23.8736H23.8726H23.8715H23.8704H23.8694H23.8683H23.8673H23.8662H23.8652H23.8641H23.8631H23.862H23.861H23.8599H23.8589H23.8578H23.8567H23.8557H23.8546H23.8536H23.8525H23.8515H23.8504H23.8494H23.8483H23.8473H23.8462H23.8451H23.8441H23.843H23.842H23.8409H23.8399H23.8388H23.8378H23.8367H23.8357H23.8346H23.8336H23.8325H23.8314H23.8304H23.8293H23.8283H23.8272H23.8262H23.8251H23.8241H23.823H23.822H23.8209H23.8198H23.8188H23.8177H23.8167H23.8156H23.8146H23.8135H23.8125H23.8114H23.8104H23.8093H23.8083H23.8072H23.8061H23.8051H23.804H23.803H23.8019H23.8009H23.7998H23.7988H23.7977H23.7967H23.7956H23.7945H23.7935H23.7924H23.7914H23.7903H23.7893H23.7882H23.7872H23.7861H23.7851H23.784H23.783H23.7819H23.7808H23.7798H23.7787H23.7777H23.7766H23.7756H23.7745H23.7735H23.7724H23.7714H23.7703H23.7692H23.7682H23.7671H23.7661H23.765H23.764H23.7629H23.7619H23.7608H23.7598H23.7587H23.7577H23.7566H23.7555H23.7545H23.7534H23.7524H23.7513H23.7503H23.7492H23.7482H23.7471H23.7461H23.745H23.7439H23.7429H23.7418H23.7408H23.7397H23.7387H23.7376H23.7366H23.7355H23.7345H23.7334H23.7324H23.7313H23.7302H23.7292H23.7281H23.7271H23.726H23.725H23.7239H23.7229H23.7218H23.7208H23.7197H23.7186H23.7176H23.7165H23.7155H23.7144H23.7134H23.7123H23.7113H23.7102H23.7092H23.7081H23.7071H23.706H23.7049H23.7039H23.7028H23.7018H23.7007H23.6997H23.6986H23.6976H23.6965H23.6955H23.6944H23.6933H23.6923H23.6912H23.6902H23.6891H23.6881H23.687H23.686H23.6849H23.6839H23.6828H23.6818H23.6807H23.6796H23.6786H23.6775H23.6765H23.6754H23.6744H23.6733H23.6723H23.6712H23.6702H23.6691H23.668H23.667H23.6659H23.6649H23.6638H23.6628H23.6617H23.6607H23.6596H23.6586H23.6575H23.6565H23.6554H23.6543H23.6533H23.6522H23.6512H23.6501H23.6491H23.648H23.647H23.6459H23.6449H23.6438H23.6427H23.6417H23.6406H23.6396H23.6385H23.6375H23.6364H23.6354H23.6343H23.6333H23.6322H23.6312H23.6301H23.629H23.628H23.6269H23.6259H23.6248H23.6238H23.6227H23.6217H23.6206H23.6196H23.6185H23.6174H23.6164H23.6153H23.6143H23.6132H23.6122H23.6111H23.6101H23.609H23.608H23.6069H23.6059H23.6048H23.6037H23.6027H23.6016H23.6006H23.5995H23.5985H23.5974H23.5964H23.5953H23.5943H23.5932H23.5921H23.5911H23.59H23.589H23.5879H23.5869H23.5858H23.5848H23.5837H23.5827H23.5816H23.5806H23.5795H23.5784H23.5774H23.5763H23.5753H23.5742H23.5732H23.5721H23.5711H23.57H23.569H23.5679H23.5668H23.5658H23.5647H23.5637H23.5626H23.5616H23.5605H23.5595H23.5584H23.5574H23.5563H23.5553H23.5542H23.5531H23.5521H23.551H23.55H23.5489H23.5479H23.5468H23.5458H23.5447H23.5437H23.5426H23.5415H23.5405H23.5394H23.5384H23.5373H23.5363H23.5352H23.5342H23.5331H23.5321H23.531H23.53H23.5289H23.5278H23.5268H23.5257H23.5247H23.5236H23.5226H23.5215H23.5205H23.5194H23.5184H23.5173H23.5162H23.5152H23.5141H23.5131H23.512H23.511H23.5099H23.5089H23.5078H23.5068H23.5057H23.5047H23.5036H23.5025H23.5015H23.5004H23.4994H23.4983H23.4973H23.4962H23.4952H23.4941H23.4931H23.492H23.4909H23.4899H23.4888H23.4878H23.4867H23.4857H23.4846H23.4836H23.4825H23.4815H23.4804H23.4794H23.4783H23.4772H23.4762H23.4751H23.4741H23.473H23.472H23.4709H23.4699H23.4688H23.4678H23.4667H23.4656H23.4646H23.4635H23.4625H23.4614H23.4604H23.4593H23.4583H23.4572H23.4562H23.4551H23.4541H23.453H23.4519H23.4509H23.4498H23.4488H23.4477H23.4467H23.4456H23.4446H23.4435H23.4425H23.4414H23.4403H23.4393H23.4382H23.4372H23.4361H23.4351H23.434H23.433H23.4322C23.3843 51.1394 23.3359 51.1317 23.287 51.1239C22.1886 50.9495 20.8672 50.7397 19.7749 49.5344L19.7552 49.5126L19.7342 49.492C19.2854 49.0518 18.8955 48.2335 18.6136 47.3615C18.4794 46.9463 18.3812 46.5558 18.3174 46.2525C18.2667 46.012 18.2464 45.868 18.2389 45.8144C18.2358 45.792 18.2348 45.7854 18.2348 45.7941C18.2348 45.7203 18.2242 45.6016 18.217 45.5219L18.2154 45.504C18.2106 45.4504 18.2046 45.3838 18.1977 45.3083C18.1907 45.2314 18.1828 45.1451 18.1746 45.0538C18.1411 44.6819 18.0967 44.1697 18.0523 43.5597C17.9633 42.3379 17.875 40.7317 17.875 39.0882V36.0882C17.875 34.4448 17.9633 32.8386 18.0523 31.6167C18.0967 31.0068 18.1411 30.4945 18.1746 30.1227C18.1828 30.0314 18.1907 29.9451 18.1977 29.8682C18.2046 29.7926 18.2106 29.7261 18.2154 29.6725C18.2159 29.6668 18.2165 29.6608 18.217 29.6545C18.2242 29.5748 18.2348 29.4561 18.2348 29.3824C18.2348 29.391 18.2358 29.3844 18.2389 29.3619C18.2465 29.3081 18.2668 29.1632 18.3177 28.9196C18.3818 28.6127 18.4805 28.2149 18.6158 27.7862C18.8953 26.9004 19.2921 26.0096 19.7757 25.4648C21.1319 23.9903 22.6047 23.8529 23.3518 23.8529H23.5317H23.5633L23.5949 23.8509C26.3588 23.676 29.8477 23.5881 32.6554 23.544C34.0571 23.522 35.2852 23.511 36.1627 23.5055C36.6014 23.5027 36.9523 23.5014 37.1934 23.5007L37.4698 23.5001L37.541 23.5L37.5589 23.5L37.5634 23.5L37.5645 23.5H37.5647L37.5648 22.5V23.5C37.7499 23.5 45.9942 23.5003 51.5347 23.8509L51.5662 23.8529H51.5978H51.7777C52.5257 23.8529 54.0012 23.9907 55.3588 25.4702ZM34.0408 44.5107C34.0819 44.4866 34.1181 44.462 34.1494 44.4388L34.2502 44.3861L45.0347 38.7443C45.3176 38.6035 45.602 38.3957 45.8291 38.136C46.0489 37.8844 46.3009 37.4821 46.3009 36.9706C46.3009 36.6031 46.1995 36.2364 45.941 35.9194C45.717 35.6449 45.4318 35.4807 45.2139 35.373L34.4301 29.7316L34.4186 29.7255L34.4069 29.7198C34.1155 29.5769 33.7855 29.4853 33.4493 29.4853C33.1212 29.4853 32.7 29.5769 32.3667 29.9037C32.361 29.9094 32.3549 29.9153 32.3486 29.9215C32.1504 30.115 31.7072 30.5479 31.7072 31.3235V42.7941C31.7072 43.4044 31.9816 43.8025 32.1951 44.0388C32.2274 44.1014 32.2668 44.1633 32.3144 44.2233C32.4933 44.449 32.7153 44.5548 32.8687 44.6049C33.1025 44.6814 33.3536 44.6775 33.4158 44.6766C33.4207 44.6765 33.4244 44.6765 33.4268 44.6765C33.5326 44.6765 33.6417 44.6633 33.7514 44.6332C33.8615 44.6029 33.9579 44.5595 34.0408 44.5107Z" stroke="#FCBA5A" stroke-width="2"/>
</svg>
