<svg width="400" height="100" viewBox="0 0 400 100" fill="none" xmlns="http://www.w3.org/2000/svg">
<path d="M400 100L396.386 100L400 96.0997L400 100Z" fill="white" fill-opacity="0.5"/>
<path d="M400 85.7809L386.824 100L383.052 100L400 81.7112L400 85.7809Z" fill="white" fill-opacity="0.5"/>
<path d="M400 71.3924L373.49 100L369.719 100L400 67.3227L400 71.3924Z" fill="white" fill-opacity="0.5"/>
<path d="M400 57.0039L360.157 100L356.386 100L400 52.9342L400 57.0039Z" fill="white" fill-opacity="0.5"/>
<path d="M400 42.6154L346.824 100L343.052 100L400 38.5457L400 42.6154Z" fill="white" fill-opacity="0.5"/>
<path d="M400 28.2269L333.49 100L329.719 100L400 24.1572L400 28.2269Z" fill="white" fill-opacity="0.5"/>
<path d="M400 13.8384L320.157 100L316.386 100L400 9.76874L400 13.8384Z" fill="white" fill-opacity="0.5"/>
<path d="M399.219 0.292837L306.824 100L303.052 100L395.719 -1.87127e-07L398.948 -4.6004e-08L399.219 0.292837Z" fill="white" fill-opacity="0.5"/>
<path d="M385.886 0.292836L293.49 100L289.719 100L382.386 -7.69945e-07L385.614 -6.28823e-07L385.886 0.292836Z" fill="white" fill-opacity="0.5"/>
<path d="M372.552 0.292836L280.157 100L276.386 100L369.052 -1.35276e-06L372.281 -1.21164e-06L372.552 0.292836Z" fill="white" fill-opacity="0.5"/>
<path d="M359.219 0.292835L266.824 100L263.052 100L355.719 -1.93558e-06L358.948 -1.79446e-06L359.219 0.292835Z" fill="white" fill-opacity="0.5"/>
<path d="M345.886 0.292835L253.49 100L249.719 100L342.386 -2.5184e-06L345.614 -2.37728e-06L345.886 0.292835Z" fill="white" fill-opacity="0.5"/>
<path d="M332.552 0.292834L240.157 100L236.386 100L329.052 -3.10122e-06L332.281 -2.9601e-06L332.552 0.292834Z" fill="white" fill-opacity="0.5"/>
<path d="M319.219 0.292834L226.824 100L223.052 100L315.719 -3.68404e-06L318.948 -3.54292e-06L319.219 0.292834Z" fill="white" fill-opacity="0.5"/>
<path d="M305.886 0.292833L213.49 100L209.719 100L302.386 -4.26686e-06L305.614 -4.12573e-06L305.886 0.292833Z" fill="white" fill-opacity="0.5"/>
<path d="M292.552 0.292832L200.157 100L200 100L200 96.0997L289.052 -4.84968e-06L292.281 -4.70855e-06L292.552 0.292832Z" fill="white" fill-opacity="0.5"/>
<path d="M200 85.7809L279.49 -5.26765e-06L275.719 -5.43249e-06L200 81.7112L200 85.7809Z" fill="white" fill-opacity="0.5"/>
<path d="M200 71.3924L266.157 -5.85047e-06L262.386 -6.01531e-06L200 67.3227L200 71.3924Z" fill="white" fill-opacity="0.5"/>
<path d="M200 57.0039L252.824 -6.43328e-06L249.052 -6.59813e-06L200 52.9342L200 57.0039Z" fill="white" fill-opacity="0.5"/>
<path d="M200 42.6154L239.49 -7.0161e-06L235.719 -7.18095e-06L200 38.5457L200 42.6154Z" fill="white" fill-opacity="0.5"/>
<path d="M200 28.2269L226.157 -7.59892e-06L222.386 -7.76377e-06L200 24.1572L200 28.2269Z" fill="white" fill-opacity="0.5"/>
<path d="M200 13.8384L212.824 -8.18174e-06L209.052 -8.34659e-06L200 9.76873L200 13.8384Z" fill="white" fill-opacity="0.5"/>
<path d="M-4.37114e-06 100L3.61425 100L-4.20065e-06 96.0997L-4.37114e-06 100Z" fill="white" fill-opacity="0.5"/>
<path d="M-3.7496e-06 85.7809L13.1764 100L16.9476 100L-3.57171e-06 81.7112L-3.7496e-06 85.7809Z" fill="white" fill-opacity="0.5"/>
<path d="M-3.12066e-06 71.3924L26.5097 100L30.2809 100L-2.94277e-06 67.3227L-3.12066e-06 71.3924Z" fill="white" fill-opacity="0.5"/>
<path d="M-2.49172e-06 57.0039L39.843 100L43.6143 100L-2.31383e-06 52.9342L-2.49172e-06 57.0039Z" fill="white" fill-opacity="0.5"/>
<path d="M-1.86278e-06 42.6154L53.1764 100L56.9476 100L-1.68489e-06 38.5457L-1.86278e-06 42.6154Z" fill="white" fill-opacity="0.5"/>
<path d="M-1.23384e-06 28.2269L66.5097 100L70.2809 100L-1.05595e-06 24.1572L-1.23384e-06 28.2269Z" fill="white" fill-opacity="0.5"/>
<path d="M-6.04897e-07 13.8384L79.843 100L83.6143 100L-4.27005e-07 9.76873L-6.04897e-07 13.8384Z" fill="white" fill-opacity="0.5"/>
<path d="M0.781067 0.29282L93.1764 100L96.9476 100L4.28094 -1.72974e-05L1.05243 -1.74386e-05L0.781067 0.29282Z" fill="white" fill-opacity="0.5"/>
<path d="M14.1144 0.29282L106.51 100L110.281 100L17.6143 -1.67146e-05L14.3858 -1.68557e-05L14.1144 0.29282Z" fill="white" fill-opacity="0.5"/>
<path d="M27.4478 0.292821L119.843 100L123.614 100L30.9476 -1.61318e-05L27.7191 -1.62729e-05L27.4478 0.292821Z" fill="white" fill-opacity="0.5"/>
<path d="M40.7811 0.292821L133.176 100L136.948 100L44.2809 -1.5549e-05L41.0524 -1.56901e-05L40.7811 0.292821Z" fill="white" fill-opacity="0.5"/>
<path d="M54.1144 0.292822L146.51 100L150.281 100L57.6143 -1.49662e-05L54.3858 -1.51073e-05L54.1144 0.292822Z" fill="white" fill-opacity="0.5"/>
<path d="M67.4478 0.292823L159.843 100L163.614 100L70.9476 -1.43833e-05L67.7191 -1.45245e-05L67.4478 0.292823Z" fill="white" fill-opacity="0.5"/>
<path d="M80.7811 0.292823L173.176 100L176.948 100L84.2809 -1.38005e-05L81.0524 -1.39416e-05L80.7811 0.292823Z" fill="white" fill-opacity="0.5"/>
<path d="M94.1144 0.292824L186.51 100L190.281 100L97.6143 -1.32177e-05L94.3858 -1.33588e-05L94.1144 0.292824Z" fill="white" fill-opacity="0.5"/>
<path d="M107.448 0.292824L199.843 100L200 100L200 96.0997L110.948 -1.26349e-05L107.719 -1.2776e-05L107.448 0.292824Z" fill="white" fill-opacity="0.5"/>
<path d="M200 85.7809L120.51 -1.22169e-05L124.281 -1.20521e-05L200 81.7112L200 85.7809Z" fill="white" fill-opacity="0.5"/>
<path d="M200 71.3924L133.843 -1.16341e-05L137.614 -1.14692e-05L200 67.3227L200 71.3924Z" fill="white" fill-opacity="0.5"/>
<path d="M200 57.0039L147.176 -1.10513e-05L150.948 -1.08864e-05L200 52.9342L200 57.0039Z" fill="white" fill-opacity="0.5"/>
<path d="M200 42.6154L160.51 -1.04685e-05L164.281 -1.03036e-05L200 38.5457L200 42.6154Z" fill="white" fill-opacity="0.5"/>
<path d="M200 28.2269L173.843 -9.88563e-06L177.614 -9.72079e-06L200 24.1572L200 28.2269Z" fill="white" fill-opacity="0.5"/>
<path d="M200 13.8384L187.176 -9.30282e-06L190.948 -9.13797e-06L200 9.76873L200 13.8384Z" fill="white" fill-opacity="0.5"/>
<path d="M200 3.59711L197.333 -8.85884e-06L202.667 -8.36634e-06L200 3.59711Z" fill="white" fill-opacity="0.5"/>
</svg>
