<svg width="100" height="400" viewBox="0 0 100 400" fill="none" xmlns="http://www.w3.org/2000/svg">
<path d="M0 400L1.55748e-05 396.386L3.90032 400L0 400Z" fill="white" fill-opacity="0.75"/>
<path d="M14.2191 400L1.15192e-06 386.824L1.67404e-05 383.052L18.2888 400L14.2191 400Z" fill="white" fill-opacity="0.75"/>
<path d="M28.6076 400L2.31755e-06 373.49L1.7906e-05 369.719L32.6773 400L28.6076 400Z" fill="white" fill-opacity="0.75"/>
<path d="M42.9961 400L3.48319e-06 360.157L1.90717e-05 356.386L47.0658 400L42.9961 400Z" fill="white" fill-opacity="0.75"/>
<path d="M57.3846 400L4.64883e-06 346.824L2.02373e-05 343.052L61.4543 400L57.3846 400Z" fill="white" fill-opacity="0.75"/>
<path d="M71.7731 400L5.81447e-06 333.49L2.14029e-05 329.719L75.8428 400L71.7731 400Z" fill="white" fill-opacity="0.75"/>
<path d="M86.1616 400L6.9801e-06 320.157L2.25686e-05 316.386L90.2313 400L86.1616 400Z" fill="white" fill-opacity="0.75"/>
<path d="M99.7072 399.219L8.14574e-06 306.824L2.37342e-05 303.052L100 395.719L100 398.948L99.7072 399.219Z" fill="white" fill-opacity="0.75"/>
<path d="M99.7072 385.886L9.31138e-06 293.49L2.48999e-05 289.719L100 382.386L100 385.614L99.7072 385.886Z" fill="white" fill-opacity="0.75"/>
<path d="M99.7072 372.552L1.0477e-05 280.157L2.60655e-05 276.386L100 369.052L100 372.281L99.7072 372.552Z" fill="white" fill-opacity="0.75"/>
<path d="M99.7072 359.219L1.16426e-05 266.824L2.72311e-05 263.052L100 355.719L100 358.948L99.7072 359.219Z" fill="white" fill-opacity="0.75"/>
<path d="M99.7072 345.886L1.28083e-05 253.49L2.83968e-05 249.719L100 342.386L100 345.614L99.7072 345.886Z" fill="white" fill-opacity="0.75"/>
<path d="M99.7072 332.552L1.39739e-05 240.157L2.95624e-05 236.386L100 329.052L100 332.281L99.7072 332.552Z" fill="white" fill-opacity="0.75"/>
<path d="M99.7072 319.219L1.51396e-05 226.824L3.0728e-05 223.052L100 315.719L100 318.948L99.7072 319.219Z" fill="white" fill-opacity="0.75"/>
<path d="M99.7072 305.886L1.63052e-05 213.49L3.18937e-05 209.719L100 302.386L100 305.614L99.7072 305.886Z" fill="white" fill-opacity="0.75"/>
<path d="M99.7072 292.552L1.74708e-05 200.157L1.74846e-05 200L3.90034 200L100 289.052L100 292.281L99.7072 292.552Z" fill="white" fill-opacity="0.75"/>
<path d="M14.2191 200L100 279.49L100 275.719L18.2888 200L14.2191 200Z" fill="white" fill-opacity="0.75"/>
<path d="M28.6076 200L100 266.157L100 262.386L32.6773 200L28.6076 200Z" fill="white" fill-opacity="0.75"/>
<path d="M42.9961 200L100 252.824L100 249.052L47.0658 200L42.9961 200Z" fill="white" fill-opacity="0.75"/>
<path d="M57.3846 200L100 239.49L100 235.719L61.4543 200L57.3846 200Z" fill="white" fill-opacity="0.75"/>
<path d="M71.7731 200L100 226.157L100 222.386L75.8428 200L71.7731 200Z" fill="white" fill-opacity="0.75"/>
<path d="M86.1616 200L100 212.824L100 209.052L90.2313 200L86.1616 200Z" fill="white" fill-opacity="0.75"/>
<path d="M3.49691e-05 -8.74228e-06L4.99119e-05 3.61425L3.90036 -8.4013e-06L3.49691e-05 -8.74228e-06Z" fill="white" fill-opacity="0.75"/>
<path d="M14.2192 -7.4992e-06L3.38172e-05 13.1764L4.87463e-05 16.9476L18.2888 -7.14342e-06L14.2192 -7.4992e-06Z" fill="white" fill-opacity="0.75"/>
<path d="M28.6076 -6.24132e-06L3.26516e-05 26.5097L4.75807e-05 30.2809L32.6773 -5.88554e-06L28.6076 -6.24132e-06Z" fill="white" fill-opacity="0.75"/>
<path d="M42.9961 -4.98344e-06L3.14859e-05 39.843L4.6415e-05 43.6142L47.0658 -4.62766e-06L42.9961 -4.98344e-06Z" fill="white" fill-opacity="0.75"/>
<path d="M57.3846 -3.72556e-06L3.03203e-05 53.1764L4.52494e-05 56.9476L61.4543 -3.36977e-06L57.3846 -3.72556e-06Z" fill="white" fill-opacity="0.75"/>
<path d="M71.7731 -2.46768e-06L2.91546e-05 66.5097L4.40837e-05 70.2809L75.8428 -2.11189e-06L71.7731 -2.46768e-06Z" fill="white" fill-opacity="0.75"/>
<path d="M86.1616 -1.20979e-06L2.7989e-05 79.843L4.29181e-05 83.6142L90.2313 -8.54011e-07L86.1616 -1.20979e-06Z" fill="white" fill-opacity="0.75"/>
<path d="M99.7072 0.781067L2.68234e-05 93.1764L4.17525e-05 96.9476L100 4.28094L100 1.05243L99.7072 0.781067Z" fill="white" fill-opacity="0.75"/>
<path d="M99.7072 14.1144L2.56577e-05 106.51L4.05868e-05 110.281L100 17.6143L100 14.3858L99.7072 14.1144Z" fill="white" fill-opacity="0.75"/>
<path d="M99.7072 27.4478L2.44921e-05 119.843L3.94212e-05 123.614L100 30.9476L100 27.7191L99.7072 27.4478Z" fill="white" fill-opacity="0.75"/>
<path d="M99.7072 40.7811L2.33265e-05 133.176L3.82556e-05 136.948L100 44.2809L100 41.0524L99.7072 40.7811Z" fill="white" fill-opacity="0.75"/>
<path d="M99.7072 54.1144L2.21608e-05 146.51L3.70899e-05 150.281L100 57.6143L100 54.3858L99.7072 54.1144Z" fill="white" fill-opacity="0.75"/>
<path d="M99.7072 67.4478L2.09952e-05 159.843L3.59243e-05 163.614L100 70.9476L100 67.7191L99.7072 67.4478Z" fill="white" fill-opacity="0.75"/>
<path d="M99.7072 80.7811L1.98295e-05 173.176L3.47586e-05 176.948L100 84.2809L100 81.0524L99.7072 80.7811Z" fill="white" fill-opacity="0.75"/>
<path d="M99.7072 94.1144L1.86639e-05 186.51L3.3593e-05 190.281L100 97.6143L100 94.3858L99.7072 94.1144Z" fill="white" fill-opacity="0.75"/>
<path d="M99.7072 107.448L1.74983e-05 199.843L1.74846e-05 200L3.90034 200L100 110.948L100 107.719L99.7072 107.448Z" fill="white" fill-opacity="0.75"/>
<path d="M14.2191 200L100 120.51L100 124.281L18.2888 200L14.2191 200Z" fill="white" fill-opacity="0.75"/>
<path d="M28.6076 200L100 133.843L100 137.614L32.6773 200L28.6076 200Z" fill="white" fill-opacity="0.75"/>
<path d="M42.9961 200L100 147.176L100 150.948L47.0658 200L42.9961 200Z" fill="white" fill-opacity="0.75"/>
<path d="M57.3846 200L100 160.51L100 164.281L61.4543 200L57.3846 200Z" fill="white" fill-opacity="0.75"/>
<path d="M71.7731 200L100 173.843L100 177.614L75.8428 200L71.7731 200Z" fill="white" fill-opacity="0.75"/>
<path d="M86.1616 200L100 187.176L100 190.948L90.2313 200L86.1616 200Z" fill="white" fill-opacity="0.75"/>
<path d="M96.4029 200L100 197.333L100 202.667L96.4029 200Z" fill="white" fill-opacity="0.75"/>
</svg>
