<svg width="800" height="100" viewBox="0 0 800 100" fill="none" xmlns="http://www.w3.org/2000/svg">
<rect width="100" height="100" fill="white"/>
<path d="M100 0H800V100H100V0Z" fill="#22823D"/>
<path d="M121.25 42.7812H125.674C126.618 42.7812 127.422 42.944 128.086 43.2695C128.75 43.5951 129.255 44.0768 129.6 44.7148C129.951 45.3529 130.127 46.1374 130.127 47.0684C130.127 47.8105 130.02 48.4551 129.805 49.002C129.596 49.5423 129.297 49.9948 128.906 50.3594C128.522 50.724 128.057 51.0072 127.51 51.209L126.719 51.6582H123.057L123.047 49.4805H125.615C126.038 49.4805 126.39 49.3861 126.67 49.1973C126.956 49.0085 127.168 48.748 127.305 48.416C127.448 48.0775 127.52 47.6901 127.52 47.2539C127.52 46.7786 127.454 46.3717 127.324 46.0332C127.201 45.6882 127.002 45.4245 126.729 45.2422C126.462 45.0599 126.11 44.9688 125.674 44.9688H123.867V57H121.25V42.7812ZM127.793 57L125.127 50.6328H127.871L130.586 56.8633V57H127.793ZM141.254 54.8223V57H135.082V54.8223H141.254ZM135.834 42.7812V57H133.217V42.7812H135.834ZM140.424 48.6211V50.7402H135.082V48.6211H140.424ZM141.215 42.7812V44.9688H135.082V42.7812H141.215ZM150.125 53.2988C150.125 53.0189 150.096 52.7715 150.037 52.5566C149.985 52.3353 149.881 52.1335 149.725 51.9512C149.568 51.7689 149.344 51.5898 149.051 51.4141C148.758 51.2318 148.38 51.0462 147.918 50.8574C147.371 50.6361 146.854 50.4017 146.365 50.1543C145.877 49.9004 145.441 49.6074 145.057 49.2754C144.673 48.9434 144.37 48.5527 144.148 48.1035C143.934 47.6543 143.826 47.1302 143.826 46.5312C143.826 45.9453 143.93 45.4115 144.139 44.9297C144.354 44.4414 144.656 44.0247 145.047 43.6797C145.438 43.3281 145.9 43.0579 146.434 42.8691C146.974 42.6803 147.57 42.5859 148.221 42.5859C149.139 42.5859 149.926 42.778 150.584 43.1621C151.242 43.5462 151.749 44.0671 152.107 44.7246C152.465 45.3822 152.645 46.1243 152.645 46.9512H150.037C150.037 46.5215 149.972 46.1406 149.842 45.8086C149.718 45.4701 149.52 45.2064 149.246 45.0176C148.973 44.8288 148.621 44.7344 148.191 44.7344C147.788 44.7344 147.456 44.8158 147.195 44.9785C146.935 45.1348 146.743 45.3496 146.619 45.623C146.495 45.89 146.434 46.196 146.434 46.541C146.434 46.7884 146.489 47.013 146.6 47.2148C146.717 47.4102 146.876 47.5892 147.078 47.752C147.28 47.9147 147.524 48.071 147.811 48.2207C148.104 48.3639 148.429 48.5039 148.787 48.6406C149.445 48.888 150.021 49.1615 150.516 49.4609C151.01 49.7539 151.421 50.0859 151.746 50.457C152.078 50.8216 152.326 51.235 152.488 51.6973C152.651 52.1595 152.732 52.6868 152.732 53.2793C152.732 53.8652 152.632 54.3991 152.43 54.8809C152.228 55.3626 151.935 55.776 151.551 56.1211C151.167 56.4661 150.701 56.7331 150.154 56.9219C149.614 57.1042 149.012 57.1953 148.348 57.1953C147.71 57.1953 147.101 57.1042 146.521 56.9219C145.949 56.7331 145.441 56.4499 144.998 56.0723C144.555 55.6947 144.207 55.2194 143.953 54.6465C143.699 54.0671 143.572 53.3867 143.572 52.6055H146.18C146.18 53.0417 146.229 53.4193 146.326 53.7383C146.424 54.0508 146.57 54.3047 146.766 54.5C146.961 54.6888 147.195 54.8288 147.469 54.9199C147.742 55.0046 148.051 55.0469 148.396 55.0469C148.807 55.0469 149.139 54.972 149.393 54.8223C149.646 54.6725 149.832 54.4674 149.949 54.207C150.066 53.9401 150.125 53.6374 150.125 53.2988ZM160.539 51.8633H157.58V49.6758H160.529C160.985 49.6758 161.35 49.5814 161.623 49.3926C161.903 49.1973 162.105 48.9271 162.229 48.582C162.359 48.237 162.424 47.8464 162.424 47.4102C162.424 46.987 162.359 46.5898 162.229 46.2188C162.105 45.8411 161.903 45.5384 161.623 45.3105C161.35 45.0827 160.988 44.9688 160.539 44.9688H158.371V57H155.764V42.7812H160.539C161.483 42.7812 162.294 42.9798 162.971 43.377C163.648 43.7741 164.165 44.321 164.523 45.0176C164.888 45.7077 165.07 46.4987 165.07 47.3906C165.07 48.3086 164.888 49.1029 164.523 49.7734C164.159 50.4375 163.638 50.9518 162.961 51.3164C162.29 51.681 161.483 51.8633 160.539 51.8633ZM177.887 48.7578V51.1504C177.887 52.153 177.77 53.0319 177.535 53.7871C177.301 54.5423 176.962 55.1738 176.52 55.6816C176.077 56.1829 175.546 56.5605 174.928 56.8145C174.309 57.0684 173.626 57.1953 172.877 57.1953C172.122 57.1953 171.435 57.0684 170.816 56.8145C170.198 56.5605 169.664 56.1829 169.215 55.6816C168.772 55.1738 168.427 54.5423 168.18 53.7871C167.939 53.0319 167.818 52.153 167.818 51.1504V48.7578C167.818 47.7357 167.939 46.8405 168.18 46.0723C168.421 45.304 168.762 44.6628 169.205 44.1484C169.654 43.6341 170.188 43.2467 170.807 42.9863C171.425 42.7194 172.109 42.5859 172.857 42.5859C173.613 42.5859 174.296 42.7194 174.908 42.9863C175.527 43.2467 176.057 43.6341 176.5 44.1484C176.949 44.6628 177.291 45.304 177.525 46.0723C177.766 46.8405 177.887 47.7357 177.887 48.7578ZM175.289 51.1504V48.7383C175.289 48.0417 175.237 47.4427 175.133 46.9414C175.029 46.4401 174.872 46.0332 174.664 45.7207C174.456 45.4017 174.199 45.1673 173.893 45.0176C173.593 44.8678 173.248 44.793 172.857 44.793C172.46 44.793 172.109 44.8678 171.803 45.0176C171.503 45.1673 171.249 45.4017 171.041 45.7207C170.839 46.0332 170.686 46.4401 170.582 46.9414C170.478 47.4427 170.426 48.0417 170.426 48.7383V51.1504C170.426 51.834 170.478 52.4199 170.582 52.9082C170.686 53.3965 170.842 53.7936 171.051 54.0996C171.266 54.4056 171.523 54.6335 171.822 54.7832C172.128 54.9264 172.48 54.998 172.877 54.998C173.268 54.998 173.613 54.9264 173.912 54.7832C174.218 54.6335 174.472 54.4056 174.674 54.0996C174.882 53.7936 175.035 53.3965 175.133 52.9082C175.237 52.4199 175.289 51.834 175.289 51.1504ZM187.207 53.2988C187.207 53.0189 187.178 52.7715 187.119 52.5566C187.067 52.3353 186.963 52.1335 186.807 51.9512C186.65 51.7689 186.426 51.5898 186.133 51.4141C185.84 51.2318 185.462 51.0462 185 50.8574C184.453 50.6361 183.936 50.4017 183.447 50.1543C182.959 49.9004 182.523 49.6074 182.139 49.2754C181.755 48.9434 181.452 48.5527 181.23 48.1035C181.016 47.6543 180.908 47.1302 180.908 46.5312C180.908 45.9453 181.012 45.4115 181.221 44.9297C181.436 44.4414 181.738 44.0247 182.129 43.6797C182.52 43.3281 182.982 43.0579 183.516 42.8691C184.056 42.6803 184.652 42.5859 185.303 42.5859C186.221 42.5859 187.008 42.778 187.666 43.1621C188.324 43.5462 188.831 44.0671 189.189 44.7246C189.548 45.3822 189.727 46.1243 189.727 46.9512H187.119C187.119 46.5215 187.054 46.1406 186.924 45.8086C186.8 45.4701 186.602 45.2064 186.328 45.0176C186.055 44.8288 185.703 44.7344 185.273 44.7344C184.87 44.7344 184.538 44.8158 184.277 44.9785C184.017 45.1348 183.825 45.3496 183.701 45.623C183.577 45.89 183.516 46.196 183.516 46.541C183.516 46.7884 183.571 47.013 183.682 47.2148C183.799 47.4102 183.958 47.5892 184.16 47.752C184.362 47.9147 184.606 48.071 184.893 48.2207C185.186 48.3639 185.511 48.5039 185.869 48.6406C186.527 48.888 187.103 49.1615 187.598 49.4609C188.092 49.7539 188.503 50.0859 188.828 50.457C189.16 50.8216 189.408 51.235 189.57 51.6973C189.733 52.1595 189.814 52.6868 189.814 53.2793C189.814 53.8652 189.714 54.3991 189.512 54.8809C189.31 55.3626 189.017 55.776 188.633 56.1211C188.249 56.4661 187.783 56.7331 187.236 56.9219C186.696 57.1042 186.094 57.1953 185.43 57.1953C184.792 57.1953 184.183 57.1042 183.604 56.9219C183.031 56.7331 182.523 56.4499 182.08 56.0723C181.637 55.6947 181.289 55.2194 181.035 54.6465C180.781 54.0671 180.654 53.3867 180.654 52.6055H183.262C183.262 53.0417 183.311 53.4193 183.408 53.7383C183.506 54.0508 183.652 54.3047 183.848 54.5C184.043 54.6888 184.277 54.8288 184.551 54.9199C184.824 55.0046 185.133 55.0469 185.479 55.0469C185.889 55.0469 186.221 54.972 186.475 54.8223C186.729 54.6725 186.914 54.4674 187.031 54.207C187.148 53.9401 187.207 53.6374 187.207 53.2988ZM198.256 42.7812V57H195.658V42.7812H198.256ZM201.84 42.7812V44.9688H192.133V42.7812H201.84ZM208.543 45.0273L205.291 57H202.537L207.02 42.7812H208.738L208.543 45.0273ZM211.111 57L207.859 45.0273L207.635 42.7812H209.373L213.875 57H211.111ZM211.199 51.707V53.8848H204.676V51.707H211.199ZM228.834 52.3125H231.441C231.396 53.3607 231.181 54.2493 230.797 54.9785C230.419 55.7012 229.876 56.2513 229.166 56.6289C228.463 57.0065 227.607 57.1953 226.598 57.1953C225.829 57.1953 225.143 57.0618 224.537 56.7949C223.932 56.5215 223.417 56.1276 222.994 55.6133C222.577 55.099 222.258 54.4674 222.037 53.7188C221.822 52.9635 221.715 52.1009 221.715 51.1309V48.6602C221.715 47.6901 221.829 46.8275 222.057 46.0723C222.285 45.3171 222.61 44.679 223.033 44.1582C223.463 43.6374 223.984 43.2435 224.596 42.9766C225.208 42.7096 225.898 42.5762 226.666 42.5762C227.682 42.5762 228.531 42.7682 229.215 43.1523C229.898 43.5365 230.426 44.0996 230.797 44.8418C231.168 45.5775 231.386 46.4759 231.451 47.5371H228.844C228.818 46.847 228.733 46.3001 228.59 45.8965C228.447 45.4863 228.222 45.1934 227.916 45.0176C227.61 44.8418 227.193 44.7539 226.666 44.7539C226.256 44.7539 225.901 44.8288 225.602 44.9785C225.302 45.1283 225.058 45.3626 224.869 45.6816C224.68 45.9941 224.54 46.3945 224.449 46.8828C224.358 47.3711 224.312 47.957 224.312 48.6406V51.1309C224.312 51.7884 224.352 52.3613 224.43 52.8496C224.508 53.3379 224.632 53.7448 224.801 54.0703C224.977 54.3893 225.211 54.6302 225.504 54.793C225.797 54.9492 226.161 55.0273 226.598 55.0273C227.125 55.0273 227.545 54.9492 227.857 54.793C228.17 54.6302 228.401 54.3535 228.551 53.9629C228.707 53.5658 228.801 53.0156 228.834 52.3125ZM244.18 48.7578V51.1504C244.18 52.153 244.062 53.0319 243.828 53.7871C243.594 54.5423 243.255 55.1738 242.812 55.6816C242.37 56.1829 241.839 56.5605 241.221 56.8145C240.602 57.0684 239.919 57.1953 239.17 57.1953C238.415 57.1953 237.728 57.0684 237.109 56.8145C236.491 56.5605 235.957 56.1829 235.508 55.6816C235.065 55.1738 234.72 54.5423 234.473 53.7871C234.232 53.0319 234.111 52.153 234.111 51.1504V48.7578C234.111 47.7357 234.232 46.8405 234.473 46.0723C234.714 45.304 235.055 44.6628 235.498 44.1484C235.947 43.6341 236.481 43.2467 237.1 42.9863C237.718 42.7194 238.402 42.5859 239.15 42.5859C239.906 42.5859 240.589 42.7194 241.201 42.9863C241.82 43.2467 242.35 43.6341 242.793 44.1484C243.242 44.6628 243.584 45.304 243.818 46.0723C244.059 46.8405 244.18 47.7357 244.18 48.7578ZM241.582 51.1504V48.7383C241.582 48.0417 241.53 47.4427 241.426 46.9414C241.322 46.4401 241.165 46.0332 240.957 45.7207C240.749 45.4017 240.492 45.1673 240.186 45.0176C239.886 44.8678 239.541 44.793 239.15 44.793C238.753 44.793 238.402 44.8678 238.096 45.0176C237.796 45.1673 237.542 45.4017 237.334 45.7207C237.132 46.0332 236.979 46.4401 236.875 46.9414C236.771 47.4427 236.719 48.0417 236.719 48.7383V51.1504C236.719 51.834 236.771 52.4199 236.875 52.9082C236.979 53.3965 237.135 53.7936 237.344 54.0996C237.559 54.4056 237.816 54.6335 238.115 54.7832C238.421 54.9264 238.773 54.998 239.17 54.998C239.561 54.998 239.906 54.9264 240.205 54.7832C240.511 54.6335 240.765 54.4056 240.967 54.0996C241.175 53.7936 241.328 53.3965 241.426 52.9082C241.53 52.4199 241.582 51.834 241.582 51.1504ZM247.445 42.7812H251.869C252.813 42.7812 253.617 42.944 254.281 43.2695C254.945 43.5951 255.45 44.0768 255.795 44.7148C256.146 45.3529 256.322 46.1374 256.322 47.0684C256.322 47.8105 256.215 48.4551 256 49.002C255.792 49.5423 255.492 49.9948 255.102 50.3594C254.717 50.724 254.252 51.0072 253.705 51.209L252.914 51.6582H249.252L249.242 49.4805H251.811C252.234 49.4805 252.585 49.3861 252.865 49.1973C253.152 49.0085 253.363 48.748 253.5 48.416C253.643 48.0775 253.715 47.6901 253.715 47.2539C253.715 46.7786 253.65 46.3717 253.52 46.0332C253.396 45.6882 253.197 45.4245 252.924 45.2422C252.657 45.0599 252.305 44.9688 251.869 44.9688H250.062V57H247.445V42.7812ZM253.988 57L251.322 50.6328H254.066L256.781 56.8633V57H253.988ZM259.422 42.7812H263.846C264.79 42.7812 265.594 42.944 266.258 43.2695C266.922 43.5951 267.426 44.0768 267.771 44.7148C268.123 45.3529 268.299 46.1374 268.299 47.0684C268.299 47.8105 268.191 48.4551 267.977 49.002C267.768 49.5423 267.469 49.9948 267.078 50.3594C266.694 50.724 266.229 51.0072 265.682 51.209L264.891 51.6582H261.229L261.219 49.4805H263.787C264.21 49.4805 264.562 49.3861 264.842 49.1973C265.128 49.0085 265.34 48.748 265.477 48.416C265.62 48.0775 265.691 47.6901 265.691 47.2539C265.691 46.7786 265.626 46.3717 265.496 46.0332C265.372 45.6882 265.174 45.4245 264.9 45.2422C264.633 45.0599 264.282 44.9688 263.846 44.9688H262.039V57H259.422V42.7812ZM265.965 57L263.299 50.6328H266.043L268.758 56.8633V57H265.965ZM279.426 54.8223V57H273.254V54.8223H279.426ZM274.006 42.7812V57H271.389V42.7812H274.006ZM278.596 48.6211V50.7402H273.254V48.6211H278.596ZM279.387 42.7812V44.9688H273.254V42.7812H279.387ZM287.838 42.7812V57H285.24V42.7812H287.838ZM291.422 42.7812V44.9688H281.715V42.7812H291.422ZM298.125 45.0273L294.873 57H292.119L296.602 42.7812H298.32L298.125 45.0273ZM300.693 57L297.441 45.0273L297.217 42.7812H298.955L303.457 57H300.693ZM300.781 51.707V53.8848H294.258V51.707H300.781ZM322.639 42.7812L317.658 58.2207H316.203L321.193 42.7812H322.639ZM341.557 51.4238H338.451V49.8906H341.557C342.143 49.8906 342.615 49.7734 342.973 49.5391C343.337 49.3047 343.601 48.9792 343.764 48.5625C343.933 48.1458 344.018 47.6706 344.018 47.1367C344.018 46.6484 343.933 46.1895 343.764 45.7598C343.601 45.3301 343.337 44.985 342.973 44.7246C342.615 44.4577 342.143 44.3242 341.557 44.3242H338.822V57H337.025V42.7812H341.557C342.475 42.7812 343.249 42.9668 343.881 43.3379C344.512 43.709 344.991 44.2233 345.316 44.8809C345.648 45.5319 345.814 46.2773 345.814 47.1172C345.814 48.0286 345.648 48.8066 345.316 49.4512C344.991 50.0957 344.512 50.5872 343.881 50.9258C343.249 51.2578 342.475 51.4238 341.557 51.4238ZM353.943 55.1934V49.4609C353.943 49.0443 353.878 48.709 353.748 48.4551C353.624 48.2012 353.436 48.0156 353.182 47.8984C352.934 47.7812 352.622 47.7227 352.244 47.7227C351.88 47.7227 351.564 47.7975 351.297 47.9473C351.036 48.097 350.835 48.2956 350.691 48.543C350.555 48.7904 350.486 49.0638 350.486 49.3633H348.758C348.758 48.9857 348.839 48.6113 349.002 48.2402C349.171 47.8691 349.412 47.5339 349.725 47.2344C350.037 46.9284 350.411 46.6875 350.848 46.5117C351.29 46.3294 351.785 46.2383 352.332 46.2383C352.983 46.2383 353.559 46.3457 354.061 46.5605C354.562 46.7689 354.956 47.1107 355.242 47.5859C355.529 48.0612 355.672 48.6927 355.672 49.4805V54.6953C355.672 55.0469 355.698 55.4212 355.75 55.8184C355.809 56.2155 355.89 56.5573 355.994 56.8438V57H354.207C354.122 56.7917 354.057 56.515 354.012 56.1699C353.966 55.8184 353.943 55.4928 353.943 55.1934ZM354.217 50.5938L354.236 51.8633H353.035C352.625 51.8633 352.251 51.9089 351.912 52C351.58 52.0911 351.294 52.2246 351.053 52.4004C350.812 52.5697 350.626 52.7812 350.496 53.0352C350.372 53.2891 350.311 53.5788 350.311 53.9043C350.311 54.3275 350.369 54.666 350.486 54.9199C350.604 55.1673 350.779 55.3464 351.014 55.457C351.248 55.5677 351.544 55.623 351.902 55.623C352.339 55.623 352.723 55.5221 353.055 55.3203C353.387 55.1185 353.644 54.8743 353.826 54.5879C354.015 54.3014 354.103 54.0345 354.09 53.7871L354.471 54.5977C354.445 54.8516 354.36 55.1283 354.217 55.4277C354.08 55.7207 353.888 56.0039 353.641 56.2773C353.393 56.5443 353.1 56.7656 352.762 56.9414C352.43 57.1107 352.055 57.1953 351.639 57.1953C351.027 57.1953 350.49 57.0781 350.027 56.8438C349.572 56.6094 349.217 56.2643 348.963 55.8086C348.709 55.3529 348.582 54.7897 348.582 54.1191C348.582 53.6113 348.67 53.1426 348.846 52.7129C349.021 52.2832 349.282 51.9121 349.627 51.5996C349.972 51.2806 350.405 51.0332 350.926 50.8574C351.453 50.6816 352.062 50.5938 352.752 50.5938H354.217ZM361.086 48.0938V57H359.357V46.4336H361.027L361.086 48.0938ZM363.713 46.375L363.723 48.0547C363.579 48.0221 363.449 48.0026 363.332 47.9961C363.221 47.9831 363.091 47.9766 362.941 47.9766C362.616 47.9766 362.329 48.0417 362.082 48.1719C361.841 48.3021 361.633 48.4844 361.457 48.7188C361.281 48.9531 361.141 49.2331 361.037 49.5586C360.933 49.8776 360.861 50.2292 360.822 50.6133L360.373 50.9062C360.373 50.2682 360.422 49.6693 360.52 49.1094C360.624 48.5495 360.783 48.0547 360.998 47.625C361.213 47.1888 361.486 46.8503 361.818 46.6094C362.157 46.362 362.561 46.2383 363.029 46.2383C363.133 46.2383 363.26 46.2546 363.41 46.2871C363.566 46.3132 363.667 46.3424 363.713 46.375ZM371.236 55.1934V49.4609C371.236 49.0443 371.171 48.709 371.041 48.4551C370.917 48.2012 370.729 48.0156 370.475 47.8984C370.227 47.7812 369.915 47.7227 369.537 47.7227C369.173 47.7227 368.857 47.7975 368.59 47.9473C368.329 48.097 368.128 48.2956 367.984 48.543C367.848 48.7904 367.779 49.0638 367.779 49.3633H366.051C366.051 48.9857 366.132 48.6113 366.295 48.2402C366.464 47.8691 366.705 47.5339 367.018 47.2344C367.33 46.9284 367.704 46.6875 368.141 46.5117C368.583 46.3294 369.078 46.2383 369.625 46.2383C370.276 46.2383 370.852 46.3457 371.354 46.5605C371.855 46.7689 372.249 47.1107 372.535 47.5859C372.822 48.0612 372.965 48.6927 372.965 49.4805V54.6953C372.965 55.0469 372.991 55.4212 373.043 55.8184C373.102 56.2155 373.183 56.5573 373.287 56.8438V57H371.5C371.415 56.7917 371.35 56.515 371.305 56.1699C371.259 55.8184 371.236 55.4928 371.236 55.1934ZM371.51 50.5938L371.529 51.8633H370.328C369.918 51.8633 369.544 51.9089 369.205 52C368.873 52.0911 368.587 52.2246 368.346 52.4004C368.105 52.5697 367.919 52.7812 367.789 53.0352C367.665 53.2891 367.604 53.5788 367.604 53.9043C367.604 54.3275 367.662 54.666 367.779 54.9199C367.896 55.1673 368.072 55.3464 368.307 55.457C368.541 55.5677 368.837 55.623 369.195 55.623C369.632 55.623 370.016 55.5221 370.348 55.3203C370.68 55.1185 370.937 54.8743 371.119 54.5879C371.308 54.3014 371.396 54.0345 371.383 53.7871L371.764 54.5977C371.738 54.8516 371.653 55.1283 371.51 55.4277C371.373 55.7207 371.181 56.0039 370.934 56.2773C370.686 56.5443 370.393 56.7656 370.055 56.9414C369.723 57.1107 369.348 57.1953 368.932 57.1953C368.32 57.1953 367.783 57.0781 367.32 56.8438C366.865 56.6094 366.51 56.2643 366.256 55.8086C366.002 55.3529 365.875 54.7897 365.875 54.1191C365.875 53.6113 365.963 53.1426 366.139 52.7129C366.314 52.2832 366.575 51.9121 366.92 51.5996C367.265 51.2806 367.698 51.0332 368.219 50.8574C368.746 50.6816 369.355 50.5938 370.045 50.5938H371.51ZM376.65 42H378.379V54.9492L378.232 57H376.65V42ZM384.307 51.2383V52.2246C384.307 53.0579 384.229 53.7871 384.072 54.4121C383.923 55.0306 383.698 55.5482 383.398 55.9648C383.099 56.375 382.734 56.6842 382.305 56.8926C381.875 57.0944 381.383 57.1953 380.83 57.1953C380.283 57.1953 379.811 57.0846 379.414 56.8633C379.017 56.6419 378.685 56.3229 378.418 55.9062C378.151 55.4896 377.939 54.985 377.783 54.3926C377.633 53.8001 377.529 53.1328 377.471 52.3906V51.0723C377.529 50.3236 377.633 49.653 377.783 49.0605C377.933 48.4616 378.141 47.9538 378.408 47.5371C378.675 47.1139 379.007 46.7917 379.404 46.5703C379.801 46.349 380.273 46.2383 380.82 46.2383C381.38 46.2383 381.875 46.3359 382.305 46.5312C382.741 46.7266 383.105 47.0293 383.398 47.4395C383.698 47.8431 383.923 48.3607 384.072 48.9922C384.229 49.6172 384.307 50.3659 384.307 51.2383ZM382.578 52.2246V51.2383C382.578 50.6523 382.539 50.1413 382.461 49.7051C382.389 49.2689 382.269 48.9076 382.1 48.6211C381.93 48.3346 381.702 48.1198 381.416 47.9766C381.136 47.8333 380.788 47.7617 380.371 47.7617C380.02 47.7617 379.71 47.8333 379.443 47.9766C379.183 48.1198 378.958 48.3151 378.77 48.5625C378.581 48.8034 378.424 49.0801 378.301 49.3926C378.177 49.6986 378.086 50.0176 378.027 50.3496V53.123C378.112 53.5462 378.245 53.9531 378.428 54.3438C378.617 54.7279 378.87 55.0436 379.189 55.291C379.508 55.5384 379.906 55.6621 380.381 55.6621C380.778 55.6621 381.113 55.5938 381.387 55.457C381.667 55.3203 381.895 55.112 382.07 54.832C382.246 54.5456 382.373 54.1875 382.451 53.7578C382.536 53.3216 382.578 52.8105 382.578 52.2246ZM391.293 57.1953C390.661 57.1953 390.092 57.1009 389.584 56.9121C389.076 56.7233 388.643 56.4368 388.285 56.0527C387.927 55.6621 387.654 55.1706 387.465 54.5781C387.276 53.9857 387.182 53.2858 387.182 52.4785V51.2871C387.182 50.3561 387.289 49.5684 387.504 48.9238C387.725 48.2793 388.021 47.7617 388.393 47.3711C388.764 46.974 389.184 46.6875 389.652 46.5117C390.121 46.3294 390.603 46.2383 391.098 46.2383C391.762 46.2383 392.328 46.3457 392.797 46.5605C393.266 46.7754 393.646 47.0944 393.939 47.5176C394.232 47.9408 394.447 48.4616 394.584 49.0801C394.727 49.6986 394.799 50.4115 394.799 51.2188V52.2246H388.197V50.75H393.07V50.5059C393.044 49.959 392.969 49.4772 392.846 49.0605C392.729 48.6439 392.533 48.3184 392.26 48.084C391.986 47.8431 391.599 47.7227 391.098 47.7227C390.779 47.7227 390.482 47.778 390.209 47.8887C389.942 47.9928 389.711 48.1784 389.516 48.4453C389.327 48.7057 389.177 49.0671 389.066 49.5293C388.962 49.9915 388.91 50.5775 388.91 51.2871V52.4785C388.91 53.0449 388.962 53.5332 389.066 53.9434C389.177 54.347 389.337 54.6823 389.545 54.9492C389.76 55.2096 390.02 55.4049 390.326 55.5352C390.639 55.6589 390.993 55.7207 391.391 55.7207C391.97 55.7207 392.449 55.61 392.826 55.3887C393.204 55.1608 393.533 54.8711 393.812 54.5195L394.721 55.6035C394.532 55.8704 394.285 56.1276 393.979 56.375C393.679 56.6159 393.308 56.8145 392.865 56.9707C392.429 57.1204 391.905 57.1953 391.293 57.1953ZM390.043 44.8711L391.938 42H394.115L391.498 44.8711H390.043ZM399.617 48.6895V57H397.889V46.4336H399.52L399.617 48.6895ZM399.197 51.3164L398.494 51.2871C398.488 50.5645 398.569 49.8971 398.738 49.2852C398.914 48.6667 399.161 48.1296 399.48 47.6738C399.806 47.2181 400.193 46.8665 400.643 46.6191C401.092 46.3652 401.59 46.2383 402.137 46.2383C402.566 46.2383 402.957 46.3099 403.309 46.4531C403.66 46.5898 403.96 46.8112 404.207 47.1172C404.454 47.4232 404.643 47.8203 404.773 48.3086C404.91 48.7904 404.979 49.3796 404.979 50.0762V57H403.25V50.0566C403.25 49.5033 403.188 49.0605 403.064 48.7285C402.947 48.39 402.765 48.1458 402.518 47.9961C402.277 47.8398 401.971 47.7617 401.6 47.7617C401.261 47.7617 400.945 47.8561 400.652 48.0449C400.359 48.2337 400.102 48.4941 399.881 48.8262C399.666 49.1582 399.497 49.5391 399.373 49.9688C399.256 50.3919 399.197 50.8411 399.197 51.3164ZM413.703 54.2949C413.703 54.028 413.638 53.7936 413.508 53.5918C413.378 53.39 413.163 53.1947 412.863 53.0059C412.57 52.8171 412.173 52.6152 411.672 52.4004C411.184 52.1986 410.744 52 410.354 51.8047C409.969 51.6029 409.644 51.3848 409.377 51.1504C409.11 50.916 408.905 50.6458 408.762 50.3398C408.625 50.0273 408.557 49.6595 408.557 49.2363C408.557 48.8132 408.635 48.4225 408.791 48.0645C408.954 47.6999 409.182 47.3809 409.475 47.1074C409.768 46.834 410.119 46.6224 410.529 46.4727C410.939 46.3164 411.398 46.2383 411.906 46.2383C412.629 46.2383 413.244 46.3783 413.752 46.6582C414.26 46.9382 414.647 47.3223 414.914 47.8105C415.188 48.2923 415.324 48.8359 415.324 49.4414H413.605C413.605 49.1484 413.54 48.8717 413.41 48.6113C413.28 48.3509 413.088 48.1393 412.834 47.9766C412.58 47.8073 412.271 47.7227 411.906 47.7227C411.522 47.7227 411.21 47.791 410.969 47.9277C410.728 48.0645 410.552 48.2435 410.441 48.4648C410.337 48.6797 410.285 48.9173 410.285 49.1777C410.285 49.373 410.311 49.5423 410.363 49.6855C410.422 49.8223 410.52 49.9525 410.656 50.0762C410.793 50.1934 410.979 50.3171 411.213 50.4473C411.454 50.571 411.76 50.7142 412.131 50.877C412.847 51.1569 413.449 51.4401 413.938 51.7266C414.426 52.013 414.797 52.3483 415.051 52.7324C415.305 53.1165 415.432 53.5918 415.432 54.1582C415.432 54.6204 415.347 55.0404 415.178 55.418C415.015 55.7891 414.781 56.1081 414.475 56.375C414.169 56.6419 413.801 56.847 413.371 56.9902C412.948 57.127 412.473 57.1953 411.945 57.1953C411.151 57.1953 410.477 57.0391 409.924 56.7266C409.377 56.4076 408.96 55.9941 408.674 55.4863C408.394 54.972 408.254 54.4219 408.254 53.8359H409.982C410.002 54.3307 410.113 54.7148 410.314 54.9883C410.523 55.2617 410.773 55.4505 411.066 55.5547C411.359 55.6589 411.652 55.7109 411.945 55.7109C412.329 55.7109 412.652 55.6556 412.912 55.5449C413.173 55.4277 413.368 55.2617 413.498 55.0469C413.635 54.832 413.703 54.5814 413.703 54.2949ZM420.777 42.7812L420.65 52.9863H419.098L418.961 42.7812H420.777ZM418.932 56.0918C418.932 55.7988 419.013 55.5514 419.176 55.3496C419.345 55.1478 419.589 55.0469 419.908 55.0469C420.234 55.0469 420.478 55.1478 420.641 55.3496C420.81 55.5514 420.895 55.7988 420.895 56.0918C420.895 56.3717 420.81 56.6126 420.641 56.8145C420.478 57.0163 420.234 57.1172 419.908 57.1172C419.589 57.1172 419.345 57.0163 419.176 56.8145C419.013 56.6126 418.932 56.3717 418.932 56.0918Z" fill="white"/>
<path d="M43.8598 71.729L45.028 72.4299C45.9626 72.8972 47.1308 73.1308 48.2991 73.1308H64.4206C68.6262 73.1308 72.1308 70.0935 72.8318 66.1215L76.3364 47.8972C77.0374 44.6262 74.4673 41.8224 71.1963 41.8224H61.8505L65.8224 30.8411C66.0561 30.3738 66.0561 29.9065 66.0561 29.4393C66.0561 27.1028 64.1869 25 61.6168 25C60.2149 25 59.0467 25.7009 58.1121 26.6355L44.3271 44.8598H43.8598" stroke="#22823D" stroke-width="3" stroke-miterlimit="10" stroke-linecap="round" stroke-linejoin="round"/>
<path d="M41.2897 74.9996H26.3364C24.9346 74.9996 24 74.065 24 72.6631V43.4575C24 42.0557 24.9346 41.1211 26.3364 41.1211H41.5234C42.9252 41.1211 43.8598 42.0557 43.8598 43.4575V72.8968C43.6262 74.065 42.6916 74.9996 41.2897 74.9996Z" stroke="#22823D" stroke-width="3" stroke-miterlimit="10" stroke-linecap="round" stroke-linejoin="round"/>
</svg>
