<svg width="100" height="400" viewBox="0 0 100 400" fill="none" xmlns="http://www.w3.org/2000/svg">
<path d="M100 0.000244141L100 3.61452L96.0997 0.000244141H100Z" fill="black" fill-opacity="0.5"/>
<path d="M85.7809 0.000244141L100 13.1766L100 16.9479L81.7112 0.000244141H85.7809Z" fill="black" fill-opacity="0.5"/>
<path d="M71.3924 0.000244141L100 26.51L100 30.2812L67.3227 0.000244141H71.3924Z" fill="black" fill-opacity="0.5"/>
<path d="M57.0039 0.000244141L100 39.8433L100 43.6145L52.9342 0.000244141H57.0039Z" fill="black" fill-opacity="0.5"/>
<path d="M42.6154 0.000244141L100 53.1766L100 56.9479L38.5457 0.000244141H42.6154Z" fill="black" fill-opacity="0.5"/>
<path d="M28.2269 0.000244141L100 66.51L100 70.2812L24.1572 0.000244141H28.2269Z" fill="black" fill-opacity="0.5"/>
<path d="M13.8384 0.000244141L100 79.8433L100 83.6145L9.76874 0.000244141H13.8384Z" fill="black" fill-opacity="0.5"/>
<path d="M0.292837 0.781331L100 93.1766L100 96.9479L0 4.28121V1.05269L0.292837 0.781331Z" fill="black" fill-opacity="0.5"/>
<path d="M0.292837 14.1147L100 106.51L100 110.281L0 17.6145V14.386L0.292837 14.1147Z" fill="black" fill-opacity="0.5"/>
<path d="M0.292837 27.448L100 119.843L100 123.615L0 30.9479V27.7194L0.292837 27.448Z" fill="black" fill-opacity="0.5"/>
<path d="M0.292837 40.7813L100 133.177L100 136.948L0 44.2812V41.0527L0.292837 40.7813Z" fill="black" fill-opacity="0.5"/>
<path d="M0.292837 54.1147L100 146.51L100 150.281L0 57.6145V54.386L0.292837 54.1147Z" fill="black" fill-opacity="0.5"/>
<path d="M0.292837 67.448L100 159.843L100 163.615L0 70.9479V67.7194L0.292837 67.448Z" fill="black" fill-opacity="0.5"/>
<path d="M0.292837 80.7813L100 173.177L100 176.948L0 84.2812V81.0527L0.292837 80.7813Z" fill="black" fill-opacity="0.5"/>
<path d="M0.292837 94.1147L100 186.51L100 190.281L0 97.6145V94.386L0.292837 94.1147Z" fill="black" fill-opacity="0.5"/>
<path d="M0.292837 107.448L100 199.843V200H96.0997L0 110.948V107.719L0.292837 107.448Z" fill="black" fill-opacity="0.5"/>
<path d="M85.7809 200L0 120.51V124.281L81.7112 200H85.7809Z" fill="black" fill-opacity="0.5"/>
<path d="M71.3924 200L0 133.843V137.615L67.3227 200H71.3924Z" fill="black" fill-opacity="0.5"/>
<path d="M57.0039 200L0 147.177V150.948L52.9342 200H57.0039Z" fill="black" fill-opacity="0.5"/>
<path d="M42.6154 200L0 160.51V164.281L38.5457 200H42.6154Z" fill="black" fill-opacity="0.5"/>
<path d="M28.2269 200L0 173.843V177.615L24.1572 200H28.2269Z" fill="black" fill-opacity="0.5"/>
<path d="M13.8384 200L0 187.177V190.948L9.76874 200H13.8384Z" fill="black" fill-opacity="0.5"/>
<path d="M100 400L100 396.386L96.0997 400H100Z" fill="black" fill-opacity="0.5"/>
<path d="M85.7809 400L100 386.824L100 383.053L81.7112 400H85.7809Z" fill="black" fill-opacity="0.5"/>
<path d="M71.3924 400L100 373.491L100 369.719L67.3227 400H71.3924Z" fill="black" fill-opacity="0.5"/>
<path d="M57.0039 400L100 360.157L100 356.386L52.9342 400H57.0039Z" fill="black" fill-opacity="0.5"/>
<path d="M42.6154 400L100 346.824L100 343.053L38.5457 400H42.6154Z" fill="black" fill-opacity="0.5"/>
<path d="M28.2269 400L100 333.491L100 329.719L24.1572 400H28.2269Z" fill="black" fill-opacity="0.5"/>
<path d="M13.8384 400L100 320.157L100 316.386L9.76874 400H13.8384Z" fill="black" fill-opacity="0.5"/>
<path d="M0.292837 399.219L100 306.824L100 303.053L0 395.719V398.948L0.292837 399.219Z" fill="black" fill-opacity="0.5"/>
<path d="M0.292837 385.886L100 293.491L100 289.719L0 382.386V385.614L0.292837 385.886Z" fill="black" fill-opacity="0.5"/>
<path d="M0.292837 372.552L100 280.157L100 276.386L0 369.053V372.281L0.292837 372.552Z" fill="black" fill-opacity="0.5"/>
<path d="M0.292837 359.219L100 266.824L100 263.053L0 355.719V358.948L0.292837 359.219Z" fill="black" fill-opacity="0.5"/>
<path d="M0.292837 345.886L100 253.491L100 249.719L0 342.386V345.614L0.292837 345.886Z" fill="black" fill-opacity="0.5"/>
<path d="M0.292837 332.552L100 240.157L100 236.386L0 329.053V332.281L0.292837 332.552Z" fill="black" fill-opacity="0.5"/>
<path d="M0.292837 319.219L100 226.824L100 223.053L0 315.719V318.948L0.292837 319.219Z" fill="black" fill-opacity="0.5"/>
<path d="M0.292837 305.886L100 213.491L100 209.719L0 302.386V305.614L0.292837 305.886Z" fill="black" fill-opacity="0.5"/>
<path d="M0.292837 292.552L100 200.157V200H96.0997L0 289.053V292.281L0.292837 292.552Z" fill="black" fill-opacity="0.5"/>
<path d="M85.7809 200L0 279.491V275.719L81.7112 200H85.7809Z" fill="black" fill-opacity="0.5"/>
<path d="M71.3924 200L0 266.157V262.386L67.3227 200H71.3924Z" fill="black" fill-opacity="0.5"/>
<path d="M57.0039 200L0 252.824V249.053L52.9342 200H57.0039Z" fill="black" fill-opacity="0.5"/>
<path d="M42.6154 200L0 239.491V235.719L38.5457 200H42.6154Z" fill="black" fill-opacity="0.5"/>
<path d="M28.2269 200L0 226.157V222.386L24.1572 200H28.2269Z" fill="black" fill-opacity="0.5"/>
<path d="M13.8384 200L0 212.824V209.053L9.76874 200H13.8384Z" fill="black" fill-opacity="0.5"/>
<path d="M3.59712 200L0 202.667L2.59371e-07 197.334L3.59712 200Z" fill="black" fill-opacity="0.5"/>
</svg>
