<svg width="20" height="16" viewBox="0 0 20 16" fill="none" xmlns="http://www.w3.org/2000/svg">
<path d="M10.4167 16C10.1502 15.9998 9.89079 15.9177 9.67656 15.7658L9.64219 15.7403L4.87864 11.9947H1.25C0.918479 11.9947 0.600537 11.8684 0.366116 11.6436C0.131696 11.4188 0 11.114 0 10.7961V5.20311C0 4.88522 0.131696 4.58035 0.366116 4.35557C0.600537 4.13079 0.918479 4.00451 1.25 4.00451H4.8776L9.64114 0.258882L9.67552 0.233412C9.86175 0.10193 10.0824 0.0225643 10.3128 0.00414322C10.5433 -0.0142778 10.7746 0.0289679 10.9809 0.12907C11.1873 0.229172 11.3606 0.382205 11.4817 0.571147C11.6028 0.760088 11.6668 0.97753 11.6667 1.19928V14.8004C11.6667 15.1183 11.535 15.4232 11.3005 15.6479C11.0661 15.8727 10.7482 15.999 10.4167 15.999V16Z" fill="#6F2282"/>
<path d="M15 11.9952C14.8578 11.9951 14.7181 11.9602 14.594 11.8937C14.4699 11.8273 14.3656 11.7315 14.291 11.6154C14.2165 11.4994 14.1741 11.3671 14.1679 11.2309C14.1617 11.0947 14.1919 10.9593 14.2557 10.8375C14.75 9.89364 15.0005 8.93975 15.0005 7.99985C15.0005 7.03298 14.7578 6.10606 14.2583 5.16666C14.1626 4.97843 14.1478 4.76169 14.2171 4.56309C14.2863 4.36449 14.4341 4.1999 14.6287 4.10474C14.8232 4.00957 15.0489 3.99143 15.2573 4.05423C15.4656 4.11702 15.6399 4.25573 15.7427 4.44051C16.3646 5.61064 16.6666 6.77478 16.6666 7.99985C16.6666 9.18996 16.3541 10.3861 15.7448 11.5547C15.6754 11.6871 15.569 11.7984 15.4375 11.8762C15.306 11.954 15.1545 11.9952 15 11.9952Z" fill="#6F2282"/>
<path d="M17.5 14.3924C17.3537 14.3925 17.2099 14.3557 17.0831 14.2856C16.9563 14.2155 16.851 14.1147 16.7778 13.9932C16.7046 13.8717 16.666 13.7338 16.666 13.5935C16.6659 13.4532 16.7044 13.3153 16.7776 13.1938C17.7604 11.5482 18.3333 10.1698 18.3333 7.99988C18.3333 5.79645 17.7636 4.42805 16.7797 2.80844C16.6782 2.62582 16.6545 2.41255 16.7136 2.21352C16.7728 2.01449 16.9101 1.84522 17.0968 1.74135C17.2835 1.63748 17.5049 1.60712 17.7145 1.65664C17.924 1.70617 18.1054 1.83172 18.2203 2.00688C19.3188 3.81277 20 5.44686 20 7.99988C20 10.5149 19.3198 12.157 18.2229 13.9929C18.1497 14.1145 18.0443 14.2155 17.9174 14.2857C17.7905 14.3558 17.6465 14.3926 17.5 14.3924Z" fill="#6F2282"/>
</svg>
