<svg width="781" height="781" viewBox="0 0 781 781" fill="none" xmlns="http://www.w3.org/2000/svg">
<path d="M390.126 780.443C174.926 781.243 -2.4739 604.043 0.026104 385.343C2.5261 173.043 177.626 -3.15709 396.526 0.0429116C608.226 3.14291 783.926 178.043 780.526 396.743C777.226 608.043 604.026 781.243 390.026 780.443H390.126ZM390.426 62.3429C209.926 62.3429 62.4261 209.243 62.3261 389.243C62.2261 571.043 207.926 717.643 389.026 718.343C571.126 719.043 717.526 572.843 718.226 391.843C718.926 209.643 571.926 62.4429 390.426 62.3429Z" fill="#1D1D1B"/>
<path d="M692.326 390.643C692.326 557.743 557.226 692.343 389.526 692.343C223.326 692.343 87.6261 556.343 88.2261 389.043C88.9261 223.043 224.526 87.4428 392.126 88.2428C557.726 88.9428 692.326 224.043 692.326 390.643ZM390.226 478.843C397.526 478.843 397.726 478.843 398.226 482.643C403.626 524.643 416.726 564.343 433.126 603.143C439.126 617.343 454.626 624.043 469.126 618.943C483.526 613.843 491.326 598.543 486.726 583.843C485.126 578.643 482.926 573.543 480.826 568.443C467.626 536.443 458.026 503.343 454.426 468.843C451.526 441.543 449.526 414.143 447.726 386.743C446.726 371.843 447.126 356.743 446.626 341.743C446.526 337.943 447.726 336.543 451.526 336.243C458.026 335.743 464.426 334.843 470.826 333.543C506.326 326.343 541.926 319.143 577.326 311.443C588.726 308.943 596.226 297.043 595.326 285.143C594.426 273.443 585.026 262.743 573.326 262.343C565.526 262.043 557.526 264.043 549.826 265.743C508.426 275.043 466.926 284.143 424.526 287.843C387.626 291.043 350.926 289.143 314.526 282.643C282.326 276.843 250.326 269.543 218.226 262.843C212.026 261.543 206.026 261.343 200.126 264.043C190.126 268.643 184.226 278.643 185.026 289.443C185.826 300.043 193.426 309.243 204.226 311.843C244.526 321.643 284.926 330.643 326.126 336.043C334.626 337.143 334.126 335.243 333.726 344.543C331.926 381.643 330.526 418.743 327.726 455.743C325.326 486.543 318.926 516.643 308.226 545.843C303.526 558.643 298.126 571.243 293.826 584.143C289.026 598.543 297.126 613.843 311.226 618.943C325.726 624.243 341.426 617.543 347.426 603.543C363.426 565.743 376.426 526.943 382.026 486.043C383.026 479.043 383.126 479.043 390.126 479.043L390.226 478.843ZM390.326 271.043C421.526 271.043 447.326 245.143 447.426 213.943C447.426 182.543 421.726 156.843 390.026 156.943C358.726 156.943 333.026 182.843 333.226 214.043C333.326 245.243 359.326 271.043 390.326 271.043Z" fill="#1D1D1B"/>
</svg>
