<svg width="800" height="100" viewBox="0 0 800 100" fill="none" xmlns="http://www.w3.org/2000/svg">
<rect width="100" height="100" fill="white"/>
<path d="M100 0H800V100H100V0Z" fill="#BB2323"/>
<path d="M121.25 29.7812H125.674C126.618 29.7812 127.422 29.944 128.086 30.2695C128.75 30.5951 129.255 31.0768 129.6 31.7148C129.951 32.3529 130.127 33.1374 130.127 34.0684C130.127 34.8105 130.02 35.4551 129.805 36.002C129.596 36.5423 129.297 36.9948 128.906 37.3594C128.522 37.724 128.057 38.0072 127.51 38.209L126.719 38.6582H123.057L123.047 36.4805H125.615C126.038 36.4805 126.39 36.3861 126.67 36.1973C126.956 36.0085 127.168 35.748 127.305 35.416C127.448 35.0775 127.52 34.6901 127.52 34.2539C127.52 33.7786 127.454 33.3717 127.324 33.0332C127.201 32.6882 127.002 32.4245 126.729 32.2422C126.462 32.0599 126.11 31.9688 125.674 31.9688H123.867V44H121.25V29.7812ZM127.793 44L125.127 37.6328H127.871L130.586 43.8633V44H127.793ZM141.254 41.8223V44H135.082V41.8223H141.254ZM135.834 29.7812V44H133.217V29.7812H135.834ZM140.424 35.6211V37.7402H135.082V35.6211H140.424ZM141.215 29.7812V31.9688H135.082V29.7812H141.215ZM150.125 40.2988C150.125 40.0189 150.096 39.7715 150.037 39.5566C149.985 39.3353 149.881 39.1335 149.725 38.9512C149.568 38.7689 149.344 38.5898 149.051 38.4141C148.758 38.2318 148.38 38.0462 147.918 37.8574C147.371 37.6361 146.854 37.4017 146.365 37.1543C145.877 36.9004 145.441 36.6074 145.057 36.2754C144.673 35.9434 144.37 35.5527 144.148 35.1035C143.934 34.6543 143.826 34.1302 143.826 33.5312C143.826 32.9453 143.93 32.4115 144.139 31.9297C144.354 31.4414 144.656 31.0247 145.047 30.6797C145.438 30.3281 145.9 30.0579 146.434 29.8691C146.974 29.6803 147.57 29.5859 148.221 29.5859C149.139 29.5859 149.926 29.778 150.584 30.1621C151.242 30.5462 151.749 31.0671 152.107 31.7246C152.465 32.3822 152.645 33.1243 152.645 33.9512H150.037C150.037 33.5215 149.972 33.1406 149.842 32.8086C149.718 32.4701 149.52 32.2064 149.246 32.0176C148.973 31.8288 148.621 31.7344 148.191 31.7344C147.788 31.7344 147.456 31.8158 147.195 31.9785C146.935 32.1348 146.743 32.3496 146.619 32.623C146.495 32.89 146.434 33.196 146.434 33.541C146.434 33.7884 146.489 34.013 146.6 34.2148C146.717 34.4102 146.876 34.5892 147.078 34.752C147.28 34.9147 147.524 35.071 147.811 35.2207C148.104 35.3639 148.429 35.5039 148.787 35.6406C149.445 35.888 150.021 36.1615 150.516 36.4609C151.01 36.7539 151.421 37.0859 151.746 37.457C152.078 37.8216 152.326 38.235 152.488 38.6973C152.651 39.1595 152.732 39.6868 152.732 40.2793C152.732 40.8652 152.632 41.3991 152.43 41.8809C152.228 42.3626 151.935 42.776 151.551 43.1211C151.167 43.4661 150.701 43.7331 150.154 43.9219C149.614 44.1042 149.012 44.1953 148.348 44.1953C147.71 44.1953 147.101 44.1042 146.521 43.9219C145.949 43.7331 145.441 43.4499 144.998 43.0723C144.555 42.6947 144.207 42.2194 143.953 41.6465C143.699 41.0671 143.572 40.3867 143.572 39.6055H146.18C146.18 40.0417 146.229 40.4193 146.326 40.7383C146.424 41.0508 146.57 41.3047 146.766 41.5C146.961 41.6888 147.195 41.8288 147.469 41.9199C147.742 42.0046 148.051 42.0469 148.396 42.0469C148.807 42.0469 149.139 41.972 149.393 41.8223C149.646 41.6725 149.832 41.4674 149.949 41.207C150.066 40.9401 150.125 40.6374 150.125 40.2988ZM160.539 38.8633H157.58V36.6758H160.529C160.985 36.6758 161.35 36.5814 161.623 36.3926C161.903 36.1973 162.105 35.9271 162.229 35.582C162.359 35.237 162.424 34.8464 162.424 34.4102C162.424 33.987 162.359 33.5898 162.229 33.2188C162.105 32.8411 161.903 32.5384 161.623 32.3105C161.35 32.0827 160.988 31.9688 160.539 31.9688H158.371V44H155.764V29.7812H160.539C161.483 29.7812 162.294 29.9798 162.971 30.377C163.648 30.7741 164.165 31.321 164.523 32.0176C164.888 32.7077 165.07 33.4987 165.07 34.3906C165.07 35.3086 164.888 36.1029 164.523 36.7734C164.159 37.4375 163.638 37.9518 162.961 38.3164C162.29 38.681 161.483 38.8633 160.539 38.8633ZM177.887 35.7578V38.1504C177.887 39.153 177.77 40.0319 177.535 40.7871C177.301 41.5423 176.962 42.1738 176.52 42.6816C176.077 43.1829 175.546 43.5605 174.928 43.8145C174.309 44.0684 173.626 44.1953 172.877 44.1953C172.122 44.1953 171.435 44.0684 170.816 43.8145C170.198 43.5605 169.664 43.1829 169.215 42.6816C168.772 42.1738 168.427 41.5423 168.18 40.7871C167.939 40.0319 167.818 39.153 167.818 38.1504V35.7578C167.818 34.7357 167.939 33.8405 168.18 33.0723C168.421 32.304 168.762 31.6628 169.205 31.1484C169.654 30.6341 170.188 30.2467 170.807 29.9863C171.425 29.7194 172.109 29.5859 172.857 29.5859C173.613 29.5859 174.296 29.7194 174.908 29.9863C175.527 30.2467 176.057 30.6341 176.5 31.1484C176.949 31.6628 177.291 32.304 177.525 33.0723C177.766 33.8405 177.887 34.7357 177.887 35.7578ZM175.289 38.1504V35.7383C175.289 35.0417 175.237 34.4427 175.133 33.9414C175.029 33.4401 174.872 33.0332 174.664 32.7207C174.456 32.4017 174.199 32.1673 173.893 32.0176C173.593 31.8678 173.248 31.793 172.857 31.793C172.46 31.793 172.109 31.8678 171.803 32.0176C171.503 32.1673 171.249 32.4017 171.041 32.7207C170.839 33.0332 170.686 33.4401 170.582 33.9414C170.478 34.4427 170.426 35.0417 170.426 35.7383V38.1504C170.426 38.834 170.478 39.4199 170.582 39.9082C170.686 40.3965 170.842 40.7936 171.051 41.0996C171.266 41.4056 171.523 41.6335 171.822 41.7832C172.128 41.9264 172.48 41.998 172.877 41.998C173.268 41.998 173.613 41.9264 173.912 41.7832C174.218 41.6335 174.472 41.4056 174.674 41.0996C174.882 40.7936 175.035 40.3965 175.133 39.9082C175.237 39.4199 175.289 38.834 175.289 38.1504ZM187.207 40.2988C187.207 40.0189 187.178 39.7715 187.119 39.5566C187.067 39.3353 186.963 39.1335 186.807 38.9512C186.65 38.7689 186.426 38.5898 186.133 38.4141C185.84 38.2318 185.462 38.0462 185 37.8574C184.453 37.6361 183.936 37.4017 183.447 37.1543C182.959 36.9004 182.523 36.6074 182.139 36.2754C181.755 35.9434 181.452 35.5527 181.23 35.1035C181.016 34.6543 180.908 34.1302 180.908 33.5312C180.908 32.9453 181.012 32.4115 181.221 31.9297C181.436 31.4414 181.738 31.0247 182.129 30.6797C182.52 30.3281 182.982 30.0579 183.516 29.8691C184.056 29.6803 184.652 29.5859 185.303 29.5859C186.221 29.5859 187.008 29.778 187.666 30.1621C188.324 30.5462 188.831 31.0671 189.189 31.7246C189.548 32.3822 189.727 33.1243 189.727 33.9512H187.119C187.119 33.5215 187.054 33.1406 186.924 32.8086C186.8 32.4701 186.602 32.2064 186.328 32.0176C186.055 31.8288 185.703 31.7344 185.273 31.7344C184.87 31.7344 184.538 31.8158 184.277 31.9785C184.017 32.1348 183.825 32.3496 183.701 32.623C183.577 32.89 183.516 33.196 183.516 33.541C183.516 33.7884 183.571 34.013 183.682 34.2148C183.799 34.4102 183.958 34.5892 184.16 34.752C184.362 34.9147 184.606 35.071 184.893 35.2207C185.186 35.3639 185.511 35.5039 185.869 35.6406C186.527 35.888 187.103 36.1615 187.598 36.4609C188.092 36.7539 188.503 37.0859 188.828 37.457C189.16 37.8216 189.408 38.235 189.57 38.6973C189.733 39.1595 189.814 39.6868 189.814 40.2793C189.814 40.8652 189.714 41.3991 189.512 41.8809C189.31 42.3626 189.017 42.776 188.633 43.1211C188.249 43.4661 187.783 43.7331 187.236 43.9219C186.696 44.1042 186.094 44.1953 185.43 44.1953C184.792 44.1953 184.183 44.1042 183.604 43.9219C183.031 43.7331 182.523 43.4499 182.08 43.0723C181.637 42.6947 181.289 42.2194 181.035 41.6465C180.781 41.0671 180.654 40.3867 180.654 39.6055H183.262C183.262 40.0417 183.311 40.4193 183.408 40.7383C183.506 41.0508 183.652 41.3047 183.848 41.5C184.043 41.6888 184.277 41.8288 184.551 41.9199C184.824 42.0046 185.133 42.0469 185.479 42.0469C185.889 42.0469 186.221 41.972 186.475 41.8223C186.729 41.6725 186.914 41.4674 187.031 41.207C187.148 40.9401 187.207 40.6374 187.207 40.2988ZM198.256 29.7812V44H195.658V29.7812H198.256ZM201.84 29.7812V31.9688H192.133V29.7812H201.84ZM208.543 32.0273L205.291 44H202.537L207.02 29.7812H208.738L208.543 32.0273ZM211.111 44L207.859 32.0273L207.635 29.7812H209.373L213.875 44H211.111ZM211.199 38.707V40.8848H204.676V38.707H211.199ZM224.693 29.7812V44H222.096V29.7812H224.693ZM238.086 29.7812V44H235.537L230.791 34.6348V44H228.291V29.7812H230.801L235.586 39.2344V29.7812H238.086ZM248.432 39.3125H251.039C250.993 40.3607 250.779 41.2493 250.395 41.9785C250.017 42.7012 249.473 43.2513 248.764 43.6289C248.061 44.0065 247.204 44.1953 246.195 44.1953C245.427 44.1953 244.74 44.0618 244.135 43.7949C243.529 43.5215 243.015 43.1276 242.592 42.6133C242.175 42.099 241.856 41.4674 241.635 40.7188C241.42 39.9635 241.312 39.1009 241.312 38.1309V35.6602C241.312 34.6901 241.426 33.8275 241.654 33.0723C241.882 32.3171 242.208 31.679 242.631 31.1582C243.061 30.6374 243.581 30.2435 244.193 29.9766C244.805 29.7096 245.495 29.5762 246.264 29.5762C247.279 29.5762 248.129 29.7682 248.812 30.1523C249.496 30.5365 250.023 31.0996 250.395 31.8418C250.766 32.5775 250.984 33.4759 251.049 34.5371H248.441C248.415 33.847 248.331 33.3001 248.188 32.8965C248.044 32.4863 247.82 32.1934 247.514 32.0176C247.208 31.8418 246.791 31.7539 246.264 31.7539C245.854 31.7539 245.499 31.8288 245.199 31.9785C244.9 32.1283 244.656 32.3626 244.467 32.6816C244.278 32.9941 244.138 33.3945 244.047 33.8828C243.956 34.3711 243.91 34.957 243.91 35.6406V38.1309C243.91 38.7884 243.949 39.3613 244.027 39.8496C244.105 40.3379 244.229 40.7448 244.398 41.0703C244.574 41.3893 244.809 41.6302 245.102 41.793C245.395 41.9492 245.759 42.0273 246.195 42.0273C246.723 42.0273 247.143 41.9492 247.455 41.793C247.768 41.6302 247.999 41.3535 248.148 40.9629C248.305 40.5658 248.399 40.0156 248.432 39.3125ZM263.777 35.7578V38.1504C263.777 39.153 263.66 40.0319 263.426 40.7871C263.191 41.5423 262.853 42.1738 262.41 42.6816C261.967 43.1829 261.437 43.5605 260.818 43.8145C260.2 44.0684 259.516 44.1953 258.768 44.1953C258.012 44.1953 257.326 44.0684 256.707 43.8145C256.089 43.5605 255.555 43.1829 255.105 42.6816C254.663 42.1738 254.318 41.5423 254.07 40.7871C253.829 40.0319 253.709 39.153 253.709 38.1504V35.7578C253.709 34.7357 253.829 33.8405 254.07 33.0723C254.311 32.304 254.653 31.6628 255.096 31.1484C255.545 30.6341 256.079 30.2467 256.697 29.9863C257.316 29.7194 257.999 29.5859 258.748 29.5859C259.503 29.5859 260.187 29.7194 260.799 29.9863C261.417 30.2467 261.948 30.6341 262.391 31.1484C262.84 31.6628 263.182 32.304 263.416 33.0723C263.657 33.8405 263.777 34.7357 263.777 35.7578ZM261.18 38.1504V35.7383C261.18 35.0417 261.128 34.4427 261.023 33.9414C260.919 33.4401 260.763 33.0332 260.555 32.7207C260.346 32.4017 260.089 32.1673 259.783 32.0176C259.484 31.8678 259.139 31.793 258.748 31.793C258.351 31.793 257.999 31.8678 257.693 32.0176C257.394 32.1673 257.14 32.4017 256.932 32.7207C256.73 33.0332 256.577 33.4401 256.473 33.9414C256.368 34.4427 256.316 35.0417 256.316 35.7383V38.1504C256.316 38.834 256.368 39.4199 256.473 39.9082C256.577 40.3965 256.733 40.7936 256.941 41.0996C257.156 41.4056 257.413 41.6335 257.713 41.7832C258.019 41.9264 258.37 41.998 258.768 41.998C259.158 41.998 259.503 41.9264 259.803 41.7832C260.109 41.6335 260.363 41.4056 260.564 41.0996C260.773 40.7936 260.926 40.3965 261.023 39.9082C261.128 39.4199 261.18 38.834 261.18 38.1504ZM267.043 29.7812H271.467C272.411 29.7812 273.215 29.944 273.879 30.2695C274.543 30.5951 275.048 31.0768 275.393 31.7148C275.744 32.3529 275.92 33.1374 275.92 34.0684C275.92 34.8105 275.812 35.4551 275.598 36.002C275.389 36.5423 275.09 36.9948 274.699 37.3594C274.315 37.724 273.85 38.0072 273.303 38.209L272.512 38.6582H268.85L268.84 36.4805H271.408C271.831 36.4805 272.183 36.3861 272.463 36.1973C272.749 36.0085 272.961 35.748 273.098 35.416C273.241 35.0775 273.312 34.6901 273.312 34.2539C273.312 33.7786 273.247 33.3717 273.117 33.0332C272.993 32.6882 272.795 32.4245 272.521 32.2422C272.255 32.0599 271.903 31.9688 271.467 31.9688H269.66V44H267.043V29.7812ZM273.586 44L270.92 37.6328H273.664L276.379 43.8633V44H273.586ZM279.02 29.7812H283.443C284.387 29.7812 285.191 29.944 285.855 30.2695C286.52 30.5951 287.024 31.0768 287.369 31.7148C287.721 32.3529 287.896 33.1374 287.896 34.0684C287.896 34.8105 287.789 35.4551 287.574 36.002C287.366 36.5423 287.066 36.9948 286.676 37.3594C286.292 37.724 285.826 38.0072 285.279 38.209L284.488 38.6582H280.826L280.816 36.4805H283.385C283.808 36.4805 284.16 36.3861 284.439 36.1973C284.726 36.0085 284.938 35.748 285.074 35.416C285.217 35.0775 285.289 34.6901 285.289 34.2539C285.289 33.7786 285.224 33.3717 285.094 33.0332C284.97 32.6882 284.771 32.4245 284.498 32.2422C284.231 32.0599 283.88 31.9688 283.443 31.9688H281.637V44H279.02V29.7812ZM285.562 44L282.896 37.6328H285.641L288.355 43.8633V44H285.562ZM299.023 41.8223V44H292.852V41.8223H299.023ZM293.604 29.7812V44H290.986V29.7812H293.604ZM298.193 35.6211V37.7402H292.852V35.6211H298.193ZM298.984 29.7812V31.9688H292.852V29.7812H298.984ZM307.436 29.7812V44H304.838V29.7812H307.436ZM311.02 29.7812V31.9688H301.312V29.7812H311.02ZM317.723 32.0273L314.471 44H311.717L316.199 29.7812H317.918L317.723 32.0273ZM320.291 44L317.039 32.0273L316.814 29.7812H318.553L323.055 44H320.291ZM320.379 38.707V40.8848H313.855V38.707H320.379ZM342.236 29.7812L337.256 45.2207H335.801L340.791 29.7812H342.236Z" fill="white"/>
<path d="M366.543 29.7812H370.518C371.442 29.7812 372.217 29.944 372.842 30.2695C373.473 30.5951 373.949 31.0768 374.268 31.7148C374.593 32.3464 374.756 33.1243 374.756 34.0488C374.756 34.6999 374.648 35.2956 374.434 35.8359C374.219 36.3698 373.906 36.8255 373.496 37.2031C373.086 37.5742 372.588 37.8509 372.002 38.0332L371.514 38.2383H367.969L367.949 36.7051H370.498C371.045 36.7051 371.501 36.5879 371.865 36.3535C372.23 36.1126 372.503 35.7904 372.686 35.3867C372.868 34.9831 372.959 34.5371 372.959 34.0488C372.959 33.502 372.878 33.0234 372.715 32.6133C372.552 32.2031 372.292 31.8874 371.934 31.666C371.582 31.4382 371.11 31.3242 370.518 31.3242H368.34V44H366.543V29.7812ZM373.369 44L370.537 37.5547L372.402 37.5449L375.293 43.8828V44H373.369ZM381.703 44.1953C381.072 44.1953 380.502 44.1009 379.994 43.9121C379.486 43.7233 379.053 43.4368 378.695 43.0527C378.337 42.6621 378.064 42.1706 377.875 41.5781C377.686 40.9857 377.592 40.2858 377.592 39.4785V38.2871C377.592 37.3561 377.699 36.5684 377.914 35.9238C378.135 35.2793 378.432 34.7617 378.803 34.3711C379.174 33.974 379.594 33.6875 380.062 33.5117C380.531 33.3294 381.013 33.2383 381.508 33.2383C382.172 33.2383 382.738 33.3457 383.207 33.5605C383.676 33.7754 384.057 34.0944 384.35 34.5176C384.643 34.9408 384.857 35.4616 384.994 36.0801C385.137 36.6986 385.209 37.4115 385.209 38.2188V39.2246H378.607V37.75H383.48V37.5059C383.454 36.959 383.38 36.4772 383.256 36.0605C383.139 35.6439 382.943 35.3184 382.67 35.084C382.396 34.8431 382.009 34.7227 381.508 34.7227C381.189 34.7227 380.893 34.778 380.619 34.8887C380.352 34.9928 380.121 35.1784 379.926 35.4453C379.737 35.7057 379.587 36.0671 379.477 36.5293C379.372 36.9915 379.32 37.5775 379.32 38.2871V39.4785C379.32 40.0449 379.372 40.5332 379.477 40.9434C379.587 41.347 379.747 41.6823 379.955 41.9492C380.17 42.2096 380.43 42.4049 380.736 42.5352C381.049 42.6589 381.404 42.7207 381.801 42.7207C382.38 42.7207 382.859 42.61 383.236 42.3887C383.614 42.1608 383.943 41.8711 384.223 41.5195L385.131 42.6035C384.942 42.8704 384.695 43.1276 384.389 43.375C384.089 43.6159 383.718 43.8145 383.275 43.9707C382.839 44.1204 382.315 44.1953 381.703 44.1953ZM390.154 29V44H388.436V29H390.154ZM397.668 44.1953C397.036 44.1953 396.467 44.1009 395.959 43.9121C395.451 43.7233 395.018 43.4368 394.66 43.0527C394.302 42.6621 394.029 42.1706 393.84 41.5781C393.651 40.9857 393.557 40.2858 393.557 39.4785V38.2871C393.557 37.3561 393.664 36.5684 393.879 35.9238C394.1 35.2793 394.396 34.7617 394.768 34.3711C395.139 33.974 395.559 33.6875 396.027 33.5117C396.496 33.3294 396.978 33.2383 397.473 33.2383C398.137 33.2383 398.703 33.3457 399.172 33.5605C399.641 33.7754 400.021 34.0944 400.314 34.5176C400.607 34.9408 400.822 35.4616 400.959 36.0801C401.102 36.6986 401.174 37.4115 401.174 38.2188V39.2246H394.572V37.75H399.445V37.5059C399.419 36.959 399.344 36.4772 399.221 36.0605C399.104 35.6439 398.908 35.3184 398.635 35.084C398.361 34.8431 397.974 34.7227 397.473 34.7227C397.154 34.7227 396.857 34.778 396.584 34.8887C396.317 34.9928 396.086 35.1784 395.891 35.4453C395.702 35.7057 395.552 36.0671 395.441 36.5293C395.337 36.9915 395.285 37.5775 395.285 38.2871V39.4785C395.285 40.0449 395.337 40.5332 395.441 40.9434C395.552 41.347 395.712 41.6823 395.92 41.9492C396.135 42.2096 396.395 42.4049 396.701 42.5352C397.014 42.6589 397.368 42.7207 397.766 42.7207C398.345 42.7207 398.824 42.61 399.201 42.3887C399.579 42.1608 399.908 41.8711 400.188 41.5195L401.096 42.6035C400.907 42.8704 400.66 43.1276 400.354 43.375C400.054 43.6159 399.683 43.8145 399.24 43.9707C398.804 44.1204 398.28 44.1953 397.668 44.1953ZM406.119 33.4336V44H404.4V33.4336H406.119ZM404.303 30.6309C404.303 30.3379 404.384 30.0905 404.547 29.8887C404.71 29.6868 404.954 29.5859 405.279 29.5859C405.605 29.5859 405.849 29.6868 406.012 29.8887C406.181 30.0905 406.266 30.3379 406.266 30.6309C406.266 30.9108 406.181 31.1517 406.012 31.3535C405.849 31.5488 405.605 31.6465 405.279 31.6465C404.954 31.6465 404.71 31.5488 404.547 31.3535C404.384 31.1517 404.303 30.9108 404.303 30.6309ZM415.029 42.1934V36.4609C415.029 36.0443 414.964 35.709 414.834 35.4551C414.71 35.2012 414.521 35.0156 414.268 34.8984C414.02 34.7812 413.708 34.7227 413.33 34.7227C412.965 34.7227 412.65 34.7975 412.383 34.9473C412.122 35.097 411.921 35.2956 411.777 35.543C411.641 35.7904 411.572 36.0638 411.572 36.3633H409.844C409.844 35.9857 409.925 35.6113 410.088 35.2402C410.257 34.8691 410.498 34.5339 410.811 34.2344C411.123 33.9284 411.497 33.6875 411.934 33.5117C412.376 33.3294 412.871 33.2383 413.418 33.2383C414.069 33.2383 414.645 33.3457 415.146 33.5605C415.648 33.7689 416.042 34.1107 416.328 34.5859C416.615 35.0612 416.758 35.6927 416.758 36.4805V41.6953C416.758 42.0469 416.784 42.4212 416.836 42.8184C416.895 43.2155 416.976 43.5573 417.08 43.8438V44H415.293C415.208 43.7917 415.143 43.515 415.098 43.1699C415.052 42.8184 415.029 42.4928 415.029 42.1934ZM415.303 37.5938L415.322 38.8633H414.121C413.711 38.8633 413.337 38.9089 412.998 39C412.666 39.0911 412.38 39.2246 412.139 39.4004C411.898 39.5697 411.712 39.7812 411.582 40.0352C411.458 40.2891 411.396 40.5788 411.396 40.9043C411.396 41.3275 411.455 41.666 411.572 41.9199C411.689 42.1673 411.865 42.3464 412.1 42.457C412.334 42.5677 412.63 42.623 412.988 42.623C413.424 42.623 413.809 42.5221 414.141 42.3203C414.473 42.1185 414.73 41.8743 414.912 41.5879C415.101 41.3014 415.189 41.0345 415.176 40.7871L415.557 41.5977C415.531 41.8516 415.446 42.1283 415.303 42.4277C415.166 42.7207 414.974 43.0039 414.727 43.2773C414.479 43.5443 414.186 43.7656 413.848 43.9414C413.516 44.1107 413.141 44.1953 412.725 44.1953C412.113 44.1953 411.576 44.0781 411.113 43.8438C410.658 43.6094 410.303 43.2643 410.049 42.8086C409.795 42.3529 409.668 41.7897 409.668 41.1191C409.668 40.6113 409.756 40.1426 409.932 39.7129C410.107 39.2832 410.368 38.9121 410.713 38.5996C411.058 38.2806 411.491 38.0332 412.012 37.8574C412.539 37.6816 413.148 37.5938 413.838 37.5938H415.303ZM425.672 39.2246V38.2188C425.672 37.3984 425.776 36.679 425.984 36.0605C426.193 35.4355 426.482 34.9147 426.854 34.498C427.225 34.0814 427.658 33.7689 428.152 33.5605C428.647 33.3457 429.178 33.2383 429.744 33.2383C430.324 33.2383 430.861 33.3457 431.355 33.5605C431.85 33.7689 432.283 34.0814 432.654 34.498C433.032 34.9147 433.325 35.4355 433.533 36.0605C433.742 36.679 433.846 37.3984 433.846 38.2188V39.2246C433.846 40.0449 433.742 40.7676 433.533 41.3926C433.325 42.0111 433.035 42.5286 432.664 42.9453C432.293 43.362 431.86 43.6745 431.365 43.8828C430.87 44.0911 430.337 44.1953 429.764 44.1953C429.191 44.1953 428.657 44.0911 428.162 43.8828C427.667 43.6745 427.231 43.362 426.854 42.9453C426.482 42.5286 426.193 42.0111 425.984 41.3926C425.776 40.7676 425.672 40.0449 425.672 39.2246ZM427.4 38.2188V39.2246C427.4 39.804 427.459 40.3118 427.576 40.748C427.693 41.1842 427.859 41.5488 428.074 41.8418C428.289 42.1348 428.54 42.3561 428.826 42.5059C429.113 42.6491 429.425 42.7207 429.764 42.7207C430.154 42.7207 430.496 42.6491 430.789 42.5059C431.089 42.3561 431.336 42.1348 431.531 41.8418C431.727 41.5488 431.873 41.1842 431.971 40.748C432.068 40.3118 432.117 39.804 432.117 39.2246V38.2188C432.117 37.6393 432.059 37.1348 431.941 36.7051C431.824 36.2689 431.658 35.9043 431.443 35.6113C431.229 35.3118 430.975 35.0905 430.682 34.9473C430.395 34.7975 430.083 34.7227 429.744 34.7227C429.412 34.7227 429.103 34.7975 428.816 34.9473C428.53 35.0905 428.279 35.3118 428.064 35.6113C427.856 35.9043 427.693 36.2689 427.576 36.7051C427.459 37.1348 427.4 37.6393 427.4 38.2188ZM446.52 33.4336V34.8203H441.588V33.4336H446.52ZM443.199 30.8652H444.928V41.3828C444.928 41.7409 444.97 42.0111 445.055 42.1934C445.146 42.3757 445.26 42.4961 445.396 42.5547C445.533 42.6133 445.68 42.6426 445.836 42.6426C445.953 42.6426 446.083 42.6296 446.227 42.6035C446.37 42.571 446.467 42.5449 446.52 42.5254L446.51 44C446.393 44.0456 446.236 44.0879 446.041 44.127C445.846 44.1725 445.598 44.1953 445.299 44.1953C444.928 44.1953 444.583 44.1074 444.264 43.9316C443.945 43.7559 443.688 43.4629 443.492 43.0527C443.297 42.6361 443.199 42.0762 443.199 41.373V30.8652ZM449.023 39.2246V38.2188C449.023 37.3984 449.128 36.679 449.336 36.0605C449.544 35.4355 449.834 34.9147 450.205 34.498C450.576 34.0814 451.009 33.7689 451.504 33.5605C451.999 33.3457 452.529 33.2383 453.096 33.2383C453.675 33.2383 454.212 33.3457 454.707 33.5605C455.202 33.7689 455.635 34.0814 456.006 34.498C456.383 34.9147 456.676 35.4355 456.885 36.0605C457.093 36.679 457.197 37.3984 457.197 38.2188V39.2246C457.197 40.0449 457.093 40.7676 456.885 41.3926C456.676 42.0111 456.387 42.5286 456.016 42.9453C455.645 43.362 455.212 43.6745 454.717 43.8828C454.222 44.0911 453.688 44.1953 453.115 44.1953C452.542 44.1953 452.008 44.0911 451.514 43.8828C451.019 43.6745 450.583 43.362 450.205 42.9453C449.834 42.5286 449.544 42.0111 449.336 41.3926C449.128 40.7676 449.023 40.0449 449.023 39.2246ZM450.752 38.2188V39.2246C450.752 39.804 450.811 40.3118 450.928 40.748C451.045 41.1842 451.211 41.5488 451.426 41.8418C451.641 42.1348 451.891 42.3561 452.178 42.5059C452.464 42.6491 452.777 42.7207 453.115 42.7207C453.506 42.7207 453.848 42.6491 454.141 42.5059C454.44 42.3561 454.688 42.1348 454.883 41.8418C455.078 41.5488 455.225 41.1842 455.322 40.748C455.42 40.3118 455.469 39.804 455.469 39.2246V38.2188C455.469 37.6393 455.41 37.1348 455.293 36.7051C455.176 36.2689 455.01 35.9043 454.795 35.6113C454.58 35.3118 454.326 35.0905 454.033 34.9473C453.747 34.7975 453.434 34.7227 453.096 34.7227C452.764 34.7227 452.454 34.7975 452.168 34.9473C451.882 35.0905 451.631 35.3118 451.416 35.6113C451.208 35.9043 451.045 36.2689 450.928 36.7051C450.811 37.1348 450.752 37.6393 450.752 38.2188ZM452.012 31.8711L453.906 29H456.084L453.467 31.8711H452.012ZM462.152 35.4648V48.0625H460.424V33.4336H461.996L462.152 35.4648ZM468.061 38.2383V39.2246C468.061 40.0579 467.982 40.7871 467.826 41.4121C467.676 42.0306 467.452 42.5482 467.152 42.9648C466.859 43.375 466.498 43.6842 466.068 43.8926C465.639 44.0944 465.147 44.1953 464.594 44.1953C464.04 44.1953 463.559 44.0911 463.148 43.8828C462.745 43.668 462.403 43.3587 462.123 42.9551C461.85 42.5514 461.632 42.0664 461.469 41.5C461.312 40.9271 461.205 40.2858 461.146 39.5762V38.0723C461.205 37.3236 461.312 36.653 461.469 36.0605C461.625 35.4616 461.84 34.9538 462.113 34.5371C462.393 34.1139 462.735 33.7917 463.139 33.5703C463.549 33.349 464.027 33.2383 464.574 33.2383C465.141 33.2383 465.639 33.3359 466.068 33.5312C466.505 33.7266 466.869 34.0293 467.162 34.4395C467.462 34.8431 467.686 35.3607 467.836 35.9922C467.986 36.6172 468.061 37.3659 468.061 38.2383ZM466.332 39.2246V38.2383C466.332 37.6523 466.286 37.1413 466.195 36.7051C466.111 36.2689 465.974 35.9076 465.785 35.6211C465.596 35.3346 465.359 35.1198 465.072 34.9766C464.786 34.8333 464.441 34.7617 464.037 34.7617C463.692 34.7617 463.386 34.8333 463.119 34.9766C462.859 35.1198 462.634 35.3151 462.445 35.5625C462.257 35.8034 462.1 36.0801 461.977 36.3926C461.853 36.6986 461.762 37.0176 461.703 37.3496V40.3086C461.814 40.7253 461.96 41.1191 462.143 41.4902C462.325 41.8548 462.569 42.151 462.875 42.3789C463.188 42.6068 463.581 42.7207 464.057 42.7207C464.454 42.7207 464.796 42.6491 465.082 42.5059C465.368 42.3626 465.603 42.1478 465.785 41.8613C465.974 41.5684 466.111 41.2038 466.195 40.7676C466.286 40.3249 466.332 39.8105 466.332 39.2246ZM473.143 33.4336V44H471.424V33.4336H473.143ZM471.326 30.6309C471.326 30.3379 471.408 30.0905 471.57 29.8887C471.733 29.6868 471.977 29.5859 472.303 29.5859C472.628 29.5859 472.872 29.6868 473.035 29.8887C473.204 30.0905 473.289 30.3379 473.289 30.6309C473.289 30.9108 473.204 31.1517 473.035 31.3535C472.872 31.5488 472.628 31.6465 472.303 31.6465C471.977 31.6465 471.733 31.5488 471.57 31.3535C471.408 31.1517 471.326 30.9108 471.326 30.6309ZM480.539 42.7207C480.884 42.7207 481.197 42.6523 481.477 42.5156C481.763 42.3724 481.997 42.151 482.18 41.8516C482.362 41.5456 482.466 41.1484 482.492 40.6602H484.113C484.087 41.3633 483.908 41.9818 483.576 42.5156C483.251 43.043 482.821 43.4564 482.287 43.7559C481.76 44.0488 481.177 44.1953 480.539 44.1953C479.855 44.1953 479.26 44.0846 478.752 43.8633C478.251 43.6419 477.834 43.3229 477.502 42.9062C477.176 42.4831 476.932 41.972 476.77 41.373C476.607 40.7676 476.525 40.0807 476.525 39.3125V38.1211C476.525 37.3529 476.607 36.6693 476.77 36.0703C476.932 35.4648 477.176 34.9538 477.502 34.5371C477.834 34.1139 478.251 33.7917 478.752 33.5703C479.26 33.349 479.855 33.2383 480.539 33.2383C481.255 33.2383 481.874 33.3913 482.395 33.6973C482.922 33.9967 483.332 34.4329 483.625 35.0059C483.924 35.5723 484.087 36.2591 484.113 37.0664H482.492C482.466 36.5456 482.372 36.1126 482.209 35.7676C482.046 35.416 481.825 35.1556 481.545 34.9863C481.265 34.8105 480.93 34.7227 480.539 34.7227C480.083 34.7227 479.706 34.804 479.406 34.9668C479.113 35.123 478.882 35.3509 478.713 35.6504C478.544 35.9499 478.423 36.3079 478.352 36.7246C478.286 37.1413 478.254 37.6068 478.254 38.1211V39.3125C478.254 39.8268 478.286 40.2956 478.352 40.7188C478.423 41.1354 478.54 41.4935 478.703 41.793C478.872 42.0924 479.107 42.3236 479.406 42.4863C479.706 42.6426 480.083 42.7207 480.539 42.7207ZM486.754 39.2246V38.2188C486.754 37.3984 486.858 36.679 487.066 36.0605C487.275 35.4355 487.564 34.9147 487.936 34.498C488.307 34.0814 488.74 33.7689 489.234 33.5605C489.729 33.3457 490.26 33.2383 490.826 33.2383C491.406 33.2383 491.943 33.3457 492.438 33.5605C492.932 33.7689 493.365 34.0814 493.736 34.498C494.114 34.9147 494.407 35.4355 494.615 36.0605C494.824 36.679 494.928 37.3984 494.928 38.2188V39.2246C494.928 40.0449 494.824 40.7676 494.615 41.3926C494.407 42.0111 494.117 42.5286 493.746 42.9453C493.375 43.362 492.942 43.6745 492.447 43.8828C491.952 44.0911 491.419 44.1953 490.846 44.1953C490.273 44.1953 489.739 44.0911 489.244 43.8828C488.749 43.6745 488.313 43.362 487.936 42.9453C487.564 42.5286 487.275 42.0111 487.066 41.3926C486.858 40.7676 486.754 40.0449 486.754 39.2246ZM488.482 38.2188V39.2246C488.482 39.804 488.541 40.3118 488.658 40.748C488.775 41.1842 488.941 41.5488 489.156 41.8418C489.371 42.1348 489.622 42.3561 489.908 42.5059C490.195 42.6491 490.507 42.7207 490.846 42.7207C491.236 42.7207 491.578 42.6491 491.871 42.5059C492.171 42.3561 492.418 42.1348 492.613 41.8418C492.809 41.5488 492.955 41.1842 493.053 40.748C493.15 40.3118 493.199 39.804 493.199 39.2246V38.2188C493.199 37.6393 493.141 37.1348 493.023 36.7051C492.906 36.2689 492.74 35.9043 492.525 35.6113C492.311 35.3118 492.057 35.0905 491.764 34.9473C491.477 34.7975 491.165 34.7227 490.826 34.7227C490.494 34.7227 490.185 34.7975 489.898 34.9473C489.612 35.0905 489.361 35.3118 489.146 35.6113C488.938 35.9043 488.775 36.2689 488.658 36.7051C488.541 37.1348 488.482 37.6393 488.482 38.2188ZM508.461 38.8633H505.502V36.6758H508.451C508.907 36.6758 509.271 36.5814 509.545 36.3926C509.825 36.1973 510.027 35.9271 510.15 35.582C510.281 35.237 510.346 34.8464 510.346 34.4102C510.346 33.987 510.281 33.5898 510.15 33.2188C510.027 32.8411 509.825 32.5384 509.545 32.3105C509.271 32.0827 508.91 31.9688 508.461 31.9688H506.293V44H503.686V29.7812H508.461C509.405 29.7812 510.215 29.9798 510.893 30.377C511.57 30.7741 512.087 31.321 512.445 32.0176C512.81 32.7077 512.992 33.4987 512.992 34.3906C512.992 35.3086 512.81 36.1029 512.445 36.7734C512.081 37.4375 511.56 37.9518 510.883 38.3164C510.212 38.681 509.405 38.8633 508.461 38.8633ZM518.338 35.6309V44H515.838V33.4336H518.211L518.338 35.6309ZM520.857 33.3555L520.838 35.8457C520.708 35.8197 520.561 35.8001 520.398 35.7871C520.242 35.7741 520.096 35.7676 519.959 35.7676C519.653 35.7676 519.389 35.8197 519.168 35.9238C518.947 36.028 518.761 36.1777 518.611 36.373C518.462 36.5684 518.348 36.8092 518.27 37.0957C518.191 37.3757 518.143 37.6947 518.123 38.0527L517.615 37.9648C517.615 37.2878 517.667 36.6628 517.771 36.0898C517.882 35.5169 518.042 35.0189 518.25 34.5957C518.465 34.166 518.729 33.834 519.041 33.5996C519.354 33.3587 519.712 33.2383 520.115 33.2383C520.239 33.2383 520.372 33.2513 520.516 33.2773C520.665 33.2969 520.779 33.3229 520.857 33.3555ZM522.697 39.1074V38.3359C522.697 37.5091 522.798 36.7799 523 36.1484C523.202 35.5104 523.488 34.9766 523.859 34.5469C524.23 34.1172 524.673 33.7917 525.188 33.5703C525.708 33.349 526.285 33.2383 526.916 33.2383C527.561 33.2383 528.14 33.349 528.654 33.5703C529.175 33.7917 529.621 34.1172 529.992 34.5469C530.37 34.9766 530.656 35.5104 530.852 36.1484C531.053 36.7799 531.154 37.5091 531.154 38.3359V39.1074C531.154 39.9342 531.053 40.6634 530.852 41.2949C530.656 41.9264 530.37 42.4603 529.992 42.8965C529.621 43.3262 529.175 43.6517 528.654 43.873C528.14 44.0879 527.567 44.1953 526.936 44.1953C526.304 44.1953 525.728 44.0879 525.207 43.873C524.693 43.6517 524.247 43.3262 523.869 42.8965C523.492 42.4603 523.202 41.9264 523 41.2949C522.798 40.6634 522.697 39.9342 522.697 39.1074ZM525.207 38.3359V39.1074C525.207 39.6217 525.246 40.0677 525.324 40.4453C525.402 40.8164 525.516 41.1257 525.666 41.373C525.822 41.6204 526.005 41.806 526.213 41.9297C526.428 42.0469 526.669 42.1055 526.936 42.1055C527.222 42.1055 527.473 42.0469 527.688 41.9297C527.902 41.806 528.081 41.6204 528.225 41.373C528.368 41.1257 528.475 40.8164 528.547 40.4453C528.618 40.0677 528.654 39.6217 528.654 39.1074V38.3359C528.654 37.8346 528.612 37.3952 528.527 37.0176C528.449 36.64 528.335 36.3275 528.186 36.0801C528.036 35.8327 527.854 35.6471 527.639 35.5234C527.424 35.3932 527.183 35.3281 526.916 35.3281C526.656 35.3281 526.421 35.3932 526.213 35.5234C526.005 35.6471 525.822 35.8327 525.666 36.0801C525.516 36.3275 525.402 36.64 525.324 37.0176C525.246 37.3952 525.207 37.8346 525.207 38.3359ZM534.117 33.4336H536.637V44.7422C536.637 45.5039 536.52 46.1452 536.285 46.666C536.051 47.1934 535.715 47.5905 535.279 47.8574C534.843 48.1309 534.306 48.2676 533.668 48.2676C533.466 48.2676 533.264 48.2546 533.062 48.2285C532.867 48.2025 532.669 48.1602 532.467 48.1016L532.477 46.0508C532.607 46.0768 532.734 46.0964 532.857 46.1094C532.975 46.1289 533.089 46.1387 533.199 46.1387C533.401 46.1387 533.567 46.0898 533.697 45.9922C533.834 45.8945 533.938 45.7415 534.01 45.5332C534.081 45.3314 534.117 45.0677 534.117 44.7422V33.4336ZM533.941 30.6895C533.941 30.2923 534.065 29.9635 534.312 29.7031C534.56 29.4427 534.892 29.3125 535.309 29.3125C535.738 29.3125 536.077 29.4427 536.324 29.7031C536.572 29.957 536.695 30.2826 536.695 30.6797C536.695 31.0703 536.572 31.3958 536.324 31.6562C536.077 31.9102 535.738 32.0371 535.309 32.0371C534.892 32.0371 534.56 31.9102 534.312 31.6562C534.065 31.3958 533.941 31.0736 533.941 30.6895ZM543.955 44.1953C543.252 44.1953 542.627 44.0879 542.08 43.873C541.54 43.6582 541.081 43.3457 540.703 42.9355C540.326 42.5254 540.036 42.0208 539.834 41.4219C539.639 40.8229 539.541 40.1361 539.541 39.3613V38.4141C539.541 37.5352 539.642 36.7734 539.844 36.1289C540.046 35.4779 540.326 34.9408 540.684 34.5176C541.048 34.0879 541.484 33.7689 541.992 33.5605C542.507 33.3457 543.073 33.2383 543.691 33.2383C544.355 33.2383 544.935 33.349 545.43 33.5703C545.931 33.7852 546.344 34.1074 546.67 34.5371C546.995 34.9668 547.236 35.5007 547.393 36.1387C547.555 36.7702 547.637 37.5026 547.637 38.3359V39.5371H540.664V37.7109H545.176V37.4668C545.163 37.0111 545.107 36.6237 545.01 36.3047C544.912 35.9857 544.756 35.7448 544.541 35.582C544.333 35.4128 544.046 35.3281 543.682 35.3281C543.395 35.3281 543.148 35.3867 542.939 35.5039C542.731 35.6146 542.562 35.7904 542.432 36.0312C542.308 36.2656 542.214 36.5814 542.148 36.9785C542.083 37.3691 542.051 37.8477 542.051 38.4141V39.3613C542.051 39.8626 542.096 40.2891 542.188 40.6406C542.279 40.9857 542.412 41.2689 542.588 41.4902C542.764 41.7051 542.979 41.8613 543.232 41.959C543.486 42.0566 543.783 42.1055 544.121 42.1055C544.629 42.1055 545.075 42.0143 545.459 41.832C545.843 41.6432 546.175 41.3926 546.455 41.0801L547.5 42.6133C547.311 42.8672 547.054 43.1178 546.729 43.3652C546.403 43.6061 546.009 43.8047 545.547 43.9609C545.091 44.1172 544.561 44.1953 543.955 44.1953ZM554.779 33.4336V35.3379H549.496V33.4336H554.779ZM550.824 30.8359H553.314V40.9141C553.314 41.2266 553.347 41.4642 553.412 41.627C553.477 41.7897 553.572 41.9004 553.695 41.959C553.826 42.0176 553.982 42.0469 554.164 42.0469C554.301 42.0469 554.431 42.0371 554.555 42.0176C554.678 41.998 554.77 41.9785 554.828 41.959L554.818 43.9512C554.63 44.0228 554.421 44.0814 554.193 44.127C553.965 44.1725 553.692 44.1953 553.373 44.1953C552.865 44.1953 552.419 44.0944 552.035 43.8926C551.658 43.6908 551.361 43.3652 551.146 42.916C550.932 42.4668 550.824 41.8743 550.824 41.1387V30.8359ZM556.834 39.1074V38.3359C556.834 37.5091 556.935 36.7799 557.137 36.1484C557.339 35.5104 557.625 34.9766 557.996 34.5469C558.367 34.1172 558.81 33.7917 559.324 33.5703C559.845 33.349 560.421 33.2383 561.053 33.2383C561.697 33.2383 562.277 33.349 562.791 33.5703C563.312 33.7917 563.758 34.1172 564.129 34.5469C564.507 34.9766 564.793 35.5104 564.988 36.1484C565.19 36.7799 565.291 37.5091 565.291 38.3359V39.1074C565.291 39.9342 565.19 40.6634 564.988 41.2949C564.793 41.9264 564.507 42.4603 564.129 42.8965C563.758 43.3262 563.312 43.6517 562.791 43.873C562.277 44.0879 561.704 44.1953 561.072 44.1953C560.441 44.1953 559.865 44.0879 559.344 43.873C558.829 43.6517 558.383 43.3262 558.006 42.8965C557.628 42.4603 557.339 41.9264 557.137 41.2949C556.935 40.6634 556.834 39.9342 556.834 39.1074ZM559.344 38.3359V39.1074C559.344 39.6217 559.383 40.0677 559.461 40.4453C559.539 40.8164 559.653 41.1257 559.803 41.373C559.959 41.6204 560.141 41.806 560.35 41.9297C560.564 42.0469 560.805 42.1055 561.072 42.1055C561.359 42.1055 561.609 42.0469 561.824 41.9297C562.039 41.806 562.218 41.6204 562.361 41.373C562.505 41.1257 562.612 40.8164 562.684 40.4453C562.755 40.0677 562.791 39.6217 562.791 39.1074V38.3359C562.791 37.8346 562.749 37.3952 562.664 37.0176C562.586 36.64 562.472 36.3275 562.322 36.0801C562.173 35.8327 561.99 35.6471 561.775 35.5234C561.561 35.3932 561.32 35.3281 561.053 35.3281C560.792 35.3281 560.558 35.3932 560.35 35.5234C560.141 35.6471 559.959 35.8327 559.803 36.0801C559.653 36.3275 559.539 36.64 559.461 37.0176C559.383 37.3952 559.344 37.8346 559.344 38.3359ZM572.932 41.1777C572.932 40.9759 572.867 40.7969 572.736 40.6406C572.613 40.4844 572.414 40.3249 572.141 40.1621C571.867 39.9993 571.506 39.8236 571.057 39.6348C570.568 39.4395 570.135 39.2409 569.758 39.0391C569.387 38.8307 569.071 38.6029 568.811 38.3555C568.55 38.1016 568.355 37.8151 568.225 37.4961C568.094 37.1706 568.029 36.7962 568.029 36.373C568.029 35.9368 568.111 35.5299 568.273 35.1523C568.436 34.7747 568.671 34.4427 568.977 34.1562C569.289 33.8698 569.667 33.6452 570.109 33.4824C570.552 33.3197 571.05 33.2383 571.604 33.2383C572.378 33.2383 573.042 33.3783 573.596 33.6582C574.156 33.9316 574.582 34.3158 574.875 34.8105C575.174 35.3053 575.324 35.875 575.324 36.5195H572.824C572.824 36.2721 572.782 36.0475 572.697 35.8457C572.613 35.6439 572.479 35.4844 572.297 35.3672C572.115 35.2435 571.88 35.1816 571.594 35.1816C571.353 35.1816 571.145 35.2305 570.969 35.3281C570.799 35.4258 570.669 35.556 570.578 35.7188C570.487 35.875 570.441 36.054 570.441 36.2559C570.441 36.4121 570.471 36.5488 570.529 36.666C570.594 36.7832 570.695 36.8971 570.832 37.0078C570.969 37.112 571.151 37.2227 571.379 37.3398C571.613 37.4505 571.903 37.5807 572.248 37.7305C572.951 37.9974 573.534 38.2806 573.996 38.5801C574.458 38.873 574.803 39.2181 575.031 39.6152C575.259 40.0059 575.373 40.4941 575.373 41.0801C575.373 41.5423 575.285 41.9655 575.109 42.3496C574.934 42.7337 574.68 43.0658 574.348 43.3457C574.022 43.6191 573.628 43.8307 573.166 43.9805C572.704 44.1237 572.186 44.1953 571.613 44.1953C570.773 44.1953 570.064 44.0293 569.484 43.6973C568.911 43.3652 568.475 42.9355 568.176 42.4082C567.883 41.8809 567.736 41.3307 567.736 40.7578H570.139C570.152 41.1354 570.227 41.4349 570.363 41.6562C570.507 41.8711 570.692 42.0208 570.92 42.1055C571.148 42.1901 571.392 42.2324 571.652 42.2324C571.939 42.2324 572.176 42.1934 572.365 42.1152C572.554 42.0306 572.694 41.9102 572.785 41.7539C572.883 41.5911 572.932 41.3991 572.932 41.1777ZM589.072 41.7344V29H591.572V44L589.307 44.0098L589.072 41.7344ZM583.486 39.1172V38.3555C583.486 37.4896 583.561 36.7376 583.711 36.0996C583.867 35.4551 584.092 34.9212 584.385 34.498C584.684 34.0749 585.049 33.7591 585.479 33.5508C585.908 33.3424 586.396 33.2383 586.943 33.2383C587.458 33.2383 587.907 33.362 588.291 33.6094C588.675 33.8503 588.997 34.1921 589.258 34.6348C589.525 35.0775 589.74 35.6048 589.902 36.2168C590.065 36.8223 590.179 37.4896 590.244 38.2188V39.3125C590.166 40.0091 590.046 40.6569 589.883 41.2559C589.727 41.8548 589.515 42.3724 589.248 42.8086C588.981 43.2448 588.656 43.5866 588.271 43.834C587.894 44.0749 587.448 44.1953 586.934 44.1953C586.387 44.1953 585.898 44.0879 585.469 43.873C585.046 43.6517 584.684 43.3294 584.385 42.9062C584.092 42.4766 583.867 41.946 583.711 41.3145C583.561 40.6764 583.486 39.944 583.486 39.1172ZM585.996 38.3555V39.1172C585.996 39.6315 586.025 40.0775 586.084 40.4551C586.143 40.8262 586.234 41.1322 586.357 41.373C586.488 41.6074 586.657 41.7832 586.865 41.9004C587.08 42.0111 587.34 42.0664 587.646 42.0664C588.037 42.0664 588.353 41.9688 588.594 41.7734C588.841 41.5781 589.03 41.3112 589.16 40.9727C589.29 40.6276 589.375 40.237 589.414 39.8008V37.7402C589.395 37.3887 589.342 37.0664 589.258 36.7734C589.173 36.4805 589.059 36.2298 588.916 36.0215C588.773 35.8066 588.597 35.6406 588.389 35.5234C588.18 35.4062 587.936 35.3477 587.656 35.3477C587.35 35.3477 587.09 35.4095 586.875 35.5332C586.667 35.6504 586.497 35.8294 586.367 36.0703C586.243 36.3112 586.149 36.6237 586.084 37.0078C586.025 37.3854 585.996 37.8346 585.996 38.3555ZM598.92 44.1953C598.217 44.1953 597.592 44.0879 597.045 43.873C596.505 43.6582 596.046 43.3457 595.668 42.9355C595.29 42.5254 595.001 42.0208 594.799 41.4219C594.604 40.8229 594.506 40.1361 594.506 39.3613V38.4141C594.506 37.5352 594.607 36.7734 594.809 36.1289C595.01 35.4779 595.29 34.9408 595.648 34.5176C596.013 34.0879 596.449 33.7689 596.957 33.5605C597.471 33.3457 598.038 33.2383 598.656 33.2383C599.32 33.2383 599.9 33.349 600.395 33.5703C600.896 33.7852 601.309 34.1074 601.635 34.5371C601.96 34.9668 602.201 35.5007 602.357 36.1387C602.52 36.7702 602.602 37.5026 602.602 38.3359V39.5371H595.629V37.7109H600.141V37.4668C600.128 37.0111 600.072 36.6237 599.975 36.3047C599.877 35.9857 599.721 35.7448 599.506 35.582C599.298 35.4128 599.011 35.3281 598.646 35.3281C598.36 35.3281 598.113 35.3867 597.904 35.5039C597.696 35.6146 597.527 35.7904 597.396 36.0312C597.273 36.2656 597.178 36.5814 597.113 36.9785C597.048 37.3691 597.016 37.8477 597.016 38.4141V39.3613C597.016 39.8626 597.061 40.2891 597.152 40.6406C597.243 40.9857 597.377 41.2689 597.553 41.4902C597.729 41.7051 597.943 41.8613 598.197 41.959C598.451 42.0566 598.747 42.1055 599.086 42.1055C599.594 42.1055 600.04 42.0143 600.424 41.832C600.808 41.6432 601.14 41.3926 601.42 41.0801L602.465 42.6133C602.276 42.8672 602.019 43.1178 601.693 43.3652C601.368 43.6061 600.974 43.8047 600.512 43.9609C600.056 44.1172 599.525 44.1953 598.92 44.1953ZM619.113 41.8223V44H612.941V41.8223H619.113ZM613.693 29.7812V44H611.076V29.7812H613.693ZM618.283 35.6211V37.7402H612.941V35.6211H618.283ZM619.074 29.7812V31.9688H612.941V29.7812H619.074ZM623.854 33.4336L625.27 36.3828L626.549 33.4336H629.244L626.5 38.6094L629.342 44H626.637L625.172 40.9434L623.766 44H621.041L623.795 38.6387L621.139 33.4336H623.854ZM634.248 35.4648V48.0625H631.748V33.4336H634.053L634.248 35.4648ZM639.834 38.3262V39.0977C639.834 39.9245 639.759 40.6536 639.609 41.2852C639.466 41.9167 639.251 42.4505 638.965 42.8867C638.678 43.3229 638.324 43.6517 637.9 43.873C637.477 44.0879 636.982 44.1953 636.416 44.1953C635.882 44.1953 635.423 44.0749 635.039 43.834C634.655 43.5931 634.329 43.2546 634.062 42.8184C633.796 42.3822 633.584 41.8711 633.428 41.2852C633.271 40.6992 633.154 40.0645 633.076 39.3809V38.1895C633.148 37.4603 633.258 36.793 633.408 36.1875C633.564 35.582 633.776 35.0579 634.043 34.6152C634.31 34.1725 634.635 33.834 635.02 33.5996C635.41 33.3587 635.869 33.2383 636.396 33.2383C636.969 33.2383 637.471 33.3424 637.9 33.5508C638.33 33.7526 638.688 34.0618 638.975 34.4785C639.261 34.8952 639.476 35.4258 639.619 36.0703C639.762 36.7083 639.834 37.4603 639.834 38.3262ZM637.324 39.0977V38.3262C637.324 37.8053 637.292 37.3561 637.227 36.9785C637.168 36.6009 637.07 36.2917 636.934 36.0508C636.803 35.8099 636.631 35.6341 636.416 35.5234C636.208 35.4062 635.954 35.3477 635.654 35.3477C635.368 35.3477 635.117 35.4062 634.902 35.5234C634.688 35.6341 634.512 35.7936 634.375 36.002C634.238 36.2103 634.128 36.4609 634.043 36.7539C633.965 37.0404 633.919 37.3594 633.906 37.7109V39.8691C633.939 40.2858 634.014 40.6634 634.131 41.002C634.255 41.3405 634.44 41.6107 634.688 41.8125C634.935 42.0078 635.264 42.1055 635.674 42.1055C635.98 42.1055 636.237 42.0436 636.445 41.9199C636.654 41.7962 636.823 41.6107 636.953 41.3633C637.09 41.1159 637.184 40.8034 637.236 40.4258C637.295 40.0482 637.324 39.6055 637.324 39.0977ZM642.318 39.1074V38.3359C642.318 37.5091 642.419 36.7799 642.621 36.1484C642.823 35.5104 643.109 34.9766 643.48 34.5469C643.852 34.1172 644.294 33.7917 644.809 33.5703C645.329 33.349 645.906 33.2383 646.537 33.2383C647.182 33.2383 647.761 33.349 648.275 33.5703C648.796 33.7917 649.242 34.1172 649.613 34.5469C649.991 34.9766 650.277 35.5104 650.473 36.1484C650.674 36.7799 650.775 37.5091 650.775 38.3359V39.1074C650.775 39.9342 650.674 40.6634 650.473 41.2949C650.277 41.9264 649.991 42.4603 649.613 42.8965C649.242 43.3262 648.796 43.6517 648.275 43.873C647.761 44.0879 647.188 44.1953 646.557 44.1953C645.925 44.1953 645.349 44.0879 644.828 43.873C644.314 43.6517 643.868 43.3262 643.49 42.8965C643.113 42.4603 642.823 41.9264 642.621 41.2949C642.419 40.6634 642.318 39.9342 642.318 39.1074ZM644.828 38.3359V39.1074C644.828 39.6217 644.867 40.0677 644.945 40.4453C645.023 40.8164 645.137 41.1257 645.287 41.373C645.443 41.6204 645.626 41.806 645.834 41.9297C646.049 42.0469 646.29 42.1055 646.557 42.1055C646.843 42.1055 647.094 42.0469 647.309 41.9297C647.523 41.806 647.702 41.6204 647.846 41.373C647.989 41.1257 648.096 40.8164 648.168 40.4453C648.24 40.0677 648.275 39.6217 648.275 39.1074V38.3359C648.275 37.8346 648.233 37.3952 648.148 37.0176C648.07 36.64 647.956 36.3275 647.807 36.0801C647.657 35.8327 647.475 35.6471 647.26 35.5234C647.045 35.3932 646.804 35.3281 646.537 35.3281C646.277 35.3281 646.042 35.3932 645.834 35.5234C645.626 35.6471 645.443 35.8327 645.287 36.0801C645.137 36.3275 645.023 36.64 644.945 37.0176C644.867 37.3952 644.828 37.8346 644.828 38.3359ZM658.416 41.1777C658.416 40.9759 658.351 40.7969 658.221 40.6406C658.097 40.4844 657.898 40.3249 657.625 40.1621C657.352 39.9993 656.99 39.8236 656.541 39.6348C656.053 39.4395 655.62 39.2409 655.242 39.0391C654.871 38.8307 654.555 38.6029 654.295 38.3555C654.035 38.1016 653.839 37.8151 653.709 37.4961C653.579 37.1706 653.514 36.7962 653.514 36.373C653.514 35.9368 653.595 35.5299 653.758 35.1523C653.921 34.7747 654.155 34.4427 654.461 34.1562C654.773 33.8698 655.151 33.6452 655.594 33.4824C656.036 33.3197 656.535 33.2383 657.088 33.2383C657.863 33.2383 658.527 33.3783 659.08 33.6582C659.64 33.9316 660.066 34.3158 660.359 34.8105C660.659 35.3053 660.809 35.875 660.809 36.5195H658.309C658.309 36.2721 658.266 36.0475 658.182 35.8457C658.097 35.6439 657.964 35.4844 657.781 35.3672C657.599 35.2435 657.365 35.1816 657.078 35.1816C656.837 35.1816 656.629 35.2305 656.453 35.3281C656.284 35.4258 656.154 35.556 656.062 35.7188C655.971 35.875 655.926 36.054 655.926 36.2559C655.926 36.4121 655.955 36.5488 656.014 36.666C656.079 36.7832 656.18 36.8971 656.316 37.0078C656.453 37.112 656.635 37.2227 656.863 37.3398C657.098 37.4505 657.387 37.5807 657.732 37.7305C658.436 37.9974 659.018 38.2806 659.48 38.5801C659.943 38.873 660.288 39.2181 660.516 39.6152C660.743 40.0059 660.857 40.4941 660.857 41.0801C660.857 41.5423 660.77 41.9655 660.594 42.3496C660.418 42.7337 660.164 43.0658 659.832 43.3457C659.507 43.6191 659.113 43.8307 658.65 43.9805C658.188 44.1237 657.671 44.1953 657.098 44.1953C656.258 44.1953 655.548 44.0293 654.969 43.6973C654.396 43.3652 653.96 42.9355 653.66 42.4082C653.367 41.8809 653.221 41.3307 653.221 40.7578H655.623C655.636 41.1354 655.711 41.4349 655.848 41.6562C655.991 41.8711 656.176 42.0208 656.404 42.1055C656.632 42.1901 656.876 42.2324 657.137 42.2324C657.423 42.2324 657.661 42.1934 657.85 42.1152C658.038 42.0306 658.178 41.9102 658.27 41.7539C658.367 41.5911 658.416 41.3991 658.416 41.1777ZM666.369 33.4336V44H663.859V33.4336H666.369ZM663.732 30.6895C663.732 30.2923 663.856 29.9635 664.104 29.7031C664.351 29.4427 664.689 29.3125 665.119 29.3125C665.549 29.3125 665.884 29.4427 666.125 29.7031C666.366 29.957 666.486 30.2826 666.486 30.6797C666.486 31.0703 666.366 31.3958 666.125 31.6562C665.884 31.9102 665.549 32.0371 665.119 32.0371C664.689 32.0371 664.351 31.9102 664.104 31.6562C663.856 31.3958 663.732 31.0736 663.732 30.6895ZM673.453 42.1055C673.727 42.1055 673.967 42.0501 674.176 41.9395C674.384 41.8223 674.547 41.64 674.664 41.3926C674.781 41.1452 674.843 40.8229 674.85 40.4258H677.213C677.206 41.194 677.034 41.8613 676.695 42.4277C676.363 42.9941 675.917 43.4303 675.357 43.7363C674.804 44.0423 674.182 44.1953 673.492 44.1953C672.789 44.1953 672.174 44.0846 671.646 43.8633C671.126 43.6354 670.696 43.3066 670.357 42.877C670.019 42.4408 669.765 41.9102 669.596 41.2852C669.426 40.6602 669.342 39.9473 669.342 39.1465V38.2871C669.342 37.4863 669.426 36.7734 669.596 36.1484C669.765 35.5234 670.019 34.9961 670.357 34.5664C670.696 34.1302 671.126 33.8014 671.646 33.5801C672.167 33.3522 672.779 33.2383 673.482 33.2383C674.231 33.2383 674.882 33.3945 675.436 33.707C675.989 34.0195 676.422 34.4785 676.734 35.084C677.047 35.6829 677.206 36.4219 677.213 37.3008H674.85C674.843 36.8711 674.788 36.513 674.684 36.2266C674.579 35.9336 674.423 35.7122 674.215 35.5625C674.013 35.4062 673.756 35.3281 673.443 35.3281C673.105 35.3281 672.828 35.3965 672.613 35.5332C672.405 35.6634 672.245 35.8555 672.135 36.1094C672.024 36.3633 671.946 36.6725 671.9 37.0371C671.861 37.4017 671.842 37.8184 671.842 38.2871V39.1465C671.842 39.6283 671.861 40.0547 671.9 40.4258C671.939 40.7904 672.014 41.0996 672.125 41.3535C672.236 41.6009 672.395 41.7897 672.604 41.9199C672.818 42.0436 673.102 42.1055 673.453 42.1055ZM672.408 43.9902H674.254L674.166 44.5469C674.465 44.612 674.736 44.7682 674.977 45.0156C675.224 45.2695 675.348 45.6764 675.348 46.2363C675.348 46.5749 675.289 46.8809 675.172 47.1543C675.055 47.4342 674.872 47.6719 674.625 47.8672C674.384 48.069 674.085 48.2253 673.727 48.3359C673.375 48.4466 672.962 48.502 672.486 48.502L672.428 47.0078C672.61 47.0078 672.763 46.9785 672.887 46.9199C673.01 46.8678 673.105 46.7799 673.17 46.6562C673.242 46.5326 673.277 46.373 673.277 46.1777C673.277 45.9824 673.238 45.8327 673.16 45.7285C673.089 45.6243 672.968 45.543 672.799 45.4844C672.636 45.4323 672.415 45.3965 672.135 45.377L672.408 43.9902ZM684.668 41.7148V36.6367C684.668 36.2917 684.622 36.0182 684.531 35.8164C684.447 35.6146 684.32 35.4681 684.15 35.377C683.981 35.2793 683.773 35.2305 683.525 35.2305C683.258 35.2305 683.034 35.2858 682.852 35.3965C682.669 35.5007 682.533 35.6536 682.441 35.8555C682.357 36.0508 682.314 36.2819 682.314 36.5488H679.805C679.805 36.1061 679.893 35.6862 680.068 35.2891C680.244 34.8919 680.498 34.5404 680.83 34.2344C681.162 33.9219 681.562 33.6777 682.031 33.502C682.5 33.3262 683.024 33.2383 683.604 33.2383C684.294 33.2383 684.906 33.3555 685.439 33.5898C685.98 33.8177 686.403 34.1855 686.709 34.6934C687.021 35.1947 687.178 35.8522 687.178 36.666V41.4902C687.178 42.0306 687.207 42.4896 687.266 42.8672C687.331 43.2448 687.425 43.5671 687.549 43.834V44H685.01C684.899 43.7266 684.814 43.3815 684.756 42.9648C684.697 42.5417 684.668 42.125 684.668 41.7148ZM684.99 37.5547L685 39.1172H683.945C683.652 39.1172 683.392 39.1595 683.164 39.2441C682.943 39.3288 682.754 39.4492 682.598 39.6055C682.441 39.7617 682.324 39.9473 682.246 40.1621C682.168 40.377 682.129 40.6113 682.129 40.8652C682.129 41.1582 682.171 41.4023 682.256 41.5977C682.34 41.7865 682.464 41.9297 682.627 42.0273C682.79 42.1185 682.988 42.1641 683.223 42.1641C683.555 42.1641 683.841 42.0924 684.082 41.9492C684.329 41.806 684.515 41.6367 684.639 41.4414C684.769 41.2396 684.818 41.0508 684.785 40.875L685.352 41.8906C685.286 42.1315 685.186 42.3854 685.049 42.6523C684.912 42.9193 684.736 43.1699 684.521 43.4043C684.313 43.6387 684.056 43.8307 683.75 43.9805C683.451 44.1237 683.096 44.1953 682.686 44.1953C682.106 44.1953 681.582 44.0684 681.113 43.8145C680.651 43.5605 680.286 43.2025 680.02 42.7402C679.753 42.2715 679.619 41.7116 679.619 41.0605C679.619 40.5267 679.707 40.0449 679.883 39.6152C680.059 39.1855 680.316 38.8177 680.654 38.5117C680.999 38.2057 681.436 37.9714 681.963 37.8086C682.49 37.6393 683.109 37.5547 683.818 37.5547H684.99ZM685.215 29.0684L686.67 29.1758C686.67 29.651 686.585 30.084 686.416 30.4746C686.253 30.8587 686.025 31.1647 685.732 31.3926C685.446 31.6139 685.117 31.7246 684.746 31.7246C684.492 31.7246 684.271 31.6823 684.082 31.5977C683.893 31.5065 683.721 31.4056 683.564 31.2949C683.415 31.1842 683.258 31.0866 683.096 31.002C682.933 30.9108 682.744 30.8652 682.529 30.8652C682.34 30.8652 682.181 30.9531 682.051 31.1289C681.927 31.2982 681.865 31.5326 681.865 31.832L680.42 31.7344C680.42 31.2656 680.501 30.8392 680.664 30.4551C680.827 30.0645 681.051 29.7552 681.338 29.5273C681.631 29.293 681.956 29.1758 682.314 29.1758C682.529 29.1758 682.728 29.2181 682.91 29.3027C683.092 29.3874 683.268 29.4883 683.438 29.6055C683.607 29.7161 683.783 29.8171 683.965 29.9082C684.147 29.9928 684.339 30.0352 684.541 30.0352C684.73 30.0352 684.889 29.9505 685.02 29.7812C685.15 29.6055 685.215 29.3678 685.215 29.0684ZM690.033 39.1074V38.3359C690.033 37.5091 690.134 36.7799 690.336 36.1484C690.538 35.5104 690.824 34.9766 691.195 34.5469C691.566 34.1172 692.009 33.7917 692.523 33.5703C693.044 33.349 693.62 33.2383 694.252 33.2383C694.896 33.2383 695.476 33.349 695.99 33.5703C696.511 33.7917 696.957 34.1172 697.328 34.5469C697.706 34.9766 697.992 35.5104 698.188 36.1484C698.389 36.7799 698.49 37.5091 698.49 38.3359V39.1074C698.49 39.9342 698.389 40.6634 698.188 41.2949C697.992 41.9264 697.706 42.4603 697.328 42.8965C696.957 43.3262 696.511 43.6517 695.99 43.873C695.476 44.0879 694.903 44.1953 694.271 44.1953C693.64 44.1953 693.064 44.0879 692.543 43.873C692.029 43.6517 691.583 43.3262 691.205 42.8965C690.827 42.4603 690.538 41.9264 690.336 41.2949C690.134 40.6634 690.033 39.9342 690.033 39.1074ZM692.543 38.3359V39.1074C692.543 39.6217 692.582 40.0677 692.66 40.4453C692.738 40.8164 692.852 41.1257 693.002 41.373C693.158 41.6204 693.34 41.806 693.549 41.9297C693.764 42.0469 694.005 42.1055 694.271 42.1055C694.558 42.1055 694.809 42.0469 695.023 41.9297C695.238 41.806 695.417 41.6204 695.561 41.373C695.704 41.1257 695.811 40.8164 695.883 40.4453C695.954 40.0677 695.99 39.6217 695.99 39.1074V38.3359C695.99 37.8346 695.948 37.3952 695.863 37.0176C695.785 36.64 695.671 36.3275 695.521 36.0801C695.372 35.8327 695.189 35.6471 694.975 35.5234C694.76 35.3932 694.519 35.3281 694.252 35.3281C693.992 35.3281 693.757 35.3932 693.549 35.5234C693.34 35.6471 693.158 35.8327 693.002 36.0801C692.852 36.3275 692.738 36.64 692.66 37.0176C692.582 37.3952 692.543 37.8346 692.543 38.3359ZM712.17 41.7344V29H714.67V44L712.404 44.0098L712.17 41.7344ZM706.584 39.1172V38.3555C706.584 37.4896 706.659 36.7376 706.809 36.0996C706.965 35.4551 707.189 34.9212 707.482 34.498C707.782 34.0749 708.146 33.7591 708.576 33.5508C709.006 33.3424 709.494 33.2383 710.041 33.2383C710.555 33.2383 711.005 33.362 711.389 33.6094C711.773 33.8503 712.095 34.1921 712.355 34.6348C712.622 35.0775 712.837 35.6048 713 36.2168C713.163 36.8223 713.277 37.4896 713.342 38.2188V39.3125C713.264 40.0091 713.143 40.6569 712.98 41.2559C712.824 41.8548 712.613 42.3724 712.346 42.8086C712.079 43.2448 711.753 43.5866 711.369 43.834C710.992 44.0749 710.546 44.1953 710.031 44.1953C709.484 44.1953 708.996 44.0879 708.566 43.873C708.143 43.6517 707.782 43.3294 707.482 42.9062C707.189 42.4766 706.965 41.946 706.809 41.3145C706.659 40.6764 706.584 39.944 706.584 39.1172ZM709.094 38.3555V39.1172C709.094 39.6315 709.123 40.0775 709.182 40.4551C709.24 40.8262 709.331 41.1322 709.455 41.373C709.585 41.6074 709.755 41.7832 709.963 41.9004C710.178 42.0111 710.438 42.0664 710.744 42.0664C711.135 42.0664 711.451 41.9688 711.691 41.7734C711.939 41.5781 712.128 41.3112 712.258 40.9727C712.388 40.6276 712.473 40.237 712.512 39.8008V37.7402C712.492 37.3887 712.44 37.0664 712.355 36.7734C712.271 36.4805 712.157 36.2298 712.014 36.0215C711.87 35.8066 711.695 35.6406 711.486 35.5234C711.278 35.4062 711.034 35.3477 710.754 35.3477C710.448 35.3477 710.188 35.4095 709.973 35.5332C709.764 35.6504 709.595 35.8294 709.465 36.0703C709.341 36.3112 709.247 36.6237 709.182 37.0078C709.123 37.3854 709.094 37.8346 709.094 38.3555ZM722.018 44.1953C721.314 44.1953 720.689 44.0879 720.143 43.873C719.602 43.6582 719.143 43.3457 718.766 42.9355C718.388 42.5254 718.098 42.0208 717.896 41.4219C717.701 40.8229 717.604 40.1361 717.604 39.3613V38.4141C717.604 37.5352 717.704 36.7734 717.906 36.1289C718.108 35.4779 718.388 34.9408 718.746 34.5176C719.111 34.0879 719.547 33.7689 720.055 33.5605C720.569 33.3457 721.135 33.2383 721.754 33.2383C722.418 33.2383 722.997 33.349 723.492 33.5703C723.993 33.7852 724.407 34.1074 724.732 34.5371C725.058 34.9668 725.299 35.5007 725.455 36.1387C725.618 36.7702 725.699 37.5026 725.699 38.3359V39.5371H718.727V37.7109H723.238V37.4668C723.225 37.0111 723.17 36.6237 723.072 36.3047C722.975 35.9857 722.818 35.7448 722.604 35.582C722.395 35.4128 722.109 35.3281 721.744 35.3281C721.458 35.3281 721.21 35.3867 721.002 35.5039C720.794 35.6146 720.624 35.7904 720.494 36.0312C720.37 36.2656 720.276 36.5814 720.211 36.9785C720.146 37.3691 720.113 37.8477 720.113 38.4141V39.3613C720.113 39.8626 720.159 40.2891 720.25 40.6406C720.341 40.9857 720.475 41.2689 720.65 41.4902C720.826 41.7051 721.041 41.8613 721.295 41.959C721.549 42.0566 721.845 42.1055 722.184 42.1055C722.691 42.1055 723.137 42.0143 723.521 41.832C723.906 41.6432 724.238 41.3926 724.518 41.0801L725.562 42.6133C725.374 42.8672 725.117 43.1178 724.791 43.3652C724.465 43.6061 724.072 43.8047 723.609 43.9609C723.154 44.1172 722.623 44.1953 722.018 44.1953ZM371.016 66.8633H368.057V64.6758H371.006C371.462 64.6758 371.826 64.5814 372.1 64.3926C372.38 64.1973 372.581 63.9271 372.705 63.582C372.835 63.237 372.9 62.8464 372.9 62.4102C372.9 61.987 372.835 61.5898 372.705 61.2188C372.581 60.8411 372.38 60.5384 372.1 60.3105C371.826 60.0827 371.465 59.9688 371.016 59.9688H368.848V72H366.24V57.7812H371.016C371.96 57.7812 372.77 57.9798 373.447 58.377C374.124 58.7741 374.642 59.321 375 60.0176C375.365 60.7077 375.547 61.4987 375.547 62.3906C375.547 63.3086 375.365 64.1029 375 64.7734C374.635 65.4375 374.115 65.9518 373.438 66.3164C372.767 66.681 371.96 66.8633 371.016 66.8633ZM380.893 63.6309V72H378.393V61.4336H380.766L380.893 63.6309ZM383.412 61.3555L383.393 63.8457C383.262 63.8197 383.116 63.8001 382.953 63.7871C382.797 63.7741 382.65 63.7676 382.514 63.7676C382.208 63.7676 381.944 63.8197 381.723 63.9238C381.501 64.028 381.316 64.1777 381.166 64.373C381.016 64.5684 380.902 64.8092 380.824 65.0957C380.746 65.3757 380.697 65.6947 380.678 66.0527L380.17 65.9648C380.17 65.2878 380.222 64.6628 380.326 64.0898C380.437 63.5169 380.596 63.0189 380.805 62.5957C381.02 62.166 381.283 61.834 381.596 61.5996C381.908 61.3587 382.266 61.2383 382.67 61.2383C382.794 61.2383 382.927 61.2513 383.07 61.2773C383.22 61.2969 383.334 61.3229 383.412 61.3555ZM385.252 67.1074V66.3359C385.252 65.5091 385.353 64.7799 385.555 64.1484C385.757 63.5104 386.043 62.9766 386.414 62.5469C386.785 62.1172 387.228 61.7917 387.742 61.5703C388.263 61.349 388.839 61.2383 389.471 61.2383C390.115 61.2383 390.695 61.349 391.209 61.5703C391.73 61.7917 392.176 62.1172 392.547 62.5469C392.924 62.9766 393.211 63.5104 393.406 64.1484C393.608 64.7799 393.709 65.5091 393.709 66.3359V67.1074C393.709 67.9342 393.608 68.6634 393.406 69.2949C393.211 69.9264 392.924 70.4603 392.547 70.8965C392.176 71.3262 391.73 71.6517 391.209 71.873C390.695 72.0879 390.122 72.1953 389.49 72.1953C388.859 72.1953 388.283 72.0879 387.762 71.873C387.247 71.6517 386.801 71.3262 386.424 70.8965C386.046 70.4603 385.757 69.9264 385.555 69.2949C385.353 68.6634 385.252 67.9342 385.252 67.1074ZM387.762 66.3359V67.1074C387.762 67.6217 387.801 68.0677 387.879 68.4453C387.957 68.8164 388.071 69.1257 388.221 69.373C388.377 69.6204 388.559 69.806 388.768 69.9297C388.982 70.0469 389.223 70.1055 389.49 70.1055C389.777 70.1055 390.027 70.0469 390.242 69.9297C390.457 69.806 390.636 69.6204 390.779 69.373C390.923 69.1257 391.03 68.8164 391.102 68.4453C391.173 68.0677 391.209 67.6217 391.209 67.1074V66.3359C391.209 65.8346 391.167 65.3952 391.082 65.0176C391.004 64.64 390.89 64.3275 390.74 64.0801C390.59 63.8327 390.408 63.6471 390.193 63.5234C389.979 63.3932 389.738 63.3281 389.471 63.3281C389.21 63.3281 388.976 63.3932 388.768 63.5234C388.559 63.6471 388.377 63.8327 388.221 64.0801C388.071 64.3275 387.957 64.64 387.879 65.0176C387.801 65.3952 387.762 65.8346 387.762 66.3359ZM401.779 69.7344V57H404.279V72L402.014 72.0098L401.779 69.7344ZM396.193 67.1172V66.3555C396.193 65.4896 396.268 64.7376 396.418 64.0996C396.574 63.4551 396.799 62.9212 397.092 62.498C397.391 62.0749 397.756 61.7591 398.186 61.5508C398.615 61.3424 399.104 61.2383 399.65 61.2383C400.165 61.2383 400.614 61.362 400.998 61.6094C401.382 61.8503 401.704 62.1921 401.965 62.6348C402.232 63.0775 402.447 63.6048 402.609 64.2168C402.772 64.8223 402.886 65.4896 402.951 66.2188V67.3125C402.873 68.0091 402.753 68.6569 402.59 69.2559C402.434 69.8548 402.222 70.3724 401.955 70.8086C401.688 71.2448 401.363 71.5866 400.979 71.834C400.601 72.0749 400.155 72.1953 399.641 72.1953C399.094 72.1953 398.605 72.0879 398.176 71.873C397.753 71.6517 397.391 71.3294 397.092 70.9062C396.799 70.4766 396.574 69.946 396.418 69.3145C396.268 68.6764 396.193 67.944 396.193 67.1172ZM398.703 66.3555V67.1172C398.703 67.6315 398.732 68.0775 398.791 68.4551C398.85 68.8262 398.941 69.1322 399.064 69.373C399.195 69.6074 399.364 69.7832 399.572 69.9004C399.787 70.0111 400.048 70.0664 400.354 70.0664C400.744 70.0664 401.06 69.9688 401.301 69.7734C401.548 69.5781 401.737 69.3112 401.867 68.9727C401.997 68.6276 402.082 68.237 402.121 67.8008V65.7402C402.102 65.3887 402.049 65.0664 401.965 64.7734C401.88 64.4805 401.766 64.2298 401.623 64.0215C401.48 63.8066 401.304 63.6406 401.096 63.5234C400.887 63.4062 400.643 63.3477 400.363 63.3477C400.057 63.3477 399.797 63.4095 399.582 63.5332C399.374 63.6504 399.204 63.8294 399.074 64.0703C398.951 64.3112 398.856 64.6237 398.791 65.0078C398.732 65.3854 398.703 65.8346 398.703 66.3555ZM412.643 69.4805V61.4336H415.152V72H412.799L412.643 69.4805ZM412.965 67.293L413.697 67.2734C413.697 67.9766 413.632 68.6309 413.502 69.2363C413.372 69.8353 413.17 70.3561 412.896 70.7988C412.623 71.2415 412.275 71.5866 411.852 71.834C411.435 72.0749 410.94 72.1953 410.367 72.1953C409.931 72.1953 409.534 72.1237 409.176 71.9805C408.818 71.8307 408.508 71.5996 408.248 71.2871C407.988 70.9681 407.786 70.5612 407.643 70.0664C407.499 69.5651 407.428 68.9629 407.428 68.2598V61.4336H409.938V68.2891C409.938 68.6146 409.967 68.8945 410.025 69.1289C410.084 69.3568 410.162 69.5423 410.26 69.6855C410.364 69.8223 410.484 69.9199 410.621 69.9785C410.758 70.0371 410.908 70.0664 411.07 70.0664C411.546 70.0664 411.92 69.946 412.193 69.7051C412.473 69.4642 412.672 69.1354 412.789 68.7188C412.906 68.2956 412.965 67.8203 412.965 67.293ZM422.725 61.4336V63.3379H417.441V61.4336H422.725ZM418.77 58.8359H421.26V68.9141C421.26 69.2266 421.292 69.4642 421.357 69.627C421.423 69.7897 421.517 69.9004 421.641 69.959C421.771 70.0176 421.927 70.0469 422.109 70.0469C422.246 70.0469 422.376 70.0371 422.5 70.0176C422.624 69.998 422.715 69.9785 422.773 69.959L422.764 71.9512C422.575 72.0228 422.367 72.0814 422.139 72.127C421.911 72.1725 421.637 72.1953 421.318 72.1953C420.811 72.1953 420.365 72.0944 419.98 71.8926C419.603 71.6908 419.307 71.3652 419.092 70.916C418.877 70.4668 418.77 69.8743 418.77 69.1387V58.8359ZM424.779 67.1074V66.3359C424.779 65.5091 424.88 64.7799 425.082 64.1484C425.284 63.5104 425.57 62.9766 425.941 62.5469C426.312 62.1172 426.755 61.7917 427.27 61.5703C427.79 61.349 428.367 61.2383 428.998 61.2383C429.643 61.2383 430.222 61.349 430.736 61.5703C431.257 61.7917 431.703 62.1172 432.074 62.5469C432.452 62.9766 432.738 63.5104 432.934 64.1484C433.135 64.7799 433.236 65.5091 433.236 66.3359V67.1074C433.236 67.9342 433.135 68.6634 432.934 69.2949C432.738 69.9264 432.452 70.4603 432.074 70.8965C431.703 71.3262 431.257 71.6517 430.736 71.873C430.222 72.0879 429.649 72.1953 429.018 72.1953C428.386 72.1953 427.81 72.0879 427.289 71.873C426.775 71.6517 426.329 71.3262 425.951 70.8965C425.574 70.4603 425.284 69.9264 425.082 69.2949C424.88 68.6634 424.779 67.9342 424.779 67.1074ZM427.289 66.3359V67.1074C427.289 67.6217 427.328 68.0677 427.406 68.4453C427.484 68.8164 427.598 69.1257 427.748 69.373C427.904 69.6204 428.087 69.806 428.295 69.9297C428.51 70.0469 428.751 70.1055 429.018 70.1055C429.304 70.1055 429.555 70.0469 429.77 69.9297C429.984 69.806 430.163 69.6204 430.307 69.373C430.45 69.1257 430.557 68.8164 430.629 68.4453C430.701 68.0677 430.736 67.6217 430.736 67.1074V66.3359C430.736 65.8346 430.694 65.3952 430.609 65.0176C430.531 64.64 430.417 64.3275 430.268 64.0801C430.118 63.8327 429.936 63.6471 429.721 63.5234C429.506 63.3932 429.265 63.3281 428.998 63.3281C428.738 63.3281 428.503 63.3932 428.295 63.5234C428.087 63.6471 427.904 63.8327 427.748 64.0801C427.598 64.3275 427.484 64.64 427.406 65.0176C427.328 65.3952 427.289 65.8346 427.289 66.3359ZM445.676 72.1953C445.044 72.1953 444.475 72.1009 443.967 71.9121C443.459 71.7233 443.026 71.4368 442.668 71.0527C442.31 70.6621 442.036 70.1706 441.848 69.5781C441.659 68.9857 441.564 68.2858 441.564 67.4785V66.2871C441.564 65.3561 441.672 64.5684 441.887 63.9238C442.108 63.2793 442.404 62.7617 442.775 62.3711C443.146 61.974 443.566 61.6875 444.035 61.5117C444.504 61.3294 444.986 61.2383 445.48 61.2383C446.145 61.2383 446.711 61.3457 447.18 61.5605C447.648 61.7754 448.029 62.0944 448.322 62.5176C448.615 62.9408 448.83 63.4616 448.967 64.0801C449.11 64.6986 449.182 65.4115 449.182 66.2188V67.2246H442.58V65.75H447.453V65.5059C447.427 64.959 447.352 64.4772 447.229 64.0605C447.111 63.6439 446.916 63.3184 446.643 63.084C446.369 62.8431 445.982 62.7227 445.48 62.7227C445.161 62.7227 444.865 62.778 444.592 62.8887C444.325 62.9928 444.094 63.1784 443.898 63.4453C443.71 63.7057 443.56 64.0671 443.449 64.5293C443.345 64.9915 443.293 65.5775 443.293 66.2871V67.4785C443.293 68.0449 443.345 68.5332 443.449 68.9434C443.56 69.347 443.719 69.6823 443.928 69.9492C444.143 70.2096 444.403 70.4049 444.709 70.5352C445.021 70.6589 445.376 70.7207 445.773 70.7207C446.353 70.7207 446.831 70.61 447.209 70.3887C447.587 70.1608 447.915 69.8711 448.195 69.5195L449.104 70.6035C448.915 70.8704 448.667 71.1276 448.361 71.375C448.062 71.6159 447.691 71.8145 447.248 71.9707C446.812 72.1204 446.288 72.1953 445.676 72.1953ZM461.719 61.4336V62.8203H456.787V61.4336H461.719ZM458.398 58.8652H460.127V69.3828C460.127 69.7409 460.169 70.0111 460.254 70.1934C460.345 70.3757 460.459 70.4961 460.596 70.5547C460.732 70.6133 460.879 70.6426 461.035 70.6426C461.152 70.6426 461.283 70.6296 461.426 70.6035C461.569 70.571 461.667 70.5449 461.719 70.5254L461.709 72C461.592 72.0456 461.436 72.0879 461.24 72.127C461.045 72.1725 460.798 72.1953 460.498 72.1953C460.127 72.1953 459.782 72.1074 459.463 71.9316C459.144 71.7559 458.887 71.4629 458.691 71.0527C458.496 70.6361 458.398 70.0762 458.398 69.373V58.8652ZM468.559 72.1953C467.927 72.1953 467.357 72.1009 466.85 71.9121C466.342 71.7233 465.909 71.4368 465.551 71.0527C465.193 70.6621 464.919 70.1706 464.73 69.5781C464.542 68.9857 464.447 68.2858 464.447 67.4785V66.2871C464.447 65.3561 464.555 64.5684 464.77 63.9238C464.991 63.2793 465.287 62.7617 465.658 62.3711C466.029 61.974 466.449 61.6875 466.918 61.5117C467.387 61.3294 467.868 61.2383 468.363 61.2383C469.027 61.2383 469.594 61.3457 470.062 61.5605C470.531 61.7754 470.912 62.0944 471.205 62.5176C471.498 62.9408 471.713 63.4616 471.85 64.0801C471.993 64.6986 472.064 65.4115 472.064 66.2188V67.2246H465.463V65.75H470.336V65.5059C470.31 64.959 470.235 64.4772 470.111 64.0605C469.994 63.6439 469.799 63.3184 469.525 63.084C469.252 62.8431 468.865 62.7227 468.363 62.7227C468.044 62.7227 467.748 62.778 467.475 62.8887C467.208 62.9928 466.977 63.1784 466.781 63.4453C466.592 63.7057 466.443 64.0671 466.332 64.5293C466.228 64.9915 466.176 65.5775 466.176 66.2871V67.4785C466.176 68.0449 466.228 68.5332 466.332 68.9434C466.443 69.347 466.602 69.6823 466.811 69.9492C467.025 70.2096 467.286 70.4049 467.592 70.5352C467.904 70.6589 468.259 70.7207 468.656 70.7207C469.236 70.7207 469.714 70.61 470.092 70.3887C470.469 70.1608 470.798 69.8711 471.078 69.5195L471.986 70.6035C471.798 70.8704 471.55 71.1276 471.244 71.375C470.945 71.6159 470.574 71.8145 470.131 71.9707C469.695 72.1204 469.171 72.1953 468.559 72.1953ZM476.883 63.6895V72H475.154V61.4336H476.785L476.883 63.6895ZM476.463 66.3164L475.76 66.2871C475.753 65.5645 475.835 64.8971 476.004 64.2852C476.18 63.6667 476.427 63.1296 476.746 62.6738C477.072 62.2181 477.459 61.8665 477.908 61.6191C478.357 61.3652 478.855 61.2383 479.402 61.2383C479.832 61.2383 480.223 61.3099 480.574 61.4531C480.926 61.5898 481.225 61.8112 481.473 62.1172C481.72 62.4232 481.909 62.8203 482.039 63.3086C482.176 63.7904 482.244 64.3796 482.244 65.0762V72H480.516V65.0566C480.516 64.5033 480.454 64.0605 480.33 63.7285C480.213 63.39 480.031 63.1458 479.783 62.9961C479.542 62.8398 479.236 62.7617 478.865 62.7617C478.527 62.7617 478.211 62.8561 477.918 63.0449C477.625 63.2337 477.368 63.4941 477.146 63.8262C476.932 64.1582 476.762 64.5391 476.639 64.9688C476.521 65.3919 476.463 65.8411 476.463 66.3164ZM489.699 61.4336V62.8203H484.768V61.4336H489.699ZM486.379 58.8652H488.107V69.3828C488.107 69.7409 488.15 70.0111 488.234 70.1934C488.326 70.3757 488.439 70.4961 488.576 70.5547C488.713 70.6133 488.859 70.6426 489.016 70.6426C489.133 70.6426 489.263 70.6296 489.406 70.6035C489.549 70.571 489.647 70.5449 489.699 70.5254L489.689 72C489.572 72.0456 489.416 72.0879 489.221 72.127C489.025 72.1725 488.778 72.1953 488.479 72.1953C488.107 72.1953 487.762 72.1074 487.443 71.9316C487.124 71.7559 486.867 71.4629 486.672 71.0527C486.477 70.6361 486.379 70.0762 486.379 69.373V58.8652ZM496.539 72.1953C495.908 72.1953 495.338 72.1009 494.83 71.9121C494.322 71.7233 493.889 71.4368 493.531 71.0527C493.173 70.6621 492.9 70.1706 492.711 69.5781C492.522 68.9857 492.428 68.2858 492.428 67.4785V66.2871C492.428 65.3561 492.535 64.5684 492.75 63.9238C492.971 63.2793 493.268 62.7617 493.639 62.3711C494.01 61.974 494.43 61.6875 494.898 61.5117C495.367 61.3294 495.849 61.2383 496.344 61.2383C497.008 61.2383 497.574 61.3457 498.043 61.5605C498.512 61.7754 498.893 62.0944 499.186 62.5176C499.479 62.9408 499.693 63.4616 499.83 64.0801C499.973 64.6986 500.045 65.4115 500.045 66.2188V67.2246H493.443V65.75H498.316V65.5059C498.29 64.959 498.215 64.4772 498.092 64.0605C497.975 63.6439 497.779 63.3184 497.506 63.084C497.232 62.8431 496.845 62.7227 496.344 62.7227C496.025 62.7227 495.729 62.778 495.455 62.8887C495.188 62.9928 494.957 63.1784 494.762 63.4453C494.573 63.7057 494.423 64.0671 494.312 64.5293C494.208 64.9915 494.156 65.5775 494.156 66.2871V67.4785C494.156 68.0449 494.208 68.5332 494.312 68.9434C494.423 69.347 494.583 69.6823 494.791 69.9492C495.006 70.2096 495.266 70.4049 495.572 70.5352C495.885 70.6589 496.24 70.7207 496.637 70.7207C497.216 70.7207 497.695 70.61 498.072 70.3887C498.45 70.1608 498.779 69.8711 499.059 69.5195L499.967 70.6035C499.778 70.8704 499.531 71.1276 499.225 71.375C498.925 71.6159 498.554 71.8145 498.111 71.9707C497.675 72.1204 497.151 72.1953 496.539 72.1953ZM510.453 63.6895V72H508.725V61.4336H510.355L510.453 63.6895ZM510.033 66.3164L509.33 66.2871C509.324 65.5645 509.405 64.8971 509.574 64.2852C509.75 63.6667 509.997 63.1296 510.316 62.6738C510.642 62.2181 511.029 61.8665 511.479 61.6191C511.928 61.3652 512.426 61.2383 512.973 61.2383C513.402 61.2383 513.793 61.3099 514.145 61.4531C514.496 61.5898 514.796 61.8112 515.043 62.1172C515.29 62.4232 515.479 62.8203 515.609 63.3086C515.746 63.7904 515.814 64.3796 515.814 65.0762V72H514.086V65.0566C514.086 64.5033 514.024 64.0605 513.9 63.7285C513.783 63.39 513.601 63.1458 513.354 62.9961C513.113 62.8398 512.807 62.7617 512.436 62.7617C512.097 62.7617 511.781 62.8561 511.488 63.0449C511.195 63.2337 510.938 63.4941 510.717 63.8262C510.502 64.1582 510.333 64.5391 510.209 64.9688C510.092 65.3919 510.033 65.8411 510.033 66.3164ZM519.051 67.2246V66.2188C519.051 65.3984 519.155 64.679 519.363 64.0605C519.572 63.4355 519.861 62.9147 520.232 62.498C520.604 62.0814 521.036 61.7689 521.531 61.5605C522.026 61.3457 522.557 61.2383 523.123 61.2383C523.702 61.2383 524.24 61.3457 524.734 61.5605C525.229 61.7689 525.662 62.0814 526.033 62.498C526.411 62.9147 526.704 63.4355 526.912 64.0605C527.12 64.679 527.225 65.3984 527.225 66.2188V67.2246C527.225 68.0449 527.12 68.7676 526.912 69.3926C526.704 70.0111 526.414 70.5286 526.043 70.9453C525.672 71.362 525.239 71.6745 524.744 71.8828C524.249 72.0911 523.715 72.1953 523.143 72.1953C522.57 72.1953 522.036 72.0911 521.541 71.8828C521.046 71.6745 520.61 71.362 520.232 70.9453C519.861 70.5286 519.572 70.0111 519.363 69.3926C519.155 68.7676 519.051 68.0449 519.051 67.2246ZM520.779 66.2188V67.2246C520.779 67.804 520.838 68.3118 520.955 68.748C521.072 69.1842 521.238 69.5488 521.453 69.8418C521.668 70.1348 521.919 70.3561 522.205 70.5059C522.492 70.6491 522.804 70.7207 523.143 70.7207C523.533 70.7207 523.875 70.6491 524.168 70.5059C524.467 70.3561 524.715 70.1348 524.91 69.8418C525.105 69.5488 525.252 69.1842 525.35 68.748C525.447 68.3118 525.496 67.804 525.496 67.2246V66.2188C525.496 65.6393 525.438 65.1348 525.32 64.7051C525.203 64.2689 525.037 63.9043 524.822 63.6113C524.607 63.3118 524.354 63.0905 524.061 62.9473C523.774 62.7975 523.462 62.7227 523.123 62.7227C522.791 62.7227 522.482 62.7975 522.195 62.9473C521.909 63.0905 521.658 63.3118 521.443 63.6113C521.235 63.9043 521.072 64.2689 520.955 64.7051C520.838 65.1348 520.779 65.6393 520.779 66.2188ZM533.029 70.3691L535.295 61.4336H537.053L533.918 72H532.775L533.029 70.3691ZM531.203 61.4336L533.566 70.418L533.752 72H532.619L529.445 61.4336H531.203ZM544.869 70.1934V64.4609C544.869 64.0443 544.804 63.709 544.674 63.4551C544.55 63.2012 544.361 63.0156 544.107 62.8984C543.86 62.7812 543.548 62.7227 543.17 62.7227C542.805 62.7227 542.49 62.7975 542.223 62.9473C541.962 63.097 541.76 63.2956 541.617 63.543C541.48 63.7904 541.412 64.0638 541.412 64.3633H539.684C539.684 63.9857 539.765 63.6113 539.928 63.2402C540.097 62.8691 540.338 62.5339 540.65 62.2344C540.963 61.9284 541.337 61.6875 541.773 61.5117C542.216 61.3294 542.711 61.2383 543.258 61.2383C543.909 61.2383 544.485 61.3457 544.986 61.5605C545.488 61.7689 545.882 62.1107 546.168 62.5859C546.454 63.0612 546.598 63.6927 546.598 64.4805V69.6953C546.598 70.0469 546.624 70.4212 546.676 70.8184C546.734 71.2155 546.816 71.5573 546.92 71.8438V72H545.133C545.048 71.7917 544.983 71.515 544.938 71.1699C544.892 70.8184 544.869 70.4928 544.869 70.1934ZM545.143 65.5938L545.162 66.8633H543.961C543.551 66.8633 543.176 66.9089 542.838 67C542.506 67.0911 542.219 67.2246 541.979 67.4004C541.738 67.5697 541.552 67.7812 541.422 68.0352C541.298 68.2891 541.236 68.5788 541.236 68.9043C541.236 69.3275 541.295 69.666 541.412 69.9199C541.529 70.1673 541.705 70.3464 541.939 70.457C542.174 70.5677 542.47 70.623 542.828 70.623C543.264 70.623 543.648 70.5221 543.98 70.3203C544.312 70.1185 544.57 69.8743 544.752 69.5879C544.941 69.3014 545.029 69.0345 545.016 68.7871L545.396 69.5977C545.37 69.8516 545.286 70.1283 545.143 70.4277C545.006 70.7207 544.814 71.0039 544.566 71.2773C544.319 71.5443 544.026 71.7656 543.688 71.9414C543.355 72.1107 542.981 72.1953 542.564 72.1953C541.952 72.1953 541.415 72.0781 540.953 71.8438C540.497 71.6094 540.143 71.2643 539.889 70.8086C539.635 70.3529 539.508 69.7897 539.508 69.1191C539.508 68.6113 539.596 68.1426 539.771 67.7129C539.947 67.2832 540.208 66.9121 540.553 66.5996C540.898 66.2806 541.331 66.0332 541.852 65.8574C542.379 65.6816 542.988 65.5938 543.678 65.5938H545.143ZM552.012 63.5332V72H550.293V61.4336H551.914L552.012 63.5332ZM551.66 66.3164L550.859 66.2871C550.853 65.5645 550.924 64.8971 551.074 64.2852C551.224 63.6667 551.449 63.1296 551.748 62.6738C552.054 62.2181 552.435 61.8665 552.891 61.6191C553.353 61.3652 553.89 61.2383 554.502 61.2383C554.906 61.2383 555.28 61.3099 555.625 61.4531C555.977 61.5898 556.283 61.8079 556.543 62.1074C556.803 62.4069 557.005 62.791 557.148 63.2598C557.298 63.7285 557.373 64.2949 557.373 64.959V72H555.645V65.0469C555.645 64.4935 555.57 64.0508 555.42 63.7188C555.277 63.3867 555.072 63.1458 554.805 62.9961C554.538 62.8398 554.219 62.7617 553.848 62.7617C553.424 62.7617 553.07 62.8561 552.783 63.0449C552.503 63.2337 552.279 63.4941 552.109 63.8262C551.947 64.1582 551.829 64.5391 551.758 64.9688C551.693 65.3919 551.66 65.8411 551.66 66.3164ZM557.354 65.3203L556.201 65.6914C556.195 65.112 556.266 64.5553 556.416 64.0215C556.566 63.4876 556.787 63.0124 557.08 62.5957C557.38 62.179 557.751 61.8503 558.193 61.6094C558.636 61.362 559.15 61.2383 559.736 61.2383C560.218 61.2383 560.645 61.3132 561.016 61.4629C561.387 61.6126 561.699 61.8438 561.953 62.1562C562.214 62.4622 562.409 62.8561 562.539 63.3379C562.669 63.8197 562.734 64.3926 562.734 65.0566V72H561.006V65.0371C561.006 64.4447 560.931 63.9857 560.781 63.6602C560.638 63.3281 560.433 63.097 560.166 62.9668C559.899 62.8301 559.58 62.7617 559.209 62.7617C558.91 62.7617 558.643 62.8301 558.408 62.9668C558.18 63.1035 557.988 63.2923 557.832 63.5332C557.676 63.7676 557.555 64.0378 557.471 64.3438C557.393 64.6497 557.354 64.9753 557.354 65.3203ZM570.121 72.1953C569.49 72.1953 568.92 72.1009 568.412 71.9121C567.904 71.7233 567.471 71.4368 567.113 71.0527C566.755 70.6621 566.482 70.1706 566.293 69.5781C566.104 68.9857 566.01 68.2858 566.01 67.4785V66.2871C566.01 65.3561 566.117 64.5684 566.332 63.9238C566.553 63.2793 566.85 62.7617 567.221 62.3711C567.592 61.974 568.012 61.6875 568.48 61.5117C568.949 61.3294 569.431 61.2383 569.926 61.2383C570.59 61.2383 571.156 61.3457 571.625 61.5605C572.094 61.7754 572.475 62.0944 572.768 62.5176C573.061 62.9408 573.275 63.4616 573.412 64.0801C573.555 64.6986 573.627 65.4115 573.627 66.2188V67.2246H567.025V65.75H571.898V65.5059C571.872 64.959 571.798 64.4772 571.674 64.0605C571.557 63.6439 571.361 63.3184 571.088 63.084C570.814 62.8431 570.427 62.7227 569.926 62.7227C569.607 62.7227 569.311 62.778 569.037 62.8887C568.77 62.9928 568.539 63.1784 568.344 63.4453C568.155 63.7057 568.005 64.0671 567.895 64.5293C567.79 64.9915 567.738 65.5775 567.738 66.2871V67.4785C567.738 68.0449 567.79 68.5332 567.895 68.9434C568.005 69.347 568.165 69.6823 568.373 69.9492C568.588 70.2096 568.848 70.4049 569.154 70.5352C569.467 70.6589 569.822 70.7207 570.219 70.7207C570.798 70.7207 571.277 70.61 571.654 70.3887C572.032 70.1608 572.361 69.8711 572.641 69.5195L573.549 70.6035C573.36 70.8704 573.113 71.1276 572.807 71.375C572.507 71.6159 572.136 71.8145 571.693 71.9707C571.257 72.1204 570.733 72.1953 570.121 72.1953ZM578.445 63.6895V72H576.717V61.4336H578.348L578.445 63.6895ZM578.025 66.3164L577.322 66.2871C577.316 65.5645 577.397 64.8971 577.566 64.2852C577.742 63.6667 577.99 63.1296 578.309 62.6738C578.634 62.2181 579.021 61.8665 579.471 61.6191C579.92 61.3652 580.418 61.2383 580.965 61.2383C581.395 61.2383 581.785 61.3099 582.137 61.4531C582.488 61.5898 582.788 61.8112 583.035 62.1172C583.283 62.4232 583.471 62.8203 583.602 63.3086C583.738 63.7904 583.807 64.3796 583.807 65.0762V72H582.078V65.0566C582.078 64.5033 582.016 64.0605 581.893 63.7285C581.775 63.39 581.593 63.1458 581.346 62.9961C581.105 62.8398 580.799 62.7617 580.428 62.7617C580.089 62.7617 579.773 62.8561 579.48 63.0449C579.188 63.2337 578.93 63.4941 578.709 63.8262C578.494 64.1582 578.325 64.5391 578.201 64.9688C578.084 65.3919 578.025 65.8411 578.025 66.3164ZM591.262 61.4336V62.8203H586.33V61.4336H591.262ZM587.941 58.8652H589.67V69.3828C589.67 69.7409 589.712 70.0111 589.797 70.1934C589.888 70.3757 590.002 70.4961 590.139 70.5547C590.275 70.6133 590.422 70.6426 590.578 70.6426C590.695 70.6426 590.826 70.6296 590.969 70.6035C591.112 70.571 591.21 70.5449 591.262 70.5254L591.252 72C591.135 72.0456 590.979 72.0879 590.783 72.127C590.588 72.1725 590.34 72.1953 590.041 72.1953C589.67 72.1953 589.325 72.1074 589.006 71.9316C588.687 71.7559 588.43 71.4629 588.234 71.0527C588.039 70.6361 587.941 70.0762 587.941 69.373V58.8652ZM598.102 72.1953C597.47 72.1953 596.9 72.1009 596.393 71.9121C595.885 71.7233 595.452 71.4368 595.094 71.0527C594.736 70.6621 594.462 70.1706 594.273 69.5781C594.085 68.9857 593.99 68.2858 593.99 67.4785V66.2871C593.99 65.3561 594.098 64.5684 594.312 63.9238C594.534 63.2793 594.83 62.7617 595.201 62.3711C595.572 61.974 595.992 61.6875 596.461 61.5117C596.93 61.3294 597.411 61.2383 597.906 61.2383C598.57 61.2383 599.137 61.3457 599.605 61.5605C600.074 61.7754 600.455 62.0944 600.748 62.5176C601.041 62.9408 601.256 63.4616 601.393 64.0801C601.536 64.6986 601.607 65.4115 601.607 66.2188V67.2246H595.006V65.75H599.879V65.5059C599.853 64.959 599.778 64.4772 599.654 64.0605C599.537 63.6439 599.342 63.3184 599.068 63.084C598.795 62.8431 598.408 62.7227 597.906 62.7227C597.587 62.7227 597.291 62.778 597.018 62.8887C596.751 62.9928 596.52 63.1784 596.324 63.4453C596.135 63.7057 595.986 64.0671 595.875 64.5293C595.771 64.9915 595.719 65.5775 595.719 66.2871V67.4785C595.719 68.0449 595.771 68.5332 595.875 68.9434C595.986 69.347 596.145 69.6823 596.354 69.9492C596.568 70.2096 596.829 70.4049 597.135 70.5352C597.447 70.6589 597.802 70.7207 598.199 70.7207C598.779 70.7207 599.257 70.61 599.635 70.3887C600.012 70.1608 600.341 69.8711 600.621 69.5195L601.529 70.6035C601.34 70.8704 601.093 71.1276 600.787 71.375C600.488 71.6159 600.117 71.8145 599.674 71.9707C599.238 72.1204 598.714 72.1953 598.102 72.1953ZM604.805 71.043C604.805 70.737 604.899 70.4798 605.088 70.2715C605.283 70.0566 605.563 69.9492 605.928 69.9492C606.292 69.9492 606.569 70.0566 606.758 70.2715C606.953 70.4798 607.051 70.737 607.051 71.043C607.051 71.3424 606.953 71.5964 606.758 71.8047C606.569 72.013 606.292 72.1172 605.928 72.1172C605.563 72.1172 605.283 72.013 605.088 71.8047C604.899 71.5964 604.805 71.3424 604.805 71.043Z" fill="white"/>
<path d="M502.445 45.9531H727.324V46.9297H502.445V45.9531ZM365 73.9531H434.998V74.9297H365V73.9531Z" fill="white"/>
<path d="M43.8598 28.271L45.028 27.5701C45.9626 27.1028 47.1308 26.8692 48.2991 26.8692H64.4206C68.6262 26.8692 72.1308 29.9065 72.8318 33.8785L76.3364 52.1028C77.0374 55.3738 74.4673 58.1776 71.1963 58.1776H61.8505L65.8224 69.1589C66.0561 69.6262 66.0561 70.0935 66.0561 70.5607C66.0561 72.8972 64.1869 75 61.6168 75C60.2149 75 59.0467 74.2991 58.1121 73.3645L44.3271 55.1402H43.8598" stroke="#BB2323" stroke-width="3" stroke-miterlimit="10" stroke-linecap="round" stroke-linejoin="round"/>
<path d="M41.2897 25.0004H26.3364C24.9346 25.0004 24 25.935 24 27.3369V56.5425C24 57.9443 24.9346 58.8789 26.3364 58.8789H41.5234C42.9252 58.8789 43.8598 57.9443 43.8598 56.5425V27.1032C43.6262 25.935 42.6916 25.0004 41.2897 25.0004Z" stroke="#BB2323" stroke-width="3" stroke-miterlimit="10" stroke-linecap="round" stroke-linejoin="round"/>
</svg>
