<svg width="800" height="100" viewBox="0 0 800 100" fill="none" xmlns="http://www.w3.org/2000/svg">
<rect width="100" height="100" fill="white"/>
<path d="M100 0H800V100H100V0Z" fill="#BB2323"/>
<path d="M121.25 42.7812H125.674C126.618 42.7812 127.422 42.944 128.086 43.2695C128.75 43.5951 129.255 44.0768 129.6 44.7148C129.951 45.3529 130.127 46.1374 130.127 47.0684C130.127 47.8105 130.02 48.4551 129.805 49.002C129.596 49.5423 129.297 49.9948 128.906 50.3594C128.522 50.724 128.057 51.0072 127.51 51.209L126.719 51.6582H123.057L123.047 49.4805H125.615C126.038 49.4805 126.39 49.3861 126.67 49.1973C126.956 49.0085 127.168 48.748 127.305 48.416C127.448 48.0775 127.52 47.6901 127.52 47.2539C127.52 46.7786 127.454 46.3717 127.324 46.0332C127.201 45.6882 127.002 45.4245 126.729 45.2422C126.462 45.0599 126.11 44.9688 125.674 44.9688H123.867V57H121.25V42.7812ZM127.793 57L125.127 50.6328H127.871L130.586 56.8633V57H127.793ZM141.254 54.8223V57H135.082V54.8223H141.254ZM135.834 42.7812V57H133.217V42.7812H135.834ZM140.424 48.6211V50.7402H135.082V48.6211H140.424ZM141.215 42.7812V44.9688H135.082V42.7812H141.215ZM150.125 53.2988C150.125 53.0189 150.096 52.7715 150.037 52.5566C149.985 52.3353 149.881 52.1335 149.725 51.9512C149.568 51.7689 149.344 51.5898 149.051 51.4141C148.758 51.2318 148.38 51.0462 147.918 50.8574C147.371 50.6361 146.854 50.4017 146.365 50.1543C145.877 49.9004 145.441 49.6074 145.057 49.2754C144.673 48.9434 144.37 48.5527 144.148 48.1035C143.934 47.6543 143.826 47.1302 143.826 46.5312C143.826 45.9453 143.93 45.4115 144.139 44.9297C144.354 44.4414 144.656 44.0247 145.047 43.6797C145.438 43.3281 145.9 43.0579 146.434 42.8691C146.974 42.6803 147.57 42.5859 148.221 42.5859C149.139 42.5859 149.926 42.778 150.584 43.1621C151.242 43.5462 151.749 44.0671 152.107 44.7246C152.465 45.3822 152.645 46.1243 152.645 46.9512H150.037C150.037 46.5215 149.972 46.1406 149.842 45.8086C149.718 45.4701 149.52 45.2064 149.246 45.0176C148.973 44.8288 148.621 44.7344 148.191 44.7344C147.788 44.7344 147.456 44.8158 147.195 44.9785C146.935 45.1348 146.743 45.3496 146.619 45.623C146.495 45.89 146.434 46.196 146.434 46.541C146.434 46.7884 146.489 47.013 146.6 47.2148C146.717 47.4102 146.876 47.5892 147.078 47.752C147.28 47.9147 147.524 48.071 147.811 48.2207C148.104 48.3639 148.429 48.5039 148.787 48.6406C149.445 48.888 150.021 49.1615 150.516 49.4609C151.01 49.7539 151.421 50.0859 151.746 50.457C152.078 50.8216 152.326 51.235 152.488 51.6973C152.651 52.1595 152.732 52.6868 152.732 53.2793C152.732 53.8652 152.632 54.3991 152.43 54.8809C152.228 55.3626 151.935 55.776 151.551 56.1211C151.167 56.4661 150.701 56.7331 150.154 56.9219C149.614 57.1042 149.012 57.1953 148.348 57.1953C147.71 57.1953 147.101 57.1042 146.521 56.9219C145.949 56.7331 145.441 56.4499 144.998 56.0723C144.555 55.6947 144.207 55.2194 143.953 54.6465C143.699 54.0671 143.572 53.3867 143.572 52.6055H146.18C146.18 53.0417 146.229 53.4193 146.326 53.7383C146.424 54.0508 146.57 54.3047 146.766 54.5C146.961 54.6888 147.195 54.8288 147.469 54.9199C147.742 55.0046 148.051 55.0469 148.396 55.0469C148.807 55.0469 149.139 54.972 149.393 54.8223C149.646 54.6725 149.832 54.4674 149.949 54.207C150.066 53.9401 150.125 53.6374 150.125 53.2988ZM160.539 51.8633H157.58V49.6758H160.529C160.985 49.6758 161.35 49.5814 161.623 49.3926C161.903 49.1973 162.105 48.9271 162.229 48.582C162.359 48.237 162.424 47.8464 162.424 47.4102C162.424 46.987 162.359 46.5898 162.229 46.2188C162.105 45.8411 161.903 45.5384 161.623 45.3105C161.35 45.0827 160.988 44.9688 160.539 44.9688H158.371V57H155.764V42.7812H160.539C161.483 42.7812 162.294 42.9798 162.971 43.377C163.648 43.7741 164.165 44.321 164.523 45.0176C164.888 45.7077 165.07 46.4987 165.07 47.3906C165.07 48.3086 164.888 49.1029 164.523 49.7734C164.159 50.4375 163.638 50.9518 162.961 51.3164C162.29 51.681 161.483 51.8633 160.539 51.8633ZM177.887 48.7578V51.1504C177.887 52.153 177.77 53.0319 177.535 53.7871C177.301 54.5423 176.962 55.1738 176.52 55.6816C176.077 56.1829 175.546 56.5605 174.928 56.8145C174.309 57.0684 173.626 57.1953 172.877 57.1953C172.122 57.1953 171.435 57.0684 170.816 56.8145C170.198 56.5605 169.664 56.1829 169.215 55.6816C168.772 55.1738 168.427 54.5423 168.18 53.7871C167.939 53.0319 167.818 52.153 167.818 51.1504V48.7578C167.818 47.7357 167.939 46.8405 168.18 46.0723C168.421 45.304 168.762 44.6628 169.205 44.1484C169.654 43.6341 170.188 43.2467 170.807 42.9863C171.425 42.7194 172.109 42.5859 172.857 42.5859C173.613 42.5859 174.296 42.7194 174.908 42.9863C175.527 43.2467 176.057 43.6341 176.5 44.1484C176.949 44.6628 177.291 45.304 177.525 46.0723C177.766 46.8405 177.887 47.7357 177.887 48.7578ZM175.289 51.1504V48.7383C175.289 48.0417 175.237 47.4427 175.133 46.9414C175.029 46.4401 174.872 46.0332 174.664 45.7207C174.456 45.4017 174.199 45.1673 173.893 45.0176C173.593 44.8678 173.248 44.793 172.857 44.793C172.46 44.793 172.109 44.8678 171.803 45.0176C171.503 45.1673 171.249 45.4017 171.041 45.7207C170.839 46.0332 170.686 46.4401 170.582 46.9414C170.478 47.4427 170.426 48.0417 170.426 48.7383V51.1504C170.426 51.834 170.478 52.4199 170.582 52.9082C170.686 53.3965 170.842 53.7936 171.051 54.0996C171.266 54.4056 171.523 54.6335 171.822 54.7832C172.128 54.9264 172.48 54.998 172.877 54.998C173.268 54.998 173.613 54.9264 173.912 54.7832C174.218 54.6335 174.472 54.4056 174.674 54.0996C174.882 53.7936 175.035 53.3965 175.133 52.9082C175.237 52.4199 175.289 51.834 175.289 51.1504ZM187.207 53.2988C187.207 53.0189 187.178 52.7715 187.119 52.5566C187.067 52.3353 186.963 52.1335 186.807 51.9512C186.65 51.7689 186.426 51.5898 186.133 51.4141C185.84 51.2318 185.462 51.0462 185 50.8574C184.453 50.6361 183.936 50.4017 183.447 50.1543C182.959 49.9004 182.523 49.6074 182.139 49.2754C181.755 48.9434 181.452 48.5527 181.23 48.1035C181.016 47.6543 180.908 47.1302 180.908 46.5312C180.908 45.9453 181.012 45.4115 181.221 44.9297C181.436 44.4414 181.738 44.0247 182.129 43.6797C182.52 43.3281 182.982 43.0579 183.516 42.8691C184.056 42.6803 184.652 42.5859 185.303 42.5859C186.221 42.5859 187.008 42.778 187.666 43.1621C188.324 43.5462 188.831 44.0671 189.189 44.7246C189.548 45.3822 189.727 46.1243 189.727 46.9512H187.119C187.119 46.5215 187.054 46.1406 186.924 45.8086C186.8 45.4701 186.602 45.2064 186.328 45.0176C186.055 44.8288 185.703 44.7344 185.273 44.7344C184.87 44.7344 184.538 44.8158 184.277 44.9785C184.017 45.1348 183.825 45.3496 183.701 45.623C183.577 45.89 183.516 46.196 183.516 46.541C183.516 46.7884 183.571 47.013 183.682 47.2148C183.799 47.4102 183.958 47.5892 184.16 47.752C184.362 47.9147 184.606 48.071 184.893 48.2207C185.186 48.3639 185.511 48.5039 185.869 48.6406C186.527 48.888 187.103 49.1615 187.598 49.4609C188.092 49.7539 188.503 50.0859 188.828 50.457C189.16 50.8216 189.408 51.235 189.57 51.6973C189.733 52.1595 189.814 52.6868 189.814 53.2793C189.814 53.8652 189.714 54.3991 189.512 54.8809C189.31 55.3626 189.017 55.776 188.633 56.1211C188.249 56.4661 187.783 56.7331 187.236 56.9219C186.696 57.1042 186.094 57.1953 185.43 57.1953C184.792 57.1953 184.183 57.1042 183.604 56.9219C183.031 56.7331 182.523 56.4499 182.08 56.0723C181.637 55.6947 181.289 55.2194 181.035 54.6465C180.781 54.0671 180.654 53.3867 180.654 52.6055H183.262C183.262 53.0417 183.311 53.4193 183.408 53.7383C183.506 54.0508 183.652 54.3047 183.848 54.5C184.043 54.6888 184.277 54.8288 184.551 54.9199C184.824 55.0046 185.133 55.0469 185.479 55.0469C185.889 55.0469 186.221 54.972 186.475 54.8223C186.729 54.6725 186.914 54.4674 187.031 54.207C187.148 53.9401 187.207 53.6374 187.207 53.2988ZM198.256 42.7812V57H195.658V42.7812H198.256ZM201.84 42.7812V44.9688H192.133V42.7812H201.84ZM208.543 45.0273L205.291 57H202.537L207.02 42.7812H208.738L208.543 45.0273ZM211.111 57L207.859 45.0273L207.635 42.7812H209.373L213.875 57H211.111ZM211.199 51.707V53.8848H204.676V51.707H211.199ZM224.693 42.7812V57H222.096V42.7812H224.693ZM238.086 42.7812V57H235.537L230.791 47.6348V57H228.291V42.7812H230.801L235.586 52.2344V42.7812H238.086ZM248.432 52.3125H251.039C250.993 53.3607 250.779 54.2493 250.395 54.9785C250.017 55.7012 249.473 56.2513 248.764 56.6289C248.061 57.0065 247.204 57.1953 246.195 57.1953C245.427 57.1953 244.74 57.0618 244.135 56.7949C243.529 56.5215 243.015 56.1276 242.592 55.6133C242.175 55.099 241.856 54.4674 241.635 53.7188C241.42 52.9635 241.312 52.1009 241.312 51.1309V48.6602C241.312 47.6901 241.426 46.8275 241.654 46.0723C241.882 45.3171 242.208 44.679 242.631 44.1582C243.061 43.6374 243.581 43.2435 244.193 42.9766C244.805 42.7096 245.495 42.5762 246.264 42.5762C247.279 42.5762 248.129 42.7682 248.812 43.1523C249.496 43.5365 250.023 44.0996 250.395 44.8418C250.766 45.5775 250.984 46.4759 251.049 47.5371H248.441C248.415 46.847 248.331 46.3001 248.188 45.8965C248.044 45.4863 247.82 45.1934 247.514 45.0176C247.208 44.8418 246.791 44.7539 246.264 44.7539C245.854 44.7539 245.499 44.8288 245.199 44.9785C244.9 45.1283 244.656 45.3626 244.467 45.6816C244.278 45.9941 244.138 46.3945 244.047 46.8828C243.956 47.3711 243.91 47.957 243.91 48.6406V51.1309C243.91 51.7884 243.949 52.3613 244.027 52.8496C244.105 53.3379 244.229 53.7448 244.398 54.0703C244.574 54.3893 244.809 54.6302 245.102 54.793C245.395 54.9492 245.759 55.0273 246.195 55.0273C246.723 55.0273 247.143 54.9492 247.455 54.793C247.768 54.6302 247.999 54.3535 248.148 53.9629C248.305 53.5658 248.399 53.0156 248.432 52.3125ZM263.777 48.7578V51.1504C263.777 52.153 263.66 53.0319 263.426 53.7871C263.191 54.5423 262.853 55.1738 262.41 55.6816C261.967 56.1829 261.437 56.5605 260.818 56.8145C260.2 57.0684 259.516 57.1953 258.768 57.1953C258.012 57.1953 257.326 57.0684 256.707 56.8145C256.089 56.5605 255.555 56.1829 255.105 55.6816C254.663 55.1738 254.318 54.5423 254.07 53.7871C253.829 53.0319 253.709 52.153 253.709 51.1504V48.7578C253.709 47.7357 253.829 46.8405 254.07 46.0723C254.311 45.304 254.653 44.6628 255.096 44.1484C255.545 43.6341 256.079 43.2467 256.697 42.9863C257.316 42.7194 257.999 42.5859 258.748 42.5859C259.503 42.5859 260.187 42.7194 260.799 42.9863C261.417 43.2467 261.948 43.6341 262.391 44.1484C262.84 44.6628 263.182 45.304 263.416 46.0723C263.657 46.8405 263.777 47.7357 263.777 48.7578ZM261.18 51.1504V48.7383C261.18 48.0417 261.128 47.4427 261.023 46.9414C260.919 46.4401 260.763 46.0332 260.555 45.7207C260.346 45.4017 260.089 45.1673 259.783 45.0176C259.484 44.8678 259.139 44.793 258.748 44.793C258.351 44.793 257.999 44.8678 257.693 45.0176C257.394 45.1673 257.14 45.4017 256.932 45.7207C256.73 46.0332 256.577 46.4401 256.473 46.9414C256.368 47.4427 256.316 48.0417 256.316 48.7383V51.1504C256.316 51.834 256.368 52.4199 256.473 52.9082C256.577 53.3965 256.733 53.7936 256.941 54.0996C257.156 54.4056 257.413 54.6335 257.713 54.7832C258.019 54.9264 258.37 54.998 258.768 54.998C259.158 54.998 259.503 54.9264 259.803 54.7832C260.109 54.6335 260.363 54.4056 260.564 54.0996C260.773 53.7936 260.926 53.3965 261.023 52.9082C261.128 52.4199 261.18 51.834 261.18 51.1504ZM267.043 42.7812H271.467C272.411 42.7812 273.215 42.944 273.879 43.2695C274.543 43.5951 275.048 44.0768 275.393 44.7148C275.744 45.3529 275.92 46.1374 275.92 47.0684C275.92 47.8105 275.812 48.4551 275.598 49.002C275.389 49.5423 275.09 49.9948 274.699 50.3594C274.315 50.724 273.85 51.0072 273.303 51.209L272.512 51.6582H268.85L268.84 49.4805H271.408C271.831 49.4805 272.183 49.3861 272.463 49.1973C272.749 49.0085 272.961 48.748 273.098 48.416C273.241 48.0775 273.312 47.6901 273.312 47.2539C273.312 46.7786 273.247 46.3717 273.117 46.0332C272.993 45.6882 272.795 45.4245 272.521 45.2422C272.255 45.0599 271.903 44.9688 271.467 44.9688H269.66V57H267.043V42.7812ZM273.586 57L270.92 50.6328H273.664L276.379 56.8633V57H273.586ZM279.02 42.7812H283.443C284.387 42.7812 285.191 42.944 285.855 43.2695C286.52 43.5951 287.024 44.0768 287.369 44.7148C287.721 45.3529 287.896 46.1374 287.896 47.0684C287.896 47.8105 287.789 48.4551 287.574 49.002C287.366 49.5423 287.066 49.9948 286.676 50.3594C286.292 50.724 285.826 51.0072 285.279 51.209L284.488 51.6582H280.826L280.816 49.4805H283.385C283.808 49.4805 284.16 49.3861 284.439 49.1973C284.726 49.0085 284.938 48.748 285.074 48.416C285.217 48.0775 285.289 47.6901 285.289 47.2539C285.289 46.7786 285.224 46.3717 285.094 46.0332C284.97 45.6882 284.771 45.4245 284.498 45.2422C284.231 45.0599 283.88 44.9688 283.443 44.9688H281.637V57H279.02V42.7812ZM285.562 57L282.896 50.6328H285.641L288.355 56.8633V57H285.562ZM299.023 54.8223V57H292.852V54.8223H299.023ZM293.604 42.7812V57H290.986V42.7812H293.604ZM298.193 48.6211V50.7402H292.852V48.6211H298.193ZM298.984 42.7812V44.9688H292.852V42.7812H298.984ZM307.436 42.7812V57H304.838V42.7812H307.436ZM311.02 42.7812V44.9688H301.312V42.7812H311.02ZM317.723 45.0273L314.471 57H311.717L316.199 42.7812H317.918L317.723 45.0273ZM320.291 57L317.039 45.0273L316.814 42.7812H318.553L323.055 57H320.291ZM320.379 51.707V53.8848H313.855V51.707H320.379ZM342.236 42.7812L337.256 58.2207H335.801L340.791 42.7812H342.236Z" fill="white"/>
<path d="M366.543 42.7812H370.518C371.442 42.7812 372.217 42.944 372.842 43.2695C373.473 43.5951 373.949 44.0768 374.268 44.7148C374.593 45.3464 374.756 46.1243 374.756 47.0488C374.756 47.6999 374.648 48.2956 374.434 48.8359C374.219 49.3698 373.906 49.8255 373.496 50.2031C373.086 50.5742 372.588 50.8509 372.002 51.0332L371.514 51.2383H367.969L367.949 49.7051H370.498C371.045 49.7051 371.501 49.5879 371.865 49.3535C372.23 49.1126 372.503 48.7904 372.686 48.3867C372.868 47.9831 372.959 47.5371 372.959 47.0488C372.959 46.502 372.878 46.0234 372.715 45.6133C372.552 45.2031 372.292 44.8874 371.934 44.666C371.582 44.4382 371.11 44.3242 370.518 44.3242H368.34V57H366.543V42.7812ZM373.369 57L370.537 50.5547L372.402 50.5449L375.293 56.8828V57H373.369ZM381.703 57.1953C381.072 57.1953 380.502 57.1009 379.994 56.9121C379.486 56.7233 379.053 56.4368 378.695 56.0527C378.337 55.6621 378.064 55.1706 377.875 54.5781C377.686 53.9857 377.592 53.2858 377.592 52.4785V51.2871C377.592 50.3561 377.699 49.5684 377.914 48.9238C378.135 48.2793 378.432 47.7617 378.803 47.3711C379.174 46.974 379.594 46.6875 380.062 46.5117C380.531 46.3294 381.013 46.2383 381.508 46.2383C382.172 46.2383 382.738 46.3457 383.207 46.5605C383.676 46.7754 384.057 47.0944 384.35 47.5176C384.643 47.9408 384.857 48.4616 384.994 49.0801C385.137 49.6986 385.209 50.4115 385.209 51.2188V52.2246H378.607V50.75H383.48V50.5059C383.454 49.959 383.38 49.4772 383.256 49.0605C383.139 48.6439 382.943 48.3184 382.67 48.084C382.396 47.8431 382.009 47.7227 381.508 47.7227C381.189 47.7227 380.893 47.778 380.619 47.8887C380.352 47.9928 380.121 48.1784 379.926 48.4453C379.737 48.7057 379.587 49.0671 379.477 49.5293C379.372 49.9915 379.32 50.5775 379.32 51.2871V52.4785C379.32 53.0449 379.372 53.5332 379.477 53.9434C379.587 54.347 379.747 54.6823 379.955 54.9492C380.17 55.2096 380.43 55.4049 380.736 55.5352C381.049 55.6589 381.404 55.7207 381.801 55.7207C382.38 55.7207 382.859 55.61 383.236 55.3887C383.614 55.1608 383.943 54.8711 384.223 54.5195L385.131 55.6035C384.942 55.8704 384.695 56.1276 384.389 56.375C384.089 56.6159 383.718 56.8145 383.275 56.9707C382.839 57.1204 382.315 57.1953 381.703 57.1953ZM390.154 42V57H388.436V42H390.154ZM397.668 57.1953C397.036 57.1953 396.467 57.1009 395.959 56.9121C395.451 56.7233 395.018 56.4368 394.66 56.0527C394.302 55.6621 394.029 55.1706 393.84 54.5781C393.651 53.9857 393.557 53.2858 393.557 52.4785V51.2871C393.557 50.3561 393.664 49.5684 393.879 48.9238C394.1 48.2793 394.396 47.7617 394.768 47.3711C395.139 46.974 395.559 46.6875 396.027 46.5117C396.496 46.3294 396.978 46.2383 397.473 46.2383C398.137 46.2383 398.703 46.3457 399.172 46.5605C399.641 46.7754 400.021 47.0944 400.314 47.5176C400.607 47.9408 400.822 48.4616 400.959 49.0801C401.102 49.6986 401.174 50.4115 401.174 51.2188V52.2246H394.572V50.75H399.445V50.5059C399.419 49.959 399.344 49.4772 399.221 49.0605C399.104 48.6439 398.908 48.3184 398.635 48.084C398.361 47.8431 397.974 47.7227 397.473 47.7227C397.154 47.7227 396.857 47.778 396.584 47.8887C396.317 47.9928 396.086 48.1784 395.891 48.4453C395.702 48.7057 395.552 49.0671 395.441 49.5293C395.337 49.9915 395.285 50.5775 395.285 51.2871V52.4785C395.285 53.0449 395.337 53.5332 395.441 53.9434C395.552 54.347 395.712 54.6823 395.92 54.9492C396.135 55.2096 396.395 55.4049 396.701 55.5352C397.014 55.6589 397.368 55.7207 397.766 55.7207C398.345 55.7207 398.824 55.61 399.201 55.3887C399.579 55.1608 399.908 54.8711 400.188 54.5195L401.096 55.6035C400.907 55.8704 400.66 56.1276 400.354 56.375C400.054 56.6159 399.683 56.8145 399.24 56.9707C398.804 57.1204 398.28 57.1953 397.668 57.1953ZM406.119 46.4336V57H404.4V46.4336H406.119ZM404.303 43.6309C404.303 43.3379 404.384 43.0905 404.547 42.8887C404.71 42.6868 404.954 42.5859 405.279 42.5859C405.605 42.5859 405.849 42.6868 406.012 42.8887C406.181 43.0905 406.266 43.3379 406.266 43.6309C406.266 43.9108 406.181 44.1517 406.012 44.3535C405.849 44.5488 405.605 44.6465 405.279 44.6465C404.954 44.6465 404.71 44.5488 404.547 44.3535C404.384 44.1517 404.303 43.9108 404.303 43.6309ZM415.029 55.1934V49.4609C415.029 49.0443 414.964 48.709 414.834 48.4551C414.71 48.2012 414.521 48.0156 414.268 47.8984C414.02 47.7812 413.708 47.7227 413.33 47.7227C412.965 47.7227 412.65 47.7975 412.383 47.9473C412.122 48.097 411.921 48.2956 411.777 48.543C411.641 48.7904 411.572 49.0638 411.572 49.3633H409.844C409.844 48.9857 409.925 48.6113 410.088 48.2402C410.257 47.8691 410.498 47.5339 410.811 47.2344C411.123 46.9284 411.497 46.6875 411.934 46.5117C412.376 46.3294 412.871 46.2383 413.418 46.2383C414.069 46.2383 414.645 46.3457 415.146 46.5605C415.648 46.7689 416.042 47.1107 416.328 47.5859C416.615 48.0612 416.758 48.6927 416.758 49.4805V54.6953C416.758 55.0469 416.784 55.4212 416.836 55.8184C416.895 56.2155 416.976 56.5573 417.08 56.8438V57H415.293C415.208 56.7917 415.143 56.515 415.098 56.1699C415.052 55.8184 415.029 55.4928 415.029 55.1934ZM415.303 50.5938L415.322 51.8633H414.121C413.711 51.8633 413.337 51.9089 412.998 52C412.666 52.0911 412.38 52.2246 412.139 52.4004C411.898 52.5697 411.712 52.7812 411.582 53.0352C411.458 53.2891 411.396 53.5788 411.396 53.9043C411.396 54.3275 411.455 54.666 411.572 54.9199C411.689 55.1673 411.865 55.3464 412.1 55.457C412.334 55.5677 412.63 55.623 412.988 55.623C413.424 55.623 413.809 55.5221 414.141 55.3203C414.473 55.1185 414.73 54.8743 414.912 54.5879C415.101 54.3014 415.189 54.0345 415.176 53.7871L415.557 54.5977C415.531 54.8516 415.446 55.1283 415.303 55.4277C415.166 55.7207 414.974 56.0039 414.727 56.2773C414.479 56.5443 414.186 56.7656 413.848 56.9414C413.516 57.1107 413.141 57.1953 412.725 57.1953C412.113 57.1953 411.576 57.0781 411.113 56.8438C410.658 56.6094 410.303 56.2643 410.049 55.8086C409.795 55.3529 409.668 54.7897 409.668 54.1191C409.668 53.6113 409.756 53.1426 409.932 52.7129C410.107 52.2832 410.368 51.9121 410.713 51.5996C411.058 51.2806 411.491 51.0332 412.012 50.8574C412.539 50.6816 413.148 50.5938 413.838 50.5938H415.303ZM425.672 52.2246V51.2188C425.672 50.3984 425.776 49.679 425.984 49.0605C426.193 48.4355 426.482 47.9147 426.854 47.498C427.225 47.0814 427.658 46.7689 428.152 46.5605C428.647 46.3457 429.178 46.2383 429.744 46.2383C430.324 46.2383 430.861 46.3457 431.355 46.5605C431.85 46.7689 432.283 47.0814 432.654 47.498C433.032 47.9147 433.325 48.4355 433.533 49.0605C433.742 49.679 433.846 50.3984 433.846 51.2188V52.2246C433.846 53.0449 433.742 53.7676 433.533 54.3926C433.325 55.0111 433.035 55.5286 432.664 55.9453C432.293 56.362 431.86 56.6745 431.365 56.8828C430.87 57.0911 430.337 57.1953 429.764 57.1953C429.191 57.1953 428.657 57.0911 428.162 56.8828C427.667 56.6745 427.231 56.362 426.854 55.9453C426.482 55.5286 426.193 55.0111 425.984 54.3926C425.776 53.7676 425.672 53.0449 425.672 52.2246ZM427.4 51.2188V52.2246C427.4 52.804 427.459 53.3118 427.576 53.748C427.693 54.1842 427.859 54.5488 428.074 54.8418C428.289 55.1348 428.54 55.3561 428.826 55.5059C429.113 55.6491 429.425 55.7207 429.764 55.7207C430.154 55.7207 430.496 55.6491 430.789 55.5059C431.089 55.3561 431.336 55.1348 431.531 54.8418C431.727 54.5488 431.873 54.1842 431.971 53.748C432.068 53.3118 432.117 52.804 432.117 52.2246V51.2188C432.117 50.6393 432.059 50.1348 431.941 49.7051C431.824 49.2689 431.658 48.9043 431.443 48.6113C431.229 48.3118 430.975 48.0905 430.682 47.9473C430.395 47.7975 430.083 47.7227 429.744 47.7227C429.412 47.7227 429.103 47.7975 428.816 47.9473C428.53 48.0905 428.279 48.3118 428.064 48.6113C427.856 48.9043 427.693 49.2689 427.576 49.7051C427.459 50.1348 427.4 50.6393 427.4 51.2188ZM446.52 46.4336V47.8203H441.588V46.4336H446.52ZM443.199 43.8652H444.928V54.3828C444.928 54.7409 444.97 55.0111 445.055 55.1934C445.146 55.3757 445.26 55.4961 445.396 55.5547C445.533 55.6133 445.68 55.6426 445.836 55.6426C445.953 55.6426 446.083 55.6296 446.227 55.6035C446.37 55.571 446.467 55.5449 446.52 55.5254L446.51 57C446.393 57.0456 446.236 57.0879 446.041 57.127C445.846 57.1725 445.598 57.1953 445.299 57.1953C444.928 57.1953 444.583 57.1074 444.264 56.9316C443.945 56.7559 443.688 56.4629 443.492 56.0527C443.297 55.6361 443.199 55.0762 443.199 54.373V43.8652ZM449.023 52.2246V51.2188C449.023 50.3984 449.128 49.679 449.336 49.0605C449.544 48.4355 449.834 47.9147 450.205 47.498C450.576 47.0814 451.009 46.7689 451.504 46.5605C451.999 46.3457 452.529 46.2383 453.096 46.2383C453.675 46.2383 454.212 46.3457 454.707 46.5605C455.202 46.7689 455.635 47.0814 456.006 47.498C456.383 47.9147 456.676 48.4355 456.885 49.0605C457.093 49.679 457.197 50.3984 457.197 51.2188V52.2246C457.197 53.0449 457.093 53.7676 456.885 54.3926C456.676 55.0111 456.387 55.5286 456.016 55.9453C455.645 56.362 455.212 56.6745 454.717 56.8828C454.222 57.0911 453.688 57.1953 453.115 57.1953C452.542 57.1953 452.008 57.0911 451.514 56.8828C451.019 56.6745 450.583 56.362 450.205 55.9453C449.834 55.5286 449.544 55.0111 449.336 54.3926C449.128 53.7676 449.023 53.0449 449.023 52.2246ZM450.752 51.2188V52.2246C450.752 52.804 450.811 53.3118 450.928 53.748C451.045 54.1842 451.211 54.5488 451.426 54.8418C451.641 55.1348 451.891 55.3561 452.178 55.5059C452.464 55.6491 452.777 55.7207 453.115 55.7207C453.506 55.7207 453.848 55.6491 454.141 55.5059C454.44 55.3561 454.688 55.1348 454.883 54.8418C455.078 54.5488 455.225 54.1842 455.322 53.748C455.42 53.3118 455.469 52.804 455.469 52.2246V51.2188C455.469 50.6393 455.41 50.1348 455.293 49.7051C455.176 49.2689 455.01 48.9043 454.795 48.6113C454.58 48.3118 454.326 48.0905 454.033 47.9473C453.747 47.7975 453.434 47.7227 453.096 47.7227C452.764 47.7227 452.454 47.7975 452.168 47.9473C451.882 48.0905 451.631 48.3118 451.416 48.6113C451.208 48.9043 451.045 49.2689 450.928 49.7051C450.811 50.1348 450.752 50.6393 450.752 51.2188ZM452.012 44.8711L453.906 42H456.084L453.467 44.8711H452.012ZM462.152 48.4648V61.0625H460.424V46.4336H461.996L462.152 48.4648ZM468.061 51.2383V52.2246C468.061 53.0579 467.982 53.7871 467.826 54.4121C467.676 55.0306 467.452 55.5482 467.152 55.9648C466.859 56.375 466.498 56.6842 466.068 56.8926C465.639 57.0944 465.147 57.1953 464.594 57.1953C464.04 57.1953 463.559 57.0911 463.148 56.8828C462.745 56.668 462.403 56.3587 462.123 55.9551C461.85 55.5514 461.632 55.0664 461.469 54.5C461.312 53.9271 461.205 53.2858 461.146 52.5762V51.0723C461.205 50.3236 461.312 49.653 461.469 49.0605C461.625 48.4616 461.84 47.9538 462.113 47.5371C462.393 47.1139 462.735 46.7917 463.139 46.5703C463.549 46.349 464.027 46.2383 464.574 46.2383C465.141 46.2383 465.639 46.3359 466.068 46.5312C466.505 46.7266 466.869 47.0293 467.162 47.4395C467.462 47.8431 467.686 48.3607 467.836 48.9922C467.986 49.6172 468.061 50.3659 468.061 51.2383ZM466.332 52.2246V51.2383C466.332 50.6523 466.286 50.1413 466.195 49.7051C466.111 49.2689 465.974 48.9076 465.785 48.6211C465.596 48.3346 465.359 48.1198 465.072 47.9766C464.786 47.8333 464.441 47.7617 464.037 47.7617C463.692 47.7617 463.386 47.8333 463.119 47.9766C462.859 48.1198 462.634 48.3151 462.445 48.5625C462.257 48.8034 462.1 49.0801 461.977 49.3926C461.853 49.6986 461.762 50.0176 461.703 50.3496V53.3086C461.814 53.7253 461.96 54.1191 462.143 54.4902C462.325 54.8548 462.569 55.151 462.875 55.3789C463.188 55.6068 463.581 55.7207 464.057 55.7207C464.454 55.7207 464.796 55.6491 465.082 55.5059C465.368 55.3626 465.603 55.1478 465.785 54.8613C465.974 54.5684 466.111 54.2038 466.195 53.7676C466.286 53.3249 466.332 52.8105 466.332 52.2246ZM473.143 46.4336V57H471.424V46.4336H473.143ZM471.326 43.6309C471.326 43.3379 471.408 43.0905 471.57 42.8887C471.733 42.6868 471.977 42.5859 472.303 42.5859C472.628 42.5859 472.872 42.6868 473.035 42.8887C473.204 43.0905 473.289 43.3379 473.289 43.6309C473.289 43.9108 473.204 44.1517 473.035 44.3535C472.872 44.5488 472.628 44.6465 472.303 44.6465C471.977 44.6465 471.733 44.5488 471.57 44.3535C471.408 44.1517 471.326 43.9108 471.326 43.6309ZM480.539 55.7207C480.884 55.7207 481.197 55.6523 481.477 55.5156C481.763 55.3724 481.997 55.151 482.18 54.8516C482.362 54.5456 482.466 54.1484 482.492 53.6602H484.113C484.087 54.3633 483.908 54.9818 483.576 55.5156C483.251 56.043 482.821 56.4564 482.287 56.7559C481.76 57.0488 481.177 57.1953 480.539 57.1953C479.855 57.1953 479.26 57.0846 478.752 56.8633C478.251 56.6419 477.834 56.3229 477.502 55.9062C477.176 55.4831 476.932 54.972 476.77 54.373C476.607 53.7676 476.525 53.0807 476.525 52.3125V51.1211C476.525 50.3529 476.607 49.6693 476.77 49.0703C476.932 48.4648 477.176 47.9538 477.502 47.5371C477.834 47.1139 478.251 46.7917 478.752 46.5703C479.26 46.349 479.855 46.2383 480.539 46.2383C481.255 46.2383 481.874 46.3913 482.395 46.6973C482.922 46.9967 483.332 47.4329 483.625 48.0059C483.924 48.5723 484.087 49.2591 484.113 50.0664H482.492C482.466 49.5456 482.372 49.1126 482.209 48.7676C482.046 48.416 481.825 48.1556 481.545 47.9863C481.265 47.8105 480.93 47.7227 480.539 47.7227C480.083 47.7227 479.706 47.804 479.406 47.9668C479.113 48.123 478.882 48.3509 478.713 48.6504C478.544 48.9499 478.423 49.3079 478.352 49.7246C478.286 50.1413 478.254 50.6068 478.254 51.1211V52.3125C478.254 52.8268 478.286 53.2956 478.352 53.7188C478.423 54.1354 478.54 54.4935 478.703 54.793C478.872 55.0924 479.107 55.3236 479.406 55.4863C479.706 55.6426 480.083 55.7207 480.539 55.7207ZM486.754 52.2246V51.2188C486.754 50.3984 486.858 49.679 487.066 49.0605C487.275 48.4355 487.564 47.9147 487.936 47.498C488.307 47.0814 488.74 46.7689 489.234 46.5605C489.729 46.3457 490.26 46.2383 490.826 46.2383C491.406 46.2383 491.943 46.3457 492.438 46.5605C492.932 46.7689 493.365 47.0814 493.736 47.498C494.114 47.9147 494.407 48.4355 494.615 49.0605C494.824 49.679 494.928 50.3984 494.928 51.2188V52.2246C494.928 53.0449 494.824 53.7676 494.615 54.3926C494.407 55.0111 494.117 55.5286 493.746 55.9453C493.375 56.362 492.942 56.6745 492.447 56.8828C491.952 57.0911 491.419 57.1953 490.846 57.1953C490.273 57.1953 489.739 57.0911 489.244 56.8828C488.749 56.6745 488.313 56.362 487.936 55.9453C487.564 55.5286 487.275 55.0111 487.066 54.3926C486.858 53.7676 486.754 53.0449 486.754 52.2246ZM488.482 51.2188V52.2246C488.482 52.804 488.541 53.3118 488.658 53.748C488.775 54.1842 488.941 54.5488 489.156 54.8418C489.371 55.1348 489.622 55.3561 489.908 55.5059C490.195 55.6491 490.507 55.7207 490.846 55.7207C491.236 55.7207 491.578 55.6491 491.871 55.5059C492.171 55.3561 492.418 55.1348 492.613 54.8418C492.809 54.5488 492.955 54.1842 493.053 53.748C493.15 53.3118 493.199 52.804 493.199 52.2246V51.2188C493.199 50.6393 493.141 50.1348 493.023 49.7051C492.906 49.2689 492.74 48.9043 492.525 48.6113C492.311 48.3118 492.057 48.0905 491.764 47.9473C491.477 47.7975 491.165 47.7227 490.826 47.7227C490.494 47.7227 490.185 47.7975 489.898 47.9473C489.612 48.0905 489.361 48.3118 489.146 48.6113C488.938 48.9043 488.775 49.2689 488.658 49.7051C488.541 50.1348 488.482 50.6393 488.482 51.2188ZM507.523 57.1953C506.892 57.1953 506.322 57.1009 505.814 56.9121C505.307 56.7233 504.874 56.4368 504.516 56.0527C504.158 55.6621 503.884 55.1706 503.695 54.5781C503.507 53.9857 503.412 53.2858 503.412 52.4785V51.2871C503.412 50.3561 503.52 49.5684 503.734 48.9238C503.956 48.2793 504.252 47.7617 504.623 47.3711C504.994 46.974 505.414 46.6875 505.883 46.5117C506.352 46.3294 506.833 46.2383 507.328 46.2383C507.992 46.2383 508.559 46.3457 509.027 46.5605C509.496 46.7754 509.877 47.0944 510.17 47.5176C510.463 47.9408 510.678 48.4616 510.814 49.0801C510.958 49.6986 511.029 50.4115 511.029 51.2188V52.2246H504.428V50.75H509.301V50.5059C509.275 49.959 509.2 49.4772 509.076 49.0605C508.959 48.6439 508.764 48.3184 508.49 48.084C508.217 47.8431 507.829 47.7227 507.328 47.7227C507.009 47.7227 506.713 47.778 506.439 47.8887C506.173 47.9928 505.941 48.1784 505.746 48.4453C505.557 48.7057 505.408 49.0671 505.297 49.5293C505.193 49.9915 505.141 50.5775 505.141 51.2871V52.4785C505.141 53.0449 505.193 53.5332 505.297 53.9434C505.408 54.347 505.567 54.6823 505.775 54.9492C505.99 55.2096 506.251 55.4049 506.557 55.5352C506.869 55.6589 507.224 55.7207 507.621 55.7207C508.201 55.7207 508.679 55.61 509.057 55.3887C509.434 55.1608 509.763 54.8711 510.043 54.5195L510.951 55.6035C510.762 55.8704 510.515 56.1276 510.209 56.375C509.91 56.6159 509.538 56.8145 509.096 56.9707C508.66 57.1204 508.135 57.1953 507.523 57.1953ZM523.566 46.4336V47.8203H518.635V46.4336H523.566ZM520.246 43.8652H521.975V54.3828C521.975 54.7409 522.017 55.0111 522.102 55.1934C522.193 55.3757 522.307 55.4961 522.443 55.5547C522.58 55.6133 522.727 55.6426 522.883 55.6426C523 55.6426 523.13 55.6296 523.273 55.6035C523.417 55.571 523.514 55.5449 523.566 55.5254L523.557 57C523.439 57.0456 523.283 57.0879 523.088 57.127C522.893 57.1725 522.645 57.1953 522.346 57.1953C521.975 57.1953 521.63 57.1074 521.311 56.9316C520.992 56.7559 520.734 56.4629 520.539 56.0527C520.344 55.6361 520.246 55.0762 520.246 54.373V43.8652ZM530.406 57.1953C529.775 57.1953 529.205 57.1009 528.697 56.9121C528.189 56.7233 527.757 56.4368 527.398 56.0527C527.04 55.6621 526.767 55.1706 526.578 54.5781C526.389 53.9857 526.295 53.2858 526.295 52.4785V51.2871C526.295 50.3561 526.402 49.5684 526.617 48.9238C526.839 48.2793 527.135 47.7617 527.506 47.3711C527.877 46.974 528.297 46.6875 528.766 46.5117C529.234 46.3294 529.716 46.2383 530.211 46.2383C530.875 46.2383 531.441 46.3457 531.91 46.5605C532.379 46.7754 532.76 47.0944 533.053 47.5176C533.346 47.9408 533.561 48.4616 533.697 49.0801C533.84 49.6986 533.912 50.4115 533.912 51.2188V52.2246H527.311V50.75H532.184V50.5059C532.158 49.959 532.083 49.4772 531.959 49.0605C531.842 48.6439 531.646 48.3184 531.373 48.084C531.1 47.8431 530.712 47.7227 530.211 47.7227C529.892 47.7227 529.596 47.778 529.322 47.8887C529.055 47.9928 528.824 48.1784 528.629 48.4453C528.44 48.7057 528.29 49.0671 528.18 49.5293C528.076 49.9915 528.023 50.5775 528.023 51.2871V52.4785C528.023 53.0449 528.076 53.5332 528.18 53.9434C528.29 54.347 528.45 54.6823 528.658 54.9492C528.873 55.2096 529.133 55.4049 529.439 55.5352C529.752 55.6589 530.107 55.7207 530.504 55.7207C531.083 55.7207 531.562 55.61 531.939 55.3887C532.317 55.1608 532.646 54.8711 532.926 54.5195L533.834 55.6035C533.645 55.8704 533.398 56.1276 533.092 56.375C532.792 56.6159 532.421 56.8145 531.979 56.9707C531.542 57.1204 531.018 57.1953 530.406 57.1953ZM538.73 48.6895V57H537.002V46.4336H538.633L538.73 48.6895ZM538.311 51.3164L537.607 51.2871C537.601 50.5645 537.682 49.8971 537.852 49.2852C538.027 48.6667 538.275 48.1296 538.594 47.6738C538.919 47.2181 539.307 46.8665 539.756 46.6191C540.205 46.3652 540.703 46.2383 541.25 46.2383C541.68 46.2383 542.07 46.3099 542.422 46.4531C542.773 46.5898 543.073 46.8112 543.32 47.1172C543.568 47.4232 543.757 47.8203 543.887 48.3086C544.023 48.7904 544.092 49.3796 544.092 50.0762V57H542.363V50.0566C542.363 49.5033 542.301 49.0605 542.178 48.7285C542.061 48.39 541.878 48.1458 541.631 47.9961C541.39 47.8398 541.084 47.7617 540.713 47.7617C540.374 47.7617 540.059 47.8561 539.766 48.0449C539.473 48.2337 539.215 48.4941 538.994 48.8262C538.779 49.1582 538.61 49.5391 538.486 49.9688C538.369 50.3919 538.311 50.8411 538.311 51.3164ZM551.547 46.4336V47.8203H546.615V46.4336H551.547ZM548.227 43.8652H549.955V54.3828C549.955 54.7409 549.997 55.0111 550.082 55.1934C550.173 55.3757 550.287 55.4961 550.424 55.5547C550.561 55.6133 550.707 55.6426 550.863 55.6426C550.98 55.6426 551.111 55.6296 551.254 55.6035C551.397 55.571 551.495 55.5449 551.547 55.5254L551.537 57C551.42 57.0456 551.264 57.0879 551.068 57.127C550.873 57.1725 550.626 57.1953 550.326 57.1953C549.955 57.1953 549.61 57.1074 549.291 56.9316C548.972 56.7559 548.715 56.4629 548.52 56.0527C548.324 55.6361 548.227 55.0762 548.227 54.373V43.8652ZM558.387 57.1953C557.755 57.1953 557.186 57.1009 556.678 56.9121C556.17 56.7233 555.737 56.4368 555.379 56.0527C555.021 55.6621 554.747 55.1706 554.559 54.5781C554.37 53.9857 554.275 53.2858 554.275 52.4785V51.2871C554.275 50.3561 554.383 49.5684 554.598 48.9238C554.819 48.2793 555.115 47.7617 555.486 47.3711C555.857 46.974 556.277 46.6875 556.746 46.5117C557.215 46.3294 557.697 46.2383 558.191 46.2383C558.855 46.2383 559.422 46.3457 559.891 46.5605C560.359 46.7754 560.74 47.0944 561.033 47.5176C561.326 47.9408 561.541 48.4616 561.678 49.0801C561.821 49.6986 561.893 50.4115 561.893 51.2188V52.2246H555.291V50.75H560.164V50.5059C560.138 49.959 560.063 49.4772 559.939 49.0605C559.822 48.6439 559.627 48.3184 559.354 48.084C559.08 47.8431 558.693 47.7227 558.191 47.7227C557.872 47.7227 557.576 47.778 557.303 47.8887C557.036 47.9928 556.805 48.1784 556.609 48.4453C556.421 48.7057 556.271 49.0671 556.16 49.5293C556.056 49.9915 556.004 50.5775 556.004 51.2871V52.4785C556.004 53.0449 556.056 53.5332 556.16 53.9434C556.271 54.347 556.43 54.6823 556.639 54.9492C556.854 55.2096 557.114 55.4049 557.42 55.5352C557.732 55.6589 558.087 55.7207 558.484 55.7207C559.064 55.7207 559.542 55.61 559.92 55.3887C560.298 55.1608 560.626 54.8711 560.906 54.5195L561.814 55.6035C561.626 55.8704 561.378 56.1276 561.072 56.375C560.773 56.6159 560.402 56.8145 559.959 56.9707C559.523 57.1204 558.999 57.1953 558.387 57.1953ZM572.301 48.6895V57H570.572V46.4336H572.203L572.301 48.6895ZM571.881 51.3164L571.178 51.2871C571.171 50.5645 571.253 49.8971 571.422 49.2852C571.598 48.6667 571.845 48.1296 572.164 47.6738C572.49 47.2181 572.877 46.8665 573.326 46.6191C573.775 46.3652 574.273 46.2383 574.82 46.2383C575.25 46.2383 575.641 46.3099 575.992 46.4531C576.344 46.5898 576.643 46.8112 576.891 47.1172C577.138 47.4232 577.327 47.8203 577.457 48.3086C577.594 48.7904 577.662 49.3796 577.662 50.0762V57H575.934V50.0566C575.934 49.5033 575.872 49.0605 575.748 48.7285C575.631 48.39 575.449 48.1458 575.201 47.9961C574.96 47.8398 574.654 47.7617 574.283 47.7617C573.945 47.7617 573.629 47.8561 573.336 48.0449C573.043 48.2337 572.786 48.4941 572.564 48.8262C572.35 49.1582 572.18 49.5391 572.057 49.9688C571.939 50.3919 571.881 50.8411 571.881 51.3164ZM580.898 52.2246V51.2188C580.898 50.3984 581.003 49.679 581.211 49.0605C581.419 48.4355 581.709 47.9147 582.08 47.498C582.451 47.0814 582.884 46.7689 583.379 46.5605C583.874 46.3457 584.404 46.2383 584.971 46.2383C585.55 46.2383 586.087 46.3457 586.582 46.5605C587.077 46.7689 587.51 47.0814 587.881 47.498C588.258 47.9147 588.551 48.4355 588.76 49.0605C588.968 49.679 589.072 50.3984 589.072 51.2188V52.2246C589.072 53.0449 588.968 53.7676 588.76 54.3926C588.551 55.0111 588.262 55.5286 587.891 55.9453C587.52 56.362 587.087 56.6745 586.592 56.8828C586.097 57.0911 585.563 57.1953 584.99 57.1953C584.417 57.1953 583.883 57.0911 583.389 56.8828C582.894 56.6745 582.458 56.362 582.08 55.9453C581.709 55.5286 581.419 55.0111 581.211 54.3926C581.003 53.7676 580.898 53.0449 580.898 52.2246ZM582.627 51.2188V52.2246C582.627 52.804 582.686 53.3118 582.803 53.748C582.92 54.1842 583.086 54.5488 583.301 54.8418C583.516 55.1348 583.766 55.3561 584.053 55.5059C584.339 55.6491 584.652 55.7207 584.99 55.7207C585.381 55.7207 585.723 55.6491 586.016 55.5059C586.315 55.3561 586.562 55.1348 586.758 54.8418C586.953 54.5488 587.1 54.1842 587.197 53.748C587.295 53.3118 587.344 52.804 587.344 52.2246V51.2188C587.344 50.6393 587.285 50.1348 587.168 49.7051C587.051 49.2689 586.885 48.9043 586.67 48.6113C586.455 48.3118 586.201 48.0905 585.908 47.9473C585.622 47.7975 585.309 47.7227 584.971 47.7227C584.639 47.7227 584.329 47.7975 584.043 47.9473C583.757 48.0905 583.506 48.3118 583.291 48.6113C583.083 48.9043 582.92 49.2689 582.803 49.7051C582.686 50.1348 582.627 50.6393 582.627 51.2188ZM594.877 55.3691L597.143 46.4336H598.9L595.766 57H594.623L594.877 55.3691ZM593.051 46.4336L595.414 55.418L595.6 57H594.467L591.293 46.4336H593.051ZM606.717 55.1934V49.4609C606.717 49.0443 606.652 48.709 606.521 48.4551C606.398 48.2012 606.209 48.0156 605.955 47.8984C605.708 47.7812 605.395 47.7227 605.018 47.7227C604.653 47.7227 604.337 47.7975 604.07 47.9473C603.81 48.097 603.608 48.2956 603.465 48.543C603.328 48.7904 603.26 49.0638 603.26 49.3633H601.531C601.531 48.9857 601.613 48.6113 601.775 48.2402C601.945 47.8691 602.186 47.5339 602.498 47.2344C602.811 46.9284 603.185 46.6875 603.621 46.5117C604.064 46.3294 604.559 46.2383 605.105 46.2383C605.757 46.2383 606.333 46.3457 606.834 46.5605C607.335 46.7689 607.729 47.1107 608.016 47.5859C608.302 48.0612 608.445 48.6927 608.445 49.4805V54.6953C608.445 55.0469 608.471 55.4212 608.523 55.8184C608.582 56.2155 608.663 56.5573 608.768 56.8438V57H606.98C606.896 56.7917 606.831 56.515 606.785 56.1699C606.74 55.8184 606.717 55.4928 606.717 55.1934ZM606.99 50.5938L607.01 51.8633H605.809C605.398 51.8633 605.024 51.9089 604.686 52C604.354 52.0911 604.067 52.2246 603.826 52.4004C603.585 52.5697 603.4 52.7812 603.27 53.0352C603.146 53.2891 603.084 53.5788 603.084 53.9043C603.084 54.3275 603.143 54.666 603.26 54.9199C603.377 55.1673 603.553 55.3464 603.787 55.457C604.021 55.5677 604.318 55.623 604.676 55.623C605.112 55.623 605.496 55.5221 605.828 55.3203C606.16 55.1185 606.417 54.8743 606.6 54.5879C606.788 54.3014 606.876 54.0345 606.863 53.7871L607.244 54.5977C607.218 54.8516 607.133 55.1283 606.99 55.4277C606.854 55.7207 606.661 56.0039 606.414 56.2773C606.167 56.5443 605.874 56.7656 605.535 56.9414C605.203 57.1107 604.829 57.1953 604.412 57.1953C603.8 57.1953 603.263 57.0781 602.801 56.8438C602.345 56.6094 601.99 56.2643 601.736 55.8086C601.482 55.3529 601.355 54.7897 601.355 54.1191C601.355 53.6113 601.443 53.1426 601.619 52.7129C601.795 52.2832 602.055 51.9121 602.4 51.5996C602.745 51.2806 603.178 51.0332 603.699 50.8574C604.227 50.6816 604.835 50.5938 605.525 50.5938H606.99ZM613.859 48.5332V57H612.141V46.4336H613.762L613.859 48.5332ZM613.508 51.3164L612.707 51.2871C612.701 50.5645 612.772 49.8971 612.922 49.2852C613.072 48.6667 613.296 48.1296 613.596 47.6738C613.902 47.2181 614.283 46.8665 614.738 46.6191C615.201 46.3652 615.738 46.2383 616.35 46.2383C616.753 46.2383 617.128 46.3099 617.473 46.4531C617.824 46.5898 618.13 46.8079 618.391 47.1074C618.651 47.4069 618.853 47.791 618.996 48.2598C619.146 48.7285 619.221 49.2949 619.221 49.959V57H617.492V50.0469C617.492 49.4935 617.417 49.0508 617.268 48.7188C617.124 48.3867 616.919 48.1458 616.652 47.9961C616.385 47.8398 616.066 47.7617 615.695 47.7617C615.272 47.7617 614.917 47.8561 614.631 48.0449C614.351 48.2337 614.126 48.4941 613.957 48.8262C613.794 49.1582 613.677 49.5391 613.605 49.9688C613.54 50.3919 613.508 50.8411 613.508 51.3164ZM619.201 50.3203L618.049 50.6914C618.042 50.112 618.114 49.5553 618.264 49.0215C618.413 48.4876 618.635 48.0124 618.928 47.5957C619.227 47.179 619.598 46.8503 620.041 46.6094C620.484 46.362 620.998 46.2383 621.584 46.2383C622.066 46.2383 622.492 46.3132 622.863 46.4629C623.234 46.6126 623.547 46.8438 623.801 47.1562C624.061 47.4622 624.257 47.8561 624.387 48.3379C624.517 48.8197 624.582 49.3926 624.582 50.0566V57H622.854V50.0371C622.854 49.4447 622.779 48.9857 622.629 48.6602C622.486 48.3281 622.281 48.097 622.014 47.9668C621.747 47.8301 621.428 47.7617 621.057 47.7617C620.757 47.7617 620.49 47.8301 620.256 47.9668C620.028 48.1035 619.836 48.2923 619.68 48.5332C619.523 48.7676 619.403 49.0378 619.318 49.3438C619.24 49.6497 619.201 49.9753 619.201 50.3203ZM631.969 57.1953C631.337 57.1953 630.768 57.1009 630.26 56.9121C629.752 56.7233 629.319 56.4368 628.961 56.0527C628.603 55.6621 628.329 55.1706 628.141 54.5781C627.952 53.9857 627.857 53.2858 627.857 52.4785V51.2871C627.857 50.3561 627.965 49.5684 628.18 48.9238C628.401 48.2793 628.697 47.7617 629.068 47.3711C629.439 46.974 629.859 46.6875 630.328 46.5117C630.797 46.3294 631.279 46.2383 631.773 46.2383C632.438 46.2383 633.004 46.3457 633.473 46.5605C633.941 46.7754 634.322 47.0944 634.615 47.5176C634.908 47.9408 635.123 48.4616 635.26 49.0801C635.403 49.6986 635.475 50.4115 635.475 51.2188V52.2246H628.873V50.75H633.746V50.5059C633.72 49.959 633.645 49.4772 633.521 49.0605C633.404 48.6439 633.209 48.3184 632.936 48.084C632.662 47.8431 632.275 47.7227 631.773 47.7227C631.454 47.7227 631.158 47.778 630.885 47.8887C630.618 47.9928 630.387 48.1784 630.191 48.4453C630.003 48.7057 629.853 49.0671 629.742 49.5293C629.638 49.9915 629.586 50.5775 629.586 51.2871V52.4785C629.586 53.0449 629.638 53.5332 629.742 53.9434C629.853 54.347 630.012 54.6823 630.221 54.9492C630.436 55.2096 630.696 55.4049 631.002 55.5352C631.314 55.6589 631.669 55.7207 632.066 55.7207C632.646 55.7207 633.124 55.61 633.502 55.3887C633.88 55.1608 634.208 54.8711 634.488 54.5195L635.396 55.6035C635.208 55.8704 634.96 56.1276 634.654 56.375C634.355 56.6159 633.984 56.8145 633.541 56.9707C633.105 57.1204 632.581 57.1953 631.969 57.1953ZM640.293 48.6895V57H638.564V46.4336H640.195L640.293 48.6895ZM639.873 51.3164L639.17 51.2871C639.163 50.5645 639.245 49.8971 639.414 49.2852C639.59 48.6667 639.837 48.1296 640.156 47.6738C640.482 47.2181 640.869 46.8665 641.318 46.6191C641.768 46.3652 642.266 46.2383 642.812 46.2383C643.242 46.2383 643.633 46.3099 643.984 46.4531C644.336 46.5898 644.635 46.8112 644.883 47.1172C645.13 47.4232 645.319 47.8203 645.449 48.3086C645.586 48.7904 645.654 49.3796 645.654 50.0762V57H643.926V50.0566C643.926 49.5033 643.864 49.0605 643.74 48.7285C643.623 48.39 643.441 48.1458 643.193 47.9961C642.952 47.8398 642.646 47.7617 642.275 47.7617C641.937 47.7617 641.621 47.8561 641.328 48.0449C641.035 48.2337 640.778 48.4941 640.557 48.8262C640.342 49.1582 640.173 49.5391 640.049 49.9688C639.932 50.3919 639.873 50.8411 639.873 51.3164ZM653.109 46.4336V47.8203H648.178V46.4336H653.109ZM649.789 43.8652H651.518V54.3828C651.518 54.7409 651.56 55.0111 651.645 55.1934C651.736 55.3757 651.85 55.4961 651.986 55.5547C652.123 55.6133 652.27 55.6426 652.426 55.6426C652.543 55.6426 652.673 55.6296 652.816 55.6035C652.96 55.571 653.057 55.5449 653.109 55.5254L653.1 57C652.982 57.0456 652.826 57.0879 652.631 57.127C652.436 57.1725 652.188 57.1953 651.889 57.1953C651.518 57.1953 651.173 57.1074 650.854 56.9316C650.535 56.7559 650.277 56.4629 650.082 56.0527C649.887 55.6361 649.789 55.0762 649.789 54.373V43.8652ZM659.949 57.1953C659.318 57.1953 658.748 57.1009 658.24 56.9121C657.732 56.7233 657.299 56.4368 656.941 56.0527C656.583 55.6621 656.31 55.1706 656.121 54.5781C655.932 53.9857 655.838 53.2858 655.838 52.4785V51.2871C655.838 50.3561 655.945 49.5684 656.16 48.9238C656.382 48.2793 656.678 47.7617 657.049 47.3711C657.42 46.974 657.84 46.6875 658.309 46.5117C658.777 46.3294 659.259 46.2383 659.754 46.2383C660.418 46.2383 660.984 46.3457 661.453 46.5605C661.922 46.7754 662.303 47.0944 662.596 47.5176C662.889 47.9408 663.104 48.4616 663.24 49.0801C663.383 49.6986 663.455 50.4115 663.455 51.2188V52.2246H656.854V50.75H661.727V50.5059C661.701 49.959 661.626 49.4772 661.502 49.0605C661.385 48.6439 661.189 48.3184 660.916 48.084C660.643 47.8431 660.255 47.7227 659.754 47.7227C659.435 47.7227 659.139 47.778 658.865 47.8887C658.598 47.9928 658.367 48.1784 658.172 48.4453C657.983 48.7057 657.833 49.0671 657.723 49.5293C657.618 49.9915 657.566 50.5775 657.566 51.2871V52.4785C657.566 53.0449 657.618 53.5332 657.723 53.9434C657.833 54.347 657.993 54.6823 658.201 54.9492C658.416 55.2096 658.676 55.4049 658.982 55.5352C659.295 55.6589 659.65 55.7207 660.047 55.7207C660.626 55.7207 661.105 55.61 661.482 55.3887C661.86 55.1608 662.189 54.8711 662.469 54.5195L663.377 55.6035C663.188 55.8704 662.941 56.1276 662.635 56.375C662.335 56.6159 661.964 56.8145 661.521 56.9707C661.085 57.1204 660.561 57.1953 659.949 57.1953ZM666.652 56.043C666.652 55.737 666.747 55.4798 666.936 55.2715C667.131 55.0566 667.411 54.9492 667.775 54.9492C668.14 54.9492 668.417 55.0566 668.605 55.2715C668.801 55.4798 668.898 55.737 668.898 56.043C668.898 56.3424 668.801 56.5964 668.605 56.8047C668.417 57.013 668.14 57.1172 667.775 57.1172C667.411 57.1172 667.131 57.013 666.936 56.8047C666.747 56.5964 666.652 56.3424 666.652 56.043Z" fill="white"/>
<path d="M43.8598 28.271L45.028 27.5701C45.9626 27.1028 47.1308 26.8692 48.2991 26.8692H64.4206C68.6262 26.8692 72.1308 29.9065 72.8318 33.8785L76.3364 52.1028C77.0374 55.3738 74.4673 58.1776 71.1963 58.1776H61.8505L65.8224 69.1589C66.0561 69.6262 66.0561 70.0935 66.0561 70.5607C66.0561 72.8972 64.1869 75 61.6168 75C60.2149 75 59.0467 74.2991 58.1121 73.3645L44.3271 55.1402H43.8598" stroke="#BB2323" stroke-width="3" stroke-miterlimit="10" stroke-linecap="round" stroke-linejoin="round"/>
<path d="M41.2897 25.0004H26.3364C24.9346 25.0004 24 25.935 24 27.3369V56.5425C24 57.9443 24.9346 58.8789 26.3364 58.8789H41.5234C42.9252 58.8789 43.8598 57.9443 43.8598 56.5425V27.1032C43.6262 25.935 42.6916 25.0004 41.2897 25.0004Z" stroke="#BB2323" stroke-width="3" stroke-miterlimit="10" stroke-linecap="round" stroke-linejoin="round"/>
</svg>
